<svg width="24" height="24" viewBox="0 0 24 24" fill="none" xmlns="http://www.w3.org/2000/svg">
    <g clip-path="url(#clip0_11174_22590)">
        <g clip-path="url(#clip1_11174_22590)">
            <path
                d="M2.77285 22.2211L12.7574 11.0131C12.8692 10.8875 13.0617 10.8764 13.1873 10.9883C13.3129 11.1002 13.324 11.2927 13.2121 11.4183L3.22763 22.6262C3.11575 22.7518 2.92326 22.7629 2.79767 22.651C2.67209 22.5391 2.66098 22.3466 2.77285 22.2211Z"
                fill="#333333" />
            <path
                d="M11.42 12.9272L11.6461 13.1326L11.8508 12.9058L11.6247 12.7018L11.42 12.9272ZM11.0772 6.85106L11.299 7.05977C11.0807 6.85428 11.0773 6.85106 11.0772 6.85106C11.0769 6.85136 11.076 6.85238 11.0756 6.85286C11.0747 6.85383 11.0734 6.85516 11.0718 6.85685C11.0687 6.86023 11.0642 6.86502 11.0586 6.8712C11.0472 6.88359 11.0309 6.90151 11.0105 6.9245C10.9695 6.97047 10.9116 7.03689 10.8423 7.12009C10.7042 7.28617 10.5195 7.52091 10.3341 7.79529C9.97434 8.32778 9.56859 9.07127 9.56587 9.76762C9.56432 10.1653 9.6932 10.5631 9.86848 10.9234C10.0449 11.286 10.2775 11.6291 10.505 11.9224C10.7331 12.2166 10.9606 12.4665 11.1309 12.6427C11.2161 12.731 11.2875 12.8013 11.3379 12.8499C11.3631 12.8741 11.3832 12.893 11.3971 12.9061C11.4041 12.9126 11.4096 12.9176 11.4134 12.9212C11.4153 12.9229 11.4168 12.9244 11.4179 12.9254L11.42 12.9272C11.42 12.9272 11.42 12.9272 11.6247 12.7018C11.8508 12.9058 11.8507 12.9059 11.8508 12.9058C11.8511 12.9055 11.8521 12.9043 11.8526 12.9038C11.8536 12.9027 11.855 12.9011 11.8568 12.8991C11.8603 12.8952 11.8653 12.8896 11.8716 12.8823C11.8844 12.8678 11.9026 12.8468 11.9256 12.8198C11.9714 12.7659 12.0361 12.6881 12.113 12.5908C12.2664 12.3965 12.4697 12.1224 12.6685 11.804C12.8667 11.4866 13.0645 11.1187 13.2027 10.7371C13.3399 10.358 13.4254 9.94566 13.3774 9.54734C13.2931 8.84893 12.7906 8.15691 12.3609 7.67129C12.1394 7.42091 11.9233 7.21014 11.7627 7.06203C11.6822 6.98783 11.6153 6.92894 11.568 6.8883C11.5444 6.86798 11.5257 6.8522 11.5127 6.84129C11.5061 6.83584 11.501 6.8316 11.4974 6.82863C11.4956 6.82715 11.4942 6.82595 11.4931 6.8251L11.4915 6.82377C11.4914 6.82372 11.4915 6.82379 11.4915 6.82377C11.4913 6.82387 11.4866 6.8292 11.3221 7.03138L11.4915 6.82377L11.2714 6.64475L11.0772 6.85106ZM11.6704 8.20962L11.6467 7.79792C11.7295 7.88253 11.8168 7.97545 11.9048 8.07487C12.327 8.55213 12.7126 9.12214 12.7727 9.6203C12.8051 9.88858 12.7495 10.1993 12.6299 10.5298C12.5112 10.8578 12.3364 11.1861 12.1519 11.4814C11.968 11.7759 11.7787 12.0314 11.635 12.2134C11.6239 12.2274 11.613 12.2409 11.6025 12.254C11.5916 12.2429 11.5804 12.2315 11.5689 12.2196C11.4094 12.0545 11.1974 11.8214 10.9863 11.5492C10.7745 11.2761 10.5682 10.9694 10.4161 10.6569C10.263 10.3421 10.1739 10.0397 10.1749 9.76999C10.1769 9.2703 10.4854 8.65927 10.8388 8.13625C10.9066 8.03586 10.9745 7.94099 11.0398 7.85337L11.0624 8.24472C11.0721 8.41263 11.2161 8.54089 11.384 8.5312C11.5519 8.52149 11.6801 8.37752 11.6704 8.20962Z"
                fill="#333333" />
            <path
                d="M11.4454 12.9493L11.2154 12.7483L11.417 12.5189L11.6458 12.72L11.4454 12.9493ZM17.5206 12.5906L17.2878 12.3943C17.517 12.5875 17.5206 12.5905 17.5206 12.5906C17.5204 12.5909 17.5194 12.5919 17.519 12.5924C17.5182 12.5934 17.517 12.5948 17.5155 12.5966C17.5125 12.6001 17.5083 12.6051 17.5028 12.6114C17.4918 12.6241 17.4758 12.6424 17.4554 12.6654C17.4144 12.7113 17.3551 12.7765 17.2804 12.8549C17.1313 13.0112 16.9194 13.2217 16.6682 13.4374C16.1806 13.8561 15.4888 14.3447 14.7974 14.4275C14.4025 14.4748 13.9925 14.3926 13.6144 14.2599C13.234 14.1264 12.8664 13.9348 12.5488 13.7426C12.2304 13.5499 11.9559 13.3526 11.7613 13.2038C11.6637 13.1292 11.5857 13.0665 11.5317 13.0219C11.5047 12.9997 11.4836 12.982 11.469 12.9696C11.4618 12.9634 11.4561 12.9586 11.4522 12.9552C11.4502 12.9535 11.4486 12.9521 11.4475 12.9511L11.4454 12.9493C11.4454 12.9493 11.4454 12.9493 11.6458 12.72C11.4171 12.5189 11.417 12.519 11.417 12.5189C11.4173 12.5186 11.4184 12.5174 11.4189 12.5169C11.4199 12.5158 11.4213 12.5142 11.423 12.5122C11.4265 12.5082 11.4315 12.5026 11.438 12.4955C11.451 12.4812 11.4697 12.4606 11.4939 12.4347C11.5421 12.383 11.612 12.3097 11.6999 12.2222C11.8752 12.0475 12.1241 11.814 12.4174 11.5798C12.71 11.3464 13.0527 11.1076 13.4158 10.9265C13.7766 10.7465 14.1764 10.6141 14.5776 10.616C15.281 10.6194 16.0263 11.0389 16.5581 11.4098C16.8323 11.601 17.0666 11.7915 17.2322 11.934C17.3151 12.0053 17.3813 12.0651 17.4272 12.1073C17.4501 12.1284 17.4679 12.1452 17.4802 12.1569C17.4864 12.1628 17.4912 12.1674 17.4946 12.1706C17.4962 12.1722 17.4976 12.1735 17.4985 12.1744L17.5001 12.1759C17.5 12.1759 17.5001 12.176 17.5001 12.1759C17.5 12.1761 17.4952 12.1814 17.3133 12.368L17.5001 12.1759L17.7032 12.3739L17.5206 12.5906ZM16.1028 12.1576L16.5145 12.1339C16.4209 12.0613 16.3186 11.9853 16.2097 11.9093C15.687 11.5448 15.0764 11.2274 14.5747 11.225C14.3044 11.2237 14.0022 11.3147 13.6877 11.4715C13.3755 11.6272 13.0695 11.8387 12.7973 12.0559C12.526 12.2724 12.294 12.4899 12.1297 12.6536C12.1171 12.6662 12.1049 12.6786 12.0931 12.6905C12.1054 12.7001 12.1181 12.7099 12.1312 12.7199C12.3136 12.8594 12.5695 13.0432 12.8642 13.2216C13.1598 13.4005 13.4882 13.5702 13.8161 13.6852C14.1465 13.8011 14.4572 13.8548 14.7249 13.8228C15.2211 13.7633 15.7925 13.3865 16.2714 12.9753C16.3633 12.8964 16.4498 12.818 16.5293 12.7431L16.1379 12.7657C15.97 12.7754 15.826 12.6471 15.8164 12.4792C15.8067 12.3113 15.9349 12.1673 16.1028 12.1576Z"
                fill="#333333" />
            <path
                d="M13.1324 11.4104L12.8276 11.431L12.808 11.1261L13.1119 11.1065L13.1324 11.4104ZM17.1745 6.86091L16.8711 6.88674C17.1698 6.86129 17.1745 6.86085 17.1745 6.86091C17.1746 6.86132 17.1746 6.86269 17.1747 6.86335C17.1748 6.86466 17.175 6.8665 17.1752 6.8688C17.1755 6.87339 17.176 6.87992 17.1766 6.88829C17.1779 6.90505 17.1795 6.9292 17.1813 6.95994C17.1848 7.02142 17.189 7.10944 17.1916 7.21765C17.1967 7.43363 17.1957 7.7323 17.1706 8.06248C17.1219 8.70327 16.9781 9.53799 16.5478 10.0855C16.3021 10.3981 15.954 10.6299 15.5929 10.8034C15.2294 10.978 14.834 11.1025 14.4736 11.1911C14.1121 11.28 13.7785 11.3346 13.5357 11.367C13.414 11.3832 13.3144 11.394 13.2447 11.4008C13.2099 11.4041 13.1825 11.4065 13.1634 11.408C13.1539 11.4088 13.1465 11.4094 13.1413 11.4098C13.1387 11.41 13.1366 11.4101 13.1351 11.4102L13.1324 11.4104C13.1323 11.4104 13.1324 11.4104 13.1119 11.1065C12.808 11.1261 12.808 11.1262 12.808 11.1261C12.808 11.1257 12.8079 11.1241 12.8078 11.1234C12.8077 11.1219 12.8076 11.1198 12.8074 11.1172C12.8071 11.1119 12.8067 11.1044 12.8062 11.0947C12.8053 11.0754 12.804 11.0476 12.8028 11.0123C12.8003 10.9415 12.7979 10.8403 12.7982 10.7163C12.7986 10.4688 12.8094 10.1277 12.8513 9.75471C12.8931 9.3828 12.9666 8.97159 13.0953 8.58675C13.2232 8.20436 13.4122 7.82807 13.6972 7.54573C14.1971 7.05068 15.0207 6.82035 15.659 6.70656C15.9881 6.64789 16.2884 6.61693 16.5063 6.60058C16.6154 6.59239 16.7045 6.58782 16.7667 6.58529C16.7978 6.58403 16.8223 6.58328 16.8393 6.58284C16.8478 6.58262 16.8545 6.58249 16.8591 6.5824C16.8615 6.58235 16.8633 6.5823 16.8647 6.58228L16.8668 6.58227C16.8668 6.58227 16.8669 6.58226 16.8668 6.58227C16.8669 6.58246 16.8672 6.58949 16.8706 6.85015L16.8668 6.58227L17.1505 6.57861L17.1745 6.86091ZM15.8659 7.55731L16.1402 7.24939C16.0227 7.26425 15.8966 7.28286 15.7659 7.30616C15.1385 7.418 14.4824 7.62534 14.1259 7.97844C13.9339 8.16861 13.7844 8.44665 13.6729 8.77994C13.5623 9.11077 13.4955 9.47663 13.4566 9.8227C13.4178 10.1677 13.4076 10.4855 13.4072 10.7174C13.4072 10.7353 13.4073 10.7526 13.4074 10.7694C13.4228 10.7675 13.4387 10.7655 13.4551 10.7633C13.6827 10.733 13.9936 10.682 14.3281 10.5997C14.6637 10.5172 15.0159 10.4049 15.3291 10.2544C15.6446 10.1028 15.9023 9.92109 16.069 9.70907C16.3778 9.31622 16.5154 8.64568 16.5633 8.01629C16.5724 7.89549 16.5781 7.77896 16.5814 7.66974L16.3206 7.96245C16.2088 8.08803 16.0163 8.09914 15.8907 7.98727C15.7651 7.87539 15.754 7.68289 15.8659 7.55731Z"
                fill="#333333" />
            <path
                d="M9.06555 15.5698L9.29165 15.7752L9.49634 15.5485L9.27031 15.3444L9.06555 15.5698ZM8.7228 9.49368L8.9446 9.70238C8.72626 9.4969 8.7229 9.49367 8.7228 9.49368C8.72252 9.49398 8.7216 9.495 8.72116 9.49548C8.72025 9.49645 8.71898 9.49778 8.71741 9.49947C8.71428 9.50285 8.70981 9.50764 8.70414 9.51382C8.69278 9.52621 8.67651 9.54413 8.65602 9.56712C8.61506 9.61309 8.55713 9.6795 8.48791 9.76271C8.34973 9.92878 8.16507 10.1635 7.97968 10.4379C7.61991 10.9704 7.21416 11.7139 7.21144 12.4102C7.20989 12.8079 7.33877 13.2058 7.51405 13.566C7.69046 13.9286 7.92307 14.2717 8.15054 14.565C8.37866 14.8592 8.60619 15.1091 8.77642 15.2853C8.86171 15.3736 8.93304 15.4439 8.98348 15.4925C9.0087 15.5168 9.02873 15.5356 9.04268 15.5487C9.04965 15.5552 9.05513 15.5603 9.05897 15.5638C9.06089 15.5656 9.0624 15.567 9.0635 15.568L9.06555 15.5698C9.06561 15.5699 9.06555 15.5698 9.27031 15.3444C9.49635 15.5484 9.49628 15.5485 9.49634 15.5485C9.49664 15.5481 9.49767 15.547 9.49816 15.5464C9.49917 15.5453 9.50059 15.5437 9.50234 15.5418C9.50586 15.5378 9.51085 15.5322 9.51722 15.5249C9.52996 15.5104 9.54819 15.4894 9.57113 15.4624C9.61699 15.4085 9.68171 15.3307 9.75856 15.2334C9.91193 15.0391 10.1153 14.765 10.3141 14.4467C10.5123 14.1292 10.7101 13.7613 10.8482 13.3797C10.9855 13.0006 11.071 12.5883 11.0229 12.19C10.9386 11.4915 10.4361 10.7995 10.0065 10.3139C9.78498 10.0635 9.56884 9.85276 9.40825 9.70465C9.32779 9.63045 9.26083 9.57156 9.21361 9.53092C9.19 9.5106 9.17128 9.49482 9.15822 9.48391C9.1517 9.47846 9.14656 9.47422 9.14296 9.47125C9.14115 9.46976 9.13974 9.46857 9.1387 9.46772L9.13704 9.46639C9.13698 9.46634 9.13706 9.46641 9.13704 9.46639C9.13686 9.46649 9.1322 9.47183 8.96771 9.674L9.13704 9.46639L8.91699 9.28737L8.7228 9.49368ZM9.31602 10.8522L9.29225 10.4405C9.3751 10.5251 9.4624 10.6181 9.55036 10.7175C9.97261 11.1947 10.3581 11.7648 10.4183 12.2629C10.4506 12.5312 10.3951 12.8419 10.2755 13.1724C10.1568 13.5004 9.98192 13.8287 9.79747 14.1241C9.61359 14.4185 9.42423 14.674 9.28053 14.856C9.26945 14.87 9.25857 14.8835 9.24808 14.8966C9.2372 14.8855 9.22593 14.8741 9.21448 14.8622C9.05496 14.6971 8.84294 14.464 8.63183 14.1918C8.42007 13.9187 8.21375 13.612 8.06172 13.2995C7.90855 12.9847 7.81945 12.6823 7.8205 12.4126C7.82245 11.9129 8.131 11.3019 8.48437 10.7789C8.5522 10.6785 8.6201 10.5836 8.68538 10.496L8.70797 10.8873C8.71767 11.0552 8.86164 11.1835 9.02955 11.1738C9.19744 11.1641 9.32571 11.0201 9.31602 10.8522Z"
                fill="#333333" />
            <path
                d="M9.09096 15.5928L8.8609 15.3919L9.06258 15.1624L9.29132 15.3635L9.09096 15.5928ZM15.1662 15.2341L14.9333 15.0378C15.1626 15.231 15.1661 15.234 15.1662 15.2341C15.1659 15.2344 15.165 15.2354 15.1646 15.2359C15.1637 15.2369 15.1625 15.2383 15.161 15.2401C15.158 15.2436 15.1538 15.2486 15.1483 15.2549C15.1373 15.2676 15.1214 15.2859 15.1009 15.3089C15.0599 15.3548 15.0006 15.42 14.9259 15.4984C14.7769 15.6547 14.5649 15.8652 14.3137 16.0809C13.8262 16.4996 13.1343 16.9882 12.4429 17.071C12.0481 17.1183 11.638 17.0361 11.26 16.9034C10.8795 16.7699 10.5119 16.5783 10.1944 16.3861C9.87591 16.1934 9.60146 15.9961 9.40679 15.8473C9.30926 15.7727 9.23124 15.71 9.17721 15.6655C9.15018 15.6432 9.12912 15.6255 9.11457 15.6131C9.1073 15.6069 9.10164 15.6021 9.09769 15.5987C9.09571 15.597 9.09413 15.5956 9.09301 15.5946L9.09096 15.5928C9.0909 15.5928 9.09097 15.5928 9.29132 15.3635C9.0626 15.1624 9.06252 15.1625 9.06258 15.1624C9.06288 15.1621 9.06391 15.1609 9.0644 15.1604C9.0654 15.1593 9.06678 15.1577 9.06854 15.1557C9.07205 15.1518 9.07707 15.1461 9.08354 15.139C9.09649 15.1247 9.11528 15.1041 9.13942 15.0783C9.18768 15.0265 9.25755 14.9532 9.3454 14.8657C9.52073 14.691 9.76958 14.4575 10.063 14.2233C10.3555 13.9899 10.6982 13.7511 11.0613 13.57C11.4222 13.39 11.8219 13.2576 12.2231 13.2595C12.9266 13.2629 13.6718 13.6824 14.2036 14.0533C14.4779 14.2445 14.7121 14.435 14.8777 14.5775C14.9607 14.6489 15.0269 14.7086 15.0727 14.7508C15.0956 14.7719 15.1134 14.7887 15.1257 14.8004C15.1319 14.8063 15.1367 14.8109 15.1401 14.8141C15.1418 14.8158 15.1431 14.817 15.1441 14.818L15.1456 14.8195C15.1456 14.8194 15.1456 14.8195 15.1456 14.8195C15.1455 14.8196 15.1407 14.8249 14.9588 15.0115L15.1456 14.8195L15.3487 15.0174L15.1662 15.2341ZM13.7484 14.8011L14.1601 14.7774C14.0665 14.7048 13.9641 14.6288 13.8552 14.5528C13.3326 14.1883 12.722 13.871 12.2202 13.8686C11.95 13.8673 11.6477 13.9582 11.3332 14.115C11.021 14.2707 10.7151 14.4822 10.4429 14.6994C10.1715 14.9159 9.93955 15.1334 9.77527 15.2971C9.76262 15.3097 9.75046 15.3221 9.73864 15.334C9.75095 15.3436 9.76358 15.3534 9.77668 15.3635C9.95908 15.5029 10.215 15.6867 10.5097 15.8651C10.8054 16.044 11.1338 16.2137 11.4617 16.3287C11.792 16.4447 12.1027 16.4984 12.3705 16.4663C12.8666 16.4068 13.4381 16.03 13.9169 15.6188C14.0089 15.5399 14.0953 15.4615 14.1748 15.3866L13.7835 15.4092C13.6156 15.4189 13.4716 15.2906 13.4619 15.1227C13.4522 14.9548 13.5805 14.8108 13.7484 14.8011Z"
                fill="#333333" />
            <path
                d="M6.71104 18.2134L6.93714 18.4188L7.14182 18.192L6.9158 17.9879L6.71104 18.2134ZM6.36829 12.1372L6.59009 12.3459C6.37175 12.1405 6.36839 12.1372 6.36829 12.1372C6.36801 12.1375 6.36709 12.1386 6.36664 12.139C6.36574 12.14 6.36447 12.1413 6.3629 12.143C6.35976 12.1464 6.3553 12.1512 6.34963 12.1574C6.33827 12.1698 6.322 12.1877 6.30151 12.2107C6.26055 12.2566 6.20262 12.3231 6.13339 12.4063C5.99521 12.5723 5.81055 12.8071 5.62517 13.0815C5.2654 13.614 4.85965 14.3574 4.85693 15.0538C4.85538 15.4514 4.98425 15.8493 5.15954 16.2096C5.33595 16.5721 5.56856 16.9152 5.79603 17.2086C6.02415 17.5027 6.25167 17.7527 6.42191 17.9289C6.5072 18.0172 6.57853 18.0875 6.62896 18.136C6.65418 18.1603 6.67422 18.1792 6.68817 18.1922C6.69514 18.1987 6.70061 18.2038 6.70445 18.2073C6.70637 18.2091 6.70789 18.2105 6.70899 18.2115L6.71104 18.2134C6.7111 18.2134 6.71104 18.2133 6.9158 17.9879C7.14184 18.192 7.14177 18.1921 7.14182 18.192C7.14213 18.1917 7.14316 18.1905 7.14365 18.19C7.14465 18.1889 7.14608 18.1873 7.14783 18.1853C7.15134 18.1814 7.15634 18.1757 7.16271 18.1685C7.17544 18.154 7.19367 18.133 7.21661 18.106C7.26248 18.0521 7.3272 17.9743 7.40405 17.8769C7.55742 17.6827 7.76076 17.4086 7.95957 17.0902C8.1578 16.7728 8.3556 16.4049 8.49371 16.0233C8.63094 15.6441 8.71649 15.2318 8.66842 14.8335C8.58412 14.1351 8.08164 13.4431 7.65199 12.9575C7.43047 12.7071 7.21433 12.4963 7.05373 12.3482C6.97327 12.274 6.90632 12.2151 6.85909 12.1745C6.83548 12.1542 6.81676 12.1384 6.80371 12.1275C6.79719 12.122 6.79205 12.1178 6.78844 12.1148C6.78664 12.1133 6.78522 12.1121 6.78419 12.1113L6.78252 12.1099C6.78247 12.1099 6.78255 12.11 6.78252 12.1099C6.78235 12.1101 6.77769 12.1154 6.61319 12.3176L6.78252 12.1099L6.56247 11.9309L6.36829 12.1372ZM6.96151 13.4958L6.93774 13.0841C7.02059 13.1687 7.10789 13.2616 7.19585 13.361C7.6181 13.8383 8.00362 14.4083 8.06375 14.9065C8.09613 15.1748 8.04061 15.4855 7.921 15.816C7.80227 16.144 7.62741 16.4722 7.44295 16.7676C7.25908 17.0621 7.06971 17.3175 6.92601 17.4996C6.91494 17.5136 6.90405 17.5271 6.89357 17.5402C6.88269 17.5291 6.87142 17.5177 6.85996 17.5058C6.70045 17.3407 6.48843 17.1076 6.27732 16.8353C6.06555 16.5623 5.85924 16.2556 5.7072 15.9431C5.55404 15.6283 5.46494 15.3258 5.46599 15.0562C5.46794 14.5565 5.77649 13.9454 6.12986 13.4224C6.19768 13.322 6.26558 13.2272 6.33086 13.1395L6.35346 13.5309C6.36315 13.6988 6.50713 13.8271 6.67503 13.8174C6.84293 13.8077 6.9712 13.6637 6.96151 13.4958Z"
                fill="#333333" />
            <path
                d="M6.73649 18.2355L6.50644 18.0345L6.70811 17.8051L6.93686 18.0061L6.73649 18.2355ZM12.8117 17.8767L12.5788 17.6804C12.8081 17.8737 12.8117 17.8766 12.8117 17.8767C12.8114 17.8771 12.8105 17.8781 12.8101 17.8786C12.8092 17.8796 12.8081 17.881 12.8066 17.8828C12.8036 17.8863 12.7993 17.8913 12.7938 17.8976C12.7828 17.9103 12.7669 17.9285 12.7464 17.9515C12.7055 17.9975 12.6462 18.0627 12.5715 18.141C12.4224 18.2974 12.2105 18.5079 11.9592 18.7236C11.4717 19.1422 10.7798 19.6309 10.0884 19.7137C9.69361 19.761 9.28354 19.6788 8.90551 19.5461C8.52504 19.4126 8.15746 19.221 7.83991 19.0288C7.52144 18.836 7.24699 18.6388 7.05233 18.49C6.9548 18.4154 6.87678 18.3526 6.82274 18.3081C6.79572 18.2859 6.77465 18.2681 6.7601 18.2558C6.75283 18.2496 6.74718 18.2447 6.74322 18.2413C6.74125 18.2396 6.73966 18.2383 6.73854 18.2373L6.73649 18.2355C6.73643 18.2354 6.7365 18.2355 6.93686 18.0061C6.70814 17.8051 6.70806 17.8052 6.70811 17.8051C6.70841 17.8048 6.70945 17.8036 6.70994 17.8031C6.71093 17.8019 6.71232 17.8003 6.71408 17.7984C6.71759 17.7944 6.72261 17.7888 6.72908 17.7817C6.74202 17.7673 6.76081 17.7468 6.78495 17.7209C6.83321 17.6692 6.90308 17.5959 6.99093 17.5084C7.16627 17.3337 7.41512 17.1001 7.7085 16.866C8.00102 16.6326 8.34373 16.3937 8.70688 16.2126C9.0677 16.0327 9.46742 15.9002 9.86863 15.9022C10.5721 15.9055 11.3174 16.325 11.8492 16.696C12.1234 16.8872 12.3576 17.0776 12.5232 17.2201C12.6062 17.2915 12.6724 17.3512 12.7182 17.3935C12.7411 17.4146 12.7589 17.4314 12.7713 17.4431C12.7775 17.4489 12.7823 17.4536 12.7856 17.4568C12.7873 17.4584 12.7887 17.4597 12.7896 17.4606L12.7911 17.4621C12.7911 17.4621 12.7912 17.4622 12.7911 17.4621C12.791 17.4623 12.7863 17.4675 12.6044 17.6542L12.7911 17.4621L12.9943 17.6601L12.8117 17.8767ZM11.3939 17.4438L11.8056 17.42C11.712 17.3475 11.6097 17.2714 11.5008 17.1955C10.9781 16.831 10.3675 16.5136 9.86574 16.5112C9.59551 16.5099 9.29322 16.6008 8.97872 16.7577C8.66653 16.9134 8.3606 17.1248 8.0884 17.3421C7.81707 17.5586 7.58508 17.7761 7.42081 17.9398C7.40815 17.9524 7.39599 17.9648 7.38417 17.9767C7.39648 17.9862 7.40911 17.9961 7.42221 18.0061C7.60462 18.1456 7.86054 18.3294 8.15526 18.5078C8.45089 18.6867 8.77931 18.8563 9.10719 18.9714C9.43752 19.0873 9.74822 19.141 10.016 19.1089C10.5121 19.0495 11.0836 18.6727 11.5625 18.2615C11.6544 18.1826 11.7408 18.1042 11.8203 18.0293L11.429 18.0519C11.2611 18.0615 11.1171 17.9333 11.1074 17.7654C11.0977 17.5975 11.226 17.4535 11.3939 17.4438Z"
                fill="#333333" />
            <path
                d="M4.35657 20.856L4.58267 21.0614L4.78735 20.8347L4.56133 20.6306L4.35657 20.856ZM4.01382 14.7799L4.23562 14.9886C4.01728 14.7831 4.01392 14.7799 4.01382 14.7799C4.01354 14.7802 4.01262 14.7812 4.01217 14.7817C4.01127 14.7827 4.01 14.784 4.00843 14.7857C4.00529 14.7891 4.00083 14.7939 3.99516 14.8C3.9838 14.8124 3.96752 14.8303 3.94704 14.8533C3.90607 14.8993 3.84815 14.9657 3.77892 15.0489C3.64074 15.215 3.45608 15.4497 3.2707 15.7241C2.91093 16.2566 2.50518 17.0001 2.50246 17.6965C2.5009 18.0941 2.62978 18.492 2.80507 18.8522C2.98148 19.2148 3.21409 19.5579 3.44155 19.8512C3.66967 20.1454 3.8972 20.3953 4.06744 20.5716C4.15273 20.6599 4.22406 20.7301 4.27449 20.7787C4.29971 20.803 4.31974 20.8219 4.3337 20.8349C4.34067 20.8414 4.34614 20.8465 4.34998 20.85C4.3519 20.8518 4.35342 20.8532 4.35452 20.8542L4.35657 20.856C4.35663 20.8561 4.35657 20.856 4.56133 20.6306C4.78736 20.8347 4.7873 20.8347 4.78735 20.8347C4.78766 20.8343 4.78869 20.8332 4.78918 20.8326C4.79018 20.8315 4.7916 20.83 4.79336 20.828C4.79687 20.824 4.80187 20.8184 4.80824 20.8112C4.82097 20.7967 4.8392 20.7756 4.86214 20.7487C4.90801 20.6948 4.97273 20.6169 5.04957 20.5196C5.20295 20.3253 5.40629 20.0512 5.6051 19.7329C5.80333 19.4154 6.00113 19.0475 6.13924 18.6659C6.27647 18.2868 6.36202 17.8745 6.31395 17.4762C6.22965 16.7778 5.72717 16.0857 5.29752 15.6001C5.076 15.3497 4.85986 15.139 4.69926 14.9909C4.6188 14.9167 4.55185 14.8578 4.50462 14.8171C4.48101 14.7968 4.46229 14.781 4.44924 14.7701C4.44271 14.7647 4.43758 14.7604 4.43397 14.7575C4.43217 14.756 4.43075 14.7548 4.42972 14.7539L4.42805 14.7526C4.428 14.7526 4.42808 14.7526 4.42805 14.7526C4.42788 14.7527 4.42322 14.758 4.25872 14.9602L4.42805 14.7526L4.208 14.5736L4.01382 14.7799ZM4.60704 16.1385L4.58327 15.7268C4.66611 15.8114 4.75342 15.9043 4.84138 16.0037C5.26363 16.481 5.64915 17.051 5.70928 17.5491C5.74166 17.8174 5.68614 18.1282 5.56653 18.4586C5.4478 18.7867 5.27294 19.1149 5.08848 19.4103C4.90461 19.7047 4.71524 19.9602 4.57154 20.1422C4.56047 20.1562 4.54958 20.1697 4.5391 20.1829C4.52822 20.1717 4.51695 20.1603 4.50549 20.1485C4.34598 19.9833 4.13396 19.7502 3.92284 19.478C3.71108 19.2049 3.50476 18.8982 3.35273 18.5858C3.19957 18.271 3.11046 17.9685 3.11152 17.6988C3.11347 17.1991 3.42202 16.5881 3.77539 16.0651C3.84321 15.9647 3.91111 15.8698 3.97639 15.7822L3.99899 16.1736C4.00868 16.3415 4.15266 16.4697 4.32056 16.46C4.48846 16.4503 4.61673 16.3064 4.60704 16.1385Z"
                fill="#333333" />
            <path
                d="M4.38201 20.8781L4.15196 20.6772L4.35363 20.4478L4.58238 20.6488L4.38201 20.8781ZM10.4572 20.5194L10.2244 20.3231C10.4536 20.5163 10.4572 20.5193 10.4572 20.5194C10.457 20.5197 10.456 20.5207 10.4556 20.5212C10.4548 20.5223 10.4536 20.5237 10.4521 20.5254C10.4491 20.5289 10.4448 20.5339 10.4394 20.5403C10.4284 20.553 10.4124 20.5712 10.3919 20.5942C10.351 20.6402 10.2917 20.7054 10.217 20.7837C10.0679 20.9401 9.856 21.1505 9.60477 21.3662C9.11722 21.7849 8.42536 22.2735 7.73396 22.3563C7.33913 22.4036 6.92907 22.3214 6.55104 22.1888C6.17057 22.0552 5.80299 21.8637 5.48544 21.6715C5.16697 21.4787 4.89251 21.2814 4.69785 21.1326C4.60032 21.0581 4.5223 20.9953 4.46827 20.9508C4.44124 20.9285 4.42018 20.9108 4.40563 20.8984C4.39836 20.8923 4.3927 20.8874 4.38875 20.884C4.38677 20.8823 4.38519 20.8809 4.38407 20.88L4.38201 20.8781C4.38195 20.8781 4.38203 20.8781 4.58238 20.6488C4.35366 20.4478 4.35358 20.4478 4.35363 20.4478C4.35394 20.4474 4.35497 20.4463 4.35546 20.4457C4.35646 20.4446 4.35784 20.443 4.3596 20.441C4.36311 20.4371 4.36813 20.4315 4.3746 20.4243C4.38755 20.41 4.40634 20.3895 4.43047 20.3636C4.47874 20.3118 4.54861 20.2386 4.63646 20.151C4.81179 19.9763 5.06064 19.7428 5.35402 19.5087C5.64655 19.2752 5.98925 19.0364 6.3524 18.8553C6.71323 18.6753 7.11295 18.5429 7.51415 18.5448C8.21763 18.5482 8.96288 18.9677 9.49471 19.3386C9.76892 19.5299 10.0032 19.7203 10.1688 19.8628C10.2517 19.9342 10.3179 19.9939 10.3637 20.0361C10.3866 20.0573 10.4045 20.074 10.4168 20.0857C10.423 20.0916 10.4278 20.0962 10.4311 20.0995C10.4328 20.1011 10.4342 20.1023 10.4351 20.1033L10.4367 20.1048C10.4366 20.1048 10.4367 20.1048 10.4367 20.1048C10.4366 20.105 10.4318 20.1102 10.2499 20.2969L10.4367 20.1048L10.6398 20.3028L10.4572 20.5194ZM9.03941 20.0865L9.45111 20.0627C9.35754 19.9901 9.25518 19.9141 9.1463 19.8382C8.62362 19.4736 8.01303 19.1563 7.51127 19.1539C7.24103 19.1526 6.93874 19.2435 6.62424 19.4003C6.31206 19.556 6.00613 19.7675 5.73393 19.9847C5.46259 20.2013 5.23061 20.4188 5.06633 20.5825C5.05367 20.5951 5.04152 20.6074 5.0297 20.6194C5.04201 20.6289 5.05464 20.6388 5.06774 20.6488C5.25014 20.7882 5.50607 20.972 5.80079 21.1504C6.09641 21.3293 6.42483 21.499 6.75272 21.6141C7.08305 21.73 7.39375 21.7837 7.66151 21.7516C8.15765 21.6922 8.72912 21.3154 9.208 20.9041C9.29992 20.8252 9.38635 20.7468 9.46587 20.6719L9.07452 20.6945C8.90661 20.7042 8.76263 20.5759 8.75294 20.408C8.74326 20.2401 8.87151 20.0962 9.03941 20.0865Z"
                fill="#333333" />
        </g>
        <path
            d="M20.6506 12.0228C20.6506 7.2328 16.7679 3.34941 11.9779 3.34927C7.18779 3.34927 3.30435 7.23271 3.30435 12.0228C3.30449 16.8129 7.18787 20.6956 11.9779 20.6956C16.7678 20.6954 20.6505 16.8128 20.6506 12.0228ZM21.955 12.0228C21.9548 17.5331 17.4882 21.9998 11.9779 21.9999C6.4675 21.9999 2.00014 17.5332 2 12.0228C2 6.51234 6.46741 2.04492 11.9779 2.04492C17.4883 2.04507 21.955 6.51242 21.955 12.0228Z"
            fill="#333333" />
    </g>
    <defs>
        <clipPath id="clip0_11174_22590">
            <rect width="20" height="20" fill="white" transform="translate(2 2)" />
        </clipPath>
        <clipPath id="clip1_11174_22590">
            <path
                d="M13.5303 2.86963L21.1931 9.69597L13.0759 18.8078C11.1908 20.9238 7.94732 21.1111 5.8313 19.226C3.71527 17.341 3.52802 14.0975 5.41307 11.9815L13.5303 2.86963Z"
                fill="white" />
        </clipPath>
    </defs>
</svg>
