<svg width="24" height="24" viewBox="0 0 24 24" fill="none" xmlns="http://www.w3.org/2000/svg">
    <g clip-path="url(#clip0_11174_22624)">
        <path
            d="M10.2696 17.0694L12.0115 15.807L13.7302 17.0526M9.68347 19.9791L12.0155 18.289L14.3164 19.9566M11.9999 12.0001V20.5944M11.9999 12.0001L19.4429 16.2973M11.9999 12.0001L19.4429 7.70293M11.9999 12.0001V3.40576M11.9999 12.0001L4.55698 7.70293M11.9999 12.0001L4.55698 16.2973M15.5249 16.0332L15.3026 13.8935L17.2407 13.0279M17.7517 17.9957L17.454 15.1311L20.0487 13.9723M17.2552 10.9639L15.2909 10.0866L15.5104 7.9754M20.0682 10.0167L17.4385 8.84219L17.7322 6.01576M13.7302 6.93078L11.9883 8.19325L10.2696 6.9476M14.3164 4.02106L11.9844 5.71119L9.68347 4.04359M8.47489 7.96697L8.69727 10.1067L6.75918 10.9723M6.24808 6.00448L6.5458 8.86911L3.95115 10.0279M6.74461 13.0363L8.70889 13.9136L8.48946 16.0248M3.93164 13.9835L6.56134 15.158L6.26759 17.9845"
            stroke="#333333" stroke-miterlimit="10" stroke-linecap="round" />
    </g>
    <defs>
        <clipPath id="clip0_11174_22624">
            <rect width="20" height="20" fill="white" transform="translate(2 2)" />
        </clipPath>
    </defs>
</svg>
