<svg width="24" height="24" viewBox="0 0 24 24" fill="none" xmlns="http://www.w3.org/2000/svg">
    <g clip-path="url(#clip0_12215_18918)">
        <path
            d="M19.4219 3.5625H17.625V2.625C17.625 2.27984 17.3452 2 17 2C16.6548 2 16.375 2.27984 16.375 2.625V3.5625H7.625V2.625C7.625 2.27984 7.3452 2 7 2C6.6548 2 6.375 2.27984 6.375 2.625V3.5625H4.57812C3.15652 3.5625 2 4.71902 2 6.14062V19.4219C2 20.8435 3.15652 22 4.57812 22H19.4219C20.8435 22 22 20.8435 22 19.4219V6.14062C22 4.71902 20.8435 3.5625 19.4219 3.5625ZM20.75 19.4219C20.75 20.1554 20.1554 20.75 19.4219 20.75H4.57812C3.84461 20.75 3.25 20.1554 3.25 19.4219V9.07031C3.25 9.01851 3.27058 8.96883 3.30721 8.93221C3.34383 8.89558 3.39351 8.875 3.44531 8.875H20.5547C20.6065 8.875 20.6562 8.89558 20.6928 8.93221C20.7294 8.96883 20.75 9.01851 20.75 9.07031V19.4219Z"
            fill="#333333" />
    </g>
    <defs>
        <clipPath id="clip0_12215_18918">
            <rect width="20" height="20" fill="white" transform="translate(2 2)" />
        </clipPath>
    </defs>
</svg>
