<svg width="24" height="24" viewBox="0 0 24 24" fill="none" xmlns="http://www.w3.org/2000/svg">
    <path
        d="M21.3529 10.1818C21.3529 9.19015 20.5588 8.37879 19.5882 8.37879H17.8235C17.3382 8.37879 16.9412 8.78447 16.9412 9.2803C16.9412 9.77614 17.3382 10.1818 17.8235 10.1818H19.5882V12.5708L16.5176 16.4924H13.4118V12.8864C13.4118 12.3905 13.0147 11.9848 12.5294 11.9848H9.88235C7.93235 11.9848 6.35294 13.5986 6.35294 15.5909V18.2955H8.11765C8.11765 19.792 9.3 21 10.7647 21C12.2294 21 13.4118 19.792 13.4118 18.2955H17.3647L21.3529 13.2019V10.1818ZM10.7647 19.197C10.2794 19.197 9.88235 18.7913 9.88235 18.2955H11.6471C11.6471 18.7913 11.25 19.197 10.7647 19.197Z"
        fill="#333333" />
    <path
        d="M12.5294 9.2803H8.82353C8.33824 9.2803 7.94118 9.68598 7.94118 10.1818C7.94118 10.6777 8.33824 11.0833 8.82353 11.0833H12.5294C13.0147 11.0833 13.4118 10.6777 13.4118 10.1818C13.4118 9.68598 13.0147 9.2803 12.5294 9.2803Z"
        fill="#333333" />
    <path
        d="M21.3529 15.5909C19.8882 15.5909 18.7059 16.7989 18.7059 18.2955C18.7059 19.792 19.8882 21 21.3529 21C22.8176 21 24 19.792 24 18.2955C24 16.7989 22.8176 15.5909 21.3529 15.5909ZM21.3529 19.197C20.8676 19.197 20.4706 18.7913 20.4706 18.2955C20.4706 17.7996 20.8676 17.3939 21.3529 17.3939C21.8382 17.3939 22.2353 17.7996 22.2353 18.2955C22.2353 18.7913 21.8382 19.197 21.3529 19.197Z"
        fill="#333333" />
    <path
        d="M9.52941 11.0833H6.35294C5.76817 11.0833 5.29412 10.3826 5.29412 9.78514V6.48817C5.29412 5.8907 5.76817 5.40635 6.35294 5.40635H9.52941C10.1142 5.40635 10.5882 5.8907 10.5882 6.48817V9.78514C10.5882 10.3826 10.1142 11.0833 9.52941 11.0833Z"
        fill="#333333" />
    <path
        d="M10.0588 5.08182H5.82353C5.53114 5.08182 5.29412 4.83964 5.29412 4.54091C5.29412 4.24217 5.53114 4 5.82353 4H10.0588C10.3512 4 10.5882 4.24217 10.5882 4.54091C10.5882 4.83964 10.3512 5.08182 10.0588 5.08182Z"
        fill="#333333" />
    <path
        d="M4.76471 13.7879H1.58824C1.29585 13.7879 1.05882 13.5457 1.05882 13.247C1.05882 12.9482 1.29585 12.7061 1.58824 12.7061H4.76471C5.05709 12.7061 5.29412 12.9482 5.29412 13.247C5.29412 13.5457 5.05709 13.7879 4.76471 13.7879Z"
        fill="#333333" />
    <path
        d="M3.70588 15.9515H0.529412C0.237026 15.9515 0 15.7093 0 15.4106C0 15.1119 0.237026 14.8697 0.529412 14.8697H3.70588C3.99827 14.8697 4.23529 15.1119 4.23529 15.4106C4.23529 15.7093 3.99827 15.9515 3.70588 15.9515Z"
        fill="#333333" />
    <path
        d="M4.76471 18.1152H1.58824C1.29585 18.1152 1.05882 17.873 1.05882 17.5742C1.05882 17.2755 1.29585 17.0333 1.58824 17.0333H4.76471C5.05709 17.0333 5.29412 17.2755 5.29412 17.5742C5.29412 17.873 5.05709 18.1152 4.76471 18.1152Z"
        fill="#333333" />
</svg>
