<svg width="24" height="24" viewBox="0 0 24 24" fill="none" xmlns="http://www.w3.org/2000/svg">
    <path
        d="M18 5C19.1 5 20 5.9 20 7V10.3496L15.4805 16H11C11 17.66 9.66 19 8 19C6.34 19 5 17.66 5 16H3V13C3 12.2603 3.20106 11.5679 3.55078 10.9736C3.6983 10.9901 3.84808 11 4 11C5.48039 11 6.77219 10.1954 7.46387 9H10C10.55 9 11 9.45 11 10V14H14.5195L18 9.65039V7H16C15.45 7 15 6.55 15 6C15 5.45 15.45 5 16 5H18ZM20 13C21.66 13 23 14.34 23 16C23 17.66 21.66 19 20 19C18.34 19 17 17.66 17 16C17 14.34 18.34 13 20 13ZM7 16C7 16.55 7.45 17 8 17C8.55 17 9 16.55 9 16H7ZM20 15C19.45 15 19 15.45 19 16C19 16.55 19.45 17 20 17C20.55 17 21 16.55 21 16C21 15.45 20.55 15 20 15ZM10 6C10.55 6 11 6.45 11 7C11 7.55 10.55 8 10 8H7.87402C7.95629 7.68038 8 7.3453 8 7C8 6.6547 7.95629 6.31962 7.87402 6H10Z"
        fill="#333333" />
    <path
        d="M4 4.5C5.38071 4.5 6.5 5.61929 6.5 7C6.5 8.38071 5.38071 9.5 4 9.5C2.61929 9.5 1.5 8.38071 1.5 7C1.5 5.61929 2.61929 4.5 4 4.5ZM5.75977 5.46875C5.46878 5.09771 4.92354 5.07325 4.60059 5.39844L4.53906 5.46875L3.5 6.79492L3.46094 6.74512L3.39941 6.67578C3.07652 6.35021 2.53134 6.37398 2.24023 6.74512H2.23926C2.01953 7.02581 2.01969 7.4204 2.23926 7.70117L2.81055 8.43066C3.16082 8.87782 3.83712 8.87768 4.1875 8.43066L4.18848 8.43164L5.76074 6.4248C5.98039 6.14407 5.98039 5.74948 5.76074 5.46875H5.75977Z"
        fill="#333333" stroke="#333333" />
</svg>
