<svg width="24" height="24" viewBox="0 0 24 24" fill="none" xmlns="http://www.w3.org/2000/svg">
    <g clip-path="url(#clip0_11174_22641)">
        <path
            d="M20.6506 12.0228C20.6506 7.2328 16.7679 3.34941 11.9779 3.34927C7.18779 3.34927 3.30435 7.23271 3.30435 12.0228C3.30449 16.8129 7.18787 20.6956 11.9779 20.6956C16.7678 20.6954 20.6505 16.8128 20.6506 12.0228ZM21.955 12.0228C21.9548 17.5331 17.4882 21.9998 11.9779 21.9999C6.4675 21.9999 2.00014 17.5332 2 12.0228C2 6.51234 6.46741 2.04492 11.9779 2.04492C17.4883 2.04507 21.955 6.51242 21.955 12.0228Z"
            fill="#333333" />
        <path
            d="M8.59457 6.46477C8.62569 6.40003 8.63294 6.32819 8.61529 6.25955C8.59765 6.19092 8.556 6.12901 8.49634 6.08271C8.43667 6.03641 8.36204 6.00809 8.28315 6.00182C8.20426 5.99554 8.12517 6.01163 8.0572 6.04777C5.97745 7.15677 5.20982 10.0078 6.4147 12.1491C7.53557 14.1414 8.21207 15.3438 7.1557 17.5354C7.12458 17.6002 7.11733 17.672 7.13497 17.7407C7.15262 17.8093 7.19426 17.8712 7.25393 17.9175C7.3136 17.9638 7.38822 17.9921 7.46711 17.9984C7.546 18.0047 7.6251 17.9886 7.69307 17.9524C9.77207 16.8434 10.5397 13.9924 9.3352 11.8501C8.2147 9.85811 7.5382 8.65577 8.59457 6.46477ZM12.7196 6.46477C12.7507 6.40003 12.7579 6.32819 12.7403 6.25955C12.7226 6.19092 12.681 6.12901 12.6213 6.08271C12.5617 6.03641 12.487 6.00809 12.4082 6.00182C12.3293 5.99554 12.2502 6.01163 12.1822 6.04777C10.1028 7.15677 9.3352 10.0081 10.5397 12.1494C11.6606 14.1418 12.3371 15.3441 11.2807 17.5358C11.2496 17.6005 11.2423 17.6724 11.26 17.741C11.2776 17.8096 11.3193 17.8715 11.3789 17.9178C11.4386 17.9641 11.5132 17.9924 11.5921 17.9987C11.671 18.005 11.7501 17.9889 11.8181 17.9528C13.8971 16.8438 14.6647 13.9928 13.4602 11.8504C12.3397 9.85811 11.6632 8.65577 12.7196 6.46477ZM17.5852 11.8504C16.4647 9.85811 15.7882 8.65577 16.8446 6.46477C16.8757 6.40003 16.8829 6.32819 16.8653 6.25955C16.8476 6.19092 16.806 6.12901 16.7463 6.08271C16.6867 6.03641 16.612 6.00809 16.5332 6.00182C16.4543 5.99554 16.3752 6.01163 16.3072 6.04777C14.2278 7.15677 13.4602 10.0081 14.6647 12.1494C15.7856 14.1418 16.4621 15.3441 15.4057 17.5358C15.3746 17.6005 15.3673 17.6724 15.385 17.741C15.4026 17.8096 15.4443 17.8715 15.5039 17.9178C15.5636 17.9641 15.6382 17.9924 15.7171 17.9987C15.796 18.005 15.8751 17.9889 15.9431 17.9528C18.0221 16.8438 18.7897 13.9924 17.5852 11.8504Z"
            fill="#333333" />
    </g>
    <defs>
        <clipPath id="clip0_11174_22641">
            <rect width="20" height="20" fill="white" transform="translate(2 2)" />
        </clipPath>
    </defs>
</svg>
