<svg width="24" height="24" viewBox="0 0 24 24" fill="none" xmlns="http://www.w3.org/2000/svg">
    <path
        d="M4.61219 18.9907C4.695 18.9907 4.77469 19.0235 4.83312 19.0822L6.36844 20.6175L7.90375 19.0822C7.96235 19.0237 8.04182 18.9907 8.12469 18.9907C8.20755 18.9907 8.28702 19.0237 8.34562 19.0822L9.88094 20.6175L11.4163 19.0822C11.4749 19.0237 11.5543 18.9907 11.6372 18.9907C11.7201 18.9907 11.7995 19.0237 11.8581 19.0822L13.3903 20.6172L14.9253 19.0822C14.9851 19.0258 15.0641 18.9944 15.1462 18.9944C15.2284 18.9944 15.3074 19.0258 15.3672 19.0822L16.59 20.305V18.3741C16.5847 18.3747 16.5784 18.3741 16.5731 18.3747C16.4312 18.3869 16.2844 18.3935 16.1306 18.3935C15.2274 18.3963 14.3384 18.1677 13.5486 17.7295C12.7587 17.2912 12.0944 16.658 11.6188 15.89C11.0882 15.0458 10.8075 14.0687 10.8091 13.0716C10.8091 11.6188 11.3831 10.2616 12.4259 9.25036C13.2689 8.42653 14.3641 7.90964 15.5359 7.78255C15.7325 7.76067 15.9306 7.74661 16.1309 7.74661C16.2731 7.74661 16.4184 7.7538 16.5653 7.76567C16.5738 7.7663 16.5819 7.76599 16.5906 7.76692V3.25317H3.17188V20.3041L4.39125 19.0825C4.42023 19.0535 4.45467 19.0304 4.49258 19.0147C4.5305 18.999 4.57115 18.9906 4.61219 18.9907ZM5.02219 5.78724H14.74C14.8229 5.78724 14.9024 5.82016 14.961 5.87877C15.0196 5.93737 15.0525 6.01686 15.0525 6.09974C15.0525 6.18262 15.0196 6.2621 14.961 6.32071C14.9024 6.37931 14.8229 6.41224 14.74 6.41224H5.02219C4.93931 6.41224 4.85982 6.37931 4.80122 6.32071C4.74261 6.2621 4.70969 6.18262 4.70969 6.09974C4.70969 6.01686 4.74261 5.93737 4.80122 5.87877C4.85982 5.82016 4.93931 5.78724 5.02219 5.78724ZM5.02219 8.33536H11.1213C11.2041 8.33536 11.2836 8.36829 11.3422 8.42689C11.4008 8.4855 11.4338 8.56498 11.4338 8.64786C11.4338 8.73074 11.4008 8.81023 11.3422 8.86883C11.2836 8.92744 11.2041 8.96036 11.1213 8.96036H5.02219C4.93931 8.96036 4.85982 8.92744 4.80122 8.86883C4.74261 8.81023 4.70969 8.73074 4.70969 8.64786C4.70969 8.56498 4.74261 8.4855 4.80122 8.42689C4.85982 8.36829 4.93931 8.33536 5.02219 8.33536ZM5.02219 10.8835H9.55844C9.64132 10.8835 9.7208 10.9164 9.77941 10.975C9.83801 11.0336 9.87094 11.1131 9.87094 11.196C9.87094 11.2789 9.83801 11.3584 9.77941 11.417C9.7208 11.4756 9.64132 11.5085 9.55844 11.5085H5.02219C4.93931 11.5085 4.85982 11.4756 4.80122 11.417C4.74261 11.3584 4.70969 11.2789 4.70969 11.196C4.70969 11.1131 4.74261 11.0336 4.80122 10.975C4.85982 10.9164 4.93931 10.8835 5.02219 10.8835ZM5.02219 13.4316H9.39719C9.48007 13.4316 9.55955 13.4645 9.61816 13.5231C9.67676 13.5817 9.70969 13.6612 9.70969 13.7441C9.70969 13.827 9.67676 13.9065 9.61816 13.9651C9.55955 14.0237 9.48007 14.0566 9.39719 14.0566H5.02219C4.93931 14.0566 4.85982 14.0237 4.80122 13.9651C4.74261 13.9065 4.70969 13.827 4.70969 13.7441C4.70969 13.6612 4.74261 13.5817 4.80122 13.5231C4.85982 13.4645 4.93931 13.4316 5.02219 13.4316Z"
        fill="black" />
    <path
        d="M18.6361 9.09575C17.8865 8.62232 17.0178 8.37145 16.1311 8.37232C14.8999 8.37232 13.7389 8.84357 12.8621 9.69919C12.0564 10.4808 11.5677 11.4954 11.458 12.5961C11.4424 12.7533 11.4346 12.9123 11.4346 13.0726C11.4346 13.9576 11.6818 14.8173 12.1489 15.5592C12.5686 16.2372 13.155 16.7964 13.8522 17.1833C14.5494 17.5702 15.3341 17.7721 16.1314 17.7695C16.3896 17.7695 16.6246 17.7504 16.8502 17.7114C19.1208 17.3626 20.8283 15.3686 20.8283 13.0726C20.8283 11.4489 20.0089 9.96232 18.6364 9.09607L18.6361 9.09575ZM17.8577 14.7976C17.8287 14.8267 17.7943 14.8499 17.7564 14.8656C17.7185 14.8814 17.6778 14.8895 17.6368 14.8895C17.5957 14.8895 17.555 14.8814 17.5171 14.8656C17.4792 14.8499 17.4448 14.8267 17.4158 14.7976L15.9093 13.2911C15.8506 13.2325 15.8177 13.153 15.8177 13.0701V10.012C15.8177 9.92912 15.8506 9.84964 15.9092 9.79103C15.9678 9.73243 16.0473 9.6995 16.1302 9.6995C16.2131 9.6995 16.2926 9.73243 16.3512 9.79103C16.4098 9.84964 16.4427 9.92912 16.4427 10.012V12.9408L17.8577 14.3558C17.8867 14.3847 17.9098 14.4192 17.9255 14.4571C17.9412 14.495 17.9493 14.5356 17.9493 14.5767C17.9493 14.6177 17.9412 14.6584 17.9255 14.6963C17.9098 14.7342 17.8867 14.7686 17.8577 14.7976Z"
        fill="black" />
</svg>
