<svg width="24" height="24" viewBox="0 0 24 24" fill="none" xmlns="http://www.w3.org/2000/svg">
    <path
        d="M5.00545 17.7683C3.77859 18.2141 3.04346 18.7792 3.04346 19.3947C3.04346 20.8336 7.05352 21.9999 12 21.9999C16.9464 21.9999 20.9565 20.8336 20.9565 19.3947C20.9565 18.7792 20.2214 18.2141 18.9945 17.7683C18.5776 18.14 18.1287 18.4777 17.6535 18.7798C18.4195 18.9807 18.9759 19.201 19.3054 19.3947C18.416 19.9172 15.8805 20.6358 12 20.6358C8.11959 20.6358 5.58399 19.9169 4.69468 19.3947C5.02416 19.2014 5.58083 18.9807 6.34656 18.7798C5.87125 18.4777 5.42238 18.1401 5.00545 17.7683Z"
        fill="#333333" />
    <path
        d="M2 10.3667C2 13.2629 3.30732 15.8612 5.37855 17.6401C5.82214 18.0214 6.29983 18.3662 6.80841 18.667C8.32188 19.5612 10.0988 20.0765 12 20.0765C13.9012 20.0765 15.6781 19.5612 17.1916 18.667C17.7002 18.3666 18.1779 18.0214 18.6215 17.6401C20.6927 15.8612 22 13.2629 22 10.3667H2ZM7.07851 2.16535C6.13965 2.84743 5.77858 3.76178 6.23553 4.8463C6.48947 5.44857 7.82138 6.89526 7.252 7.49959C6.48913 8.30888 7.72791 9.51821 8.49398 8.70553C9.2537 7.8993 9.31765 6.94338 8.84839 5.97071C8.61973 5.49737 7.36724 4.07212 7.96505 3.63801C8.86032 2.98761 7.98644 1.5061 7.07851 2.16535ZM11.2933 2.16535C10.3545 2.84743 9.99341 3.76178 10.4504 4.8463C10.7043 5.44857 12.0362 6.89526 11.4668 7.49959C10.704 8.30888 11.9427 9.51821 12.7088 8.70553C13.4685 7.8993 13.5325 6.94338 13.0632 5.97071C12.8346 5.49737 11.5821 4.07212 12.1799 3.63801C13.0752 2.98761 12.2013 1.5061 11.2933 2.16535ZM15.5082 2.16535C14.5693 2.84743 14.2082 3.76178 14.6652 4.8463C14.9191 5.44857 16.251 6.89526 15.6817 7.49959C14.9188 8.30888 16.1576 9.51821 16.9236 8.70553C17.6834 7.8993 17.7473 6.94338 17.2781 5.97071C17.0494 5.49737 15.7969 4.07212 16.3947 3.63801C17.29 2.98761 16.4161 1.5061 15.5082 2.16535Z"
        fill="#333333" />
</svg>
