<svg width="24" height="24" viewBox="0 0 24 24" fill="none" xmlns="http://www.w3.org/2000/svg">
    <g clip-path="url(#clip0_12590_20820)">
        <path
            d="M20.9849 19.0047L13.1363 11.1616L3.96814 2H3.25152L3.10592 2.37056C2.71918 3.35038 2.55538 4.3552 2.62818 5.27136C2.71235 6.31711 3.11047 7.22191 3.77704 7.888L10.9341 15.04L11.8782 14.0965L18.4961 21.4918C19.1536 22.1488 20.2865 22.1897 20.9849 21.4918C21.672 20.8052 21.672 19.6913 20.9849 19.0047Z"
            fill="#333333" />
        <path
            d="M7.61964 13.3909L2.01518 18.9954C1.32827 19.6823 1.32827 20.7968 2.01518 21.4837C2.66797 22.1365 3.79387 22.1934 4.50353 21.4837L10.108 15.8793L7.61964 13.3909Z"
            fill="#333333" />
        <path
            d="M20.6573 5.3321L17.4775 8.5119L16.6473 7.68169L19.8271 4.50189L18.9969 3.67169L15.8171 6.85149L14.9869 6.02128L18.1667 2.84148L17.3387 2.01355L13.1923 6.16003C12.685 6.66725 12.3825 7.34051 12.3393 8.05699C12.3279 8.23896 12.287 8.41637 12.2188 8.58696L14.9118 11.28C15.0824 11.2118 15.2598 11.1708 15.4418 11.1595C16.1582 11.1162 16.8315 10.8137 17.3387 10.3065L21.4852 6.16003L20.655 5.32982L20.6573 5.3321Z"
            fill="#333333" />
    </g>
    <defs>
        <clipPath id="clip0_12590_20820">
            <rect width="20" height="20" fill="white" transform="translate(1.5 2)" />
        </clipPath>
    </defs>
</svg>
