<svg width="24" height="24" viewBox="0 0 24 24" fill="none" xmlns="http://www.w3.org/2000/svg">
    <g clip-path="url(#clip0_11181_1813)">
        <g clip-path="url(#clip1_11181_1813)">
            <path
                d="M10.6704 5.35742C10.5894 5.35742 10.5116 5.39148 10.4543 5.4521C10.397 5.51272 10.3647 5.59493 10.3647 5.68066C10.3647 5.76639 10.397 5.84861 10.4543 5.90923C10.5116 5.96985 10.5894 6.00391 10.6704 6.00391H13.3283C13.4094 6.00391 13.4871 5.96985 13.5444 5.90923C13.6018 5.84861 13.634 5.76639 13.634 5.68066C13.634 5.59493 13.6018 5.51272 13.5444 5.4521C13.4871 5.39148 13.4094 5.35742 13.3283 5.35742H10.6704Z"
                fill="#333333" />
            <path
                d="M8.17205 5.55235C8.19424 5.60009 8.2054 5.65271 8.20461 5.70589V6.97591C8.40575 6.92551 8.61711 6.94888 8.80404 7.04217L8.81597 7.04815V5.70589C8.81687 5.5482 8.78174 5.39262 8.71356 5.25238L8.54651 4.9154C8.52438 4.86765 8.51327 4.81503 8.51411 4.76186V4.24952L8.80511 4.52298C8.86105 4.57552 8.93327 4.60453 9.00808 4.60453C9.0829 4.60453 9.15511 4.57552 9.21105 4.52298L9.75516 4.01226L10.2997 4.52298C10.3557 4.57547 10.4278 4.60446 10.5026 4.60446C10.5774 4.60446 10.6496 4.57547 10.7055 4.52298L11.2501 4.0121L11.7948 4.52315C11.8507 4.57563 11.9229 4.60462 11.9977 4.60462C12.0725 4.60462 12.1447 4.57563 12.2006 4.52315L12.7447 4.0121L13.2891 4.52298C13.345 4.57546 13.4172 4.60445 13.492 4.60448C13.5667 4.60451 13.6389 4.57558 13.6949 4.52315L14.2402 4.01194L14.786 4.52315C14.8423 4.57465 14.9143 4.60299 14.9888 4.60299C15.0632 4.60299 15.1352 4.57465 15.1915 4.52315L15.4843 4.24871V4.76186C15.4851 4.81504 15.474 4.86766 15.4518 4.9154L15.2849 5.25238C15.2167 5.39262 15.1816 5.5482 15.1825 5.70589V7.04799L15.1941 7.04217C15.3811 6.9488 15.5926 6.92543 15.7938 6.97591V5.70589C15.7931 5.65271 15.8042 5.60009 15.8264 5.55235L15.9933 5.21537C16.0615 5.07513 16.0966 4.91955 16.0957 4.76186V3.57993C16.0902 3.51392 16.0676 3.4508 16.0304 3.39749C15.9932 3.34418 15.9429 3.30275 15.8848 3.27776C15.8268 3.25277 15.7634 3.24518 15.7015 3.25583C15.6397 3.26649 15.5818 3.29497 15.5343 3.33814L14.9887 3.84951L14.4429 3.33814C14.387 3.28574 14.3149 3.25681 14.2402 3.25681C14.1654 3.25681 14.0933 3.28574 14.0374 3.33814L13.4921 3.84935L12.948 3.3383C12.892 3.28573 12.8198 3.25669 12.7449 3.25669C12.6701 3.25669 12.5978 3.28573 12.5419 3.3383L11.9978 3.84919L11.4531 3.3383C11.3971 3.28586 11.325 3.2569 11.2502 3.2569C11.1755 3.2569 11.1033 3.28586 11.0474 3.3383L10.5025 3.84935L9.95798 3.3383C9.90203 3.28585 9.82986 3.25688 9.75509 3.25688C9.68032 3.25688 9.60814 3.28585 9.55219 3.3383L9.00808 3.84902L8.46428 3.3383C8.41689 3.29466 8.35898 3.26578 8.297 3.25487C8.23501 3.24396 8.17137 3.25146 8.11317 3.27652C8.05497 3.30158 8.00449 3.34322 7.96734 3.39682C7.93019 3.45041 7.90783 3.51385 7.90275 3.58009V4.76202C7.90185 4.91971 7.93698 5.07529 8.00515 5.21553L8.17205 5.55235ZM8.37426 10.1495C8.35173 10.0673 8.29932 9.99779 8.22849 9.9563C8.15766 9.91481 8.07417 9.90466 7.99629 9.92808L5.40199 10.7157C5.36339 10.7274 5.32735 10.747 5.29593 10.7734C5.26451 10.7999 5.23833 10.8326 5.21888 10.8698C5.19944 10.9069 5.18711 10.9478 5.1826 10.99C5.17809 11.0321 5.18149 11.0749 5.19261 11.1157C5.21688 11.1967 5.26961 11.2649 5.33995 11.306C5.41029 11.3472 5.49288 11.3583 5.57073 11.3371L8.16487 10.5492C8.20345 10.5375 8.23948 10.5179 8.27089 10.4914C8.3023 10.465 8.32847 10.4323 8.34792 10.3951C8.36736 10.358 8.3797 10.3172 8.38422 10.275C8.38874 10.2328 8.38535 10.1903 8.37426 10.1495ZM21.5599 9.39554C21.5176 9.37612 21.4719 9.36631 21.4258 9.36673C21.3797 9.36714 21.3342 9.37779 21.2922 9.39796L20.6213 9.73672L20.2239 9.07391C20.1839 9.00715 20.1221 8.9582 20.0503 8.93631C19.9785 8.91443 19.9016 8.92112 19.8341 8.95512L19.1626 9.29388L18.7652 8.63075C18.7252 8.56398 18.6634 8.51502 18.5916 8.49313C18.5197 8.47124 18.4428 8.47794 18.3753 8.51196L17.7036 8.85071L17.3062 8.18774C17.2661 8.12104 17.2044 8.07214 17.1326 8.05029C17.0608 8.02843 16.9839 8.03513 16.9164 8.06911L16.2447 8.40771L15.8467 7.74426C15.8068 7.67755 15.7451 7.62864 15.6733 7.60678C15.6015 7.58492 15.5247 7.59163 15.4573 7.62563L14.7843 7.96438L14.3856 7.30044C14.3513 7.24474 14.3032 7.20015 14.2465 7.1716C14.1897 7.14305 14.1267 7.13166 14.0642 7.13869C14.0017 7.14572 13.9423 7.17089 13.8925 7.21142C13.8428 7.25195 13.8046 7.30625 13.7822 7.36832L13.4673 8.52052C13.4247 8.67324 13.4176 8.8346 13.4467 8.99084L13.5197 9.36871C13.5287 9.42249 13.5256 9.47775 13.5106 9.53001L11.3701 17.3622C11.3569 17.4118 11.3338 17.4579 11.3024 17.4973L10.9635 17.902C10.8719 18.013 10.8047 18.144 10.7665 18.2857L10.4828 19.3233C10.4034 19.6132 10.7439 19.8587 10.9872 19.7364L11.6602 19.3978L12.0586 20.0616C12.0986 20.1283 12.1604 20.1772 12.2322 20.1991C12.304 20.2209 12.3809 20.2142 12.4483 20.1802L13.1205 19.8416L13.5179 20.5046C13.5579 20.5714 13.6197 20.6203 13.6915 20.6422C13.7634 20.6641 13.8403 20.6574 13.9078 20.6234L14.5794 20.2846L14.9768 20.9476C15.0168 21.0144 15.0785 21.0633 15.1504 21.0852C15.2222 21.1071 15.2992 21.1004 15.3667 21.0664L16.0384 20.7276L16.4358 21.3907C16.4757 21.4576 16.5375 21.5065 16.6094 21.5284C16.6813 21.5503 16.7582 21.5435 16.8257 21.5094L17.4969 21.1708L17.8937 21.8334C18.0374 22.0733 18.4497 22.0565 18.5286 21.7678L18.8121 20.7302C18.8515 20.5888 18.8607 20.44 18.8392 20.2945L18.7566 19.7618C18.7498 19.7109 18.7534 19.6591 18.7673 19.6098L20.9081 11.7777C20.9218 11.7249 20.9471 11.6762 20.982 11.6358L21.2346 11.3568C21.338 11.2409 21.4134 11.1003 21.4544 10.9469L21.7692 9.7949C21.7875 9.71273 21.7762 9.6263 21.7375 9.55247C21.6988 9.47864 21.6354 9.4227 21.5599 9.39554ZM20.8669 10.7677C20.8532 10.8205 20.8279 10.8691 20.7931 10.9096L20.5404 11.1886C20.4371 11.3045 20.3617 11.445 20.3206 11.5983L18.18 19.4308C18.1409 19.5721 18.1318 19.7207 18.1534 19.8662L18.2359 20.3987C18.2427 20.4496 18.2389 20.5014 18.2249 20.5506L18.1072 20.9815L17.8682 20.5826C17.8282 20.5159 17.7664 20.4669 17.6946 20.445C17.6228 20.4231 17.5459 20.4298 17.4784 20.4638L16.807 20.8026L16.4096 20.1396C16.3696 20.0729 16.3078 20.0239 16.236 20.0021C16.1642 19.9802 16.0872 19.9869 16.0197 20.0208L15.348 20.3596L14.9506 19.6965C14.9106 19.6296 14.8489 19.5806 14.777 19.5588C14.7051 19.5369 14.6282 19.5437 14.5607 19.5778L13.8892 19.9164L13.4918 19.2536C13.4518 19.1869 13.39 19.1379 13.3182 19.116C13.2464 19.0941 13.1695 19.1007 13.102 19.1347L12.4297 19.4736L12.0312 18.8098C11.9913 18.7431 11.9296 18.6942 11.8578 18.6723C11.7861 18.6505 11.7092 18.6572 11.6418 18.6912L11.2362 18.8953L11.3539 18.4654C11.3669 18.4157 11.3899 18.3696 11.4214 18.3303L11.7607 17.9253C11.852 17.8142 11.919 17.6832 11.9571 17.5417L14.0979 9.70957C14.1405 9.55683 14.1476 9.39549 14.1186 9.23925L14.0455 8.86122C14.0365 8.80743 14.0397 8.75215 14.0548 8.69992L14.1945 8.18839L14.4131 8.55252C14.4531 8.61922 14.5148 8.66811 14.5866 8.68996C14.6584 8.71182 14.7352 8.70513 14.8027 8.67115L15.4755 8.33239L15.8738 8.99601C15.9138 9.06274 15.9756 9.11166 16.0474 9.13352C16.1192 9.15538 16.1961 9.14866 16.2635 9.11464L16.9349 8.77588L17.3323 9.43885C17.3723 9.50558 17.4341 9.5545 17.5059 9.57636C17.5777 9.59822 17.6546 9.5915 17.7221 9.55748L18.3938 9.21889L18.7912 9.88186C18.8312 9.94866 18.8929 9.99763 18.9648 10.0195C19.0366 10.0414 19.1136 10.0347 19.1811 10.0006L19.8526 9.66189L20.25 10.3249C20.2906 10.391 20.3523 10.4394 20.4239 10.4612C20.4955 10.483 20.5722 10.4767 20.6398 10.4435L21.006 10.2588L20.8669 10.7677Z"
                fill="#333333" stroke="#333333" stroke-width="0.2" />
            <path
                d="M18.5963 10.7158L16.002 9.92803C15.9631 9.9153 15.9222 9.9109 15.8817 9.91509C15.8413 9.91928 15.802 9.93197 15.7662 9.95243C15.7304 9.97288 15.6988 10.0007 15.6733 10.0342C15.6478 10.0677 15.6289 10.1063 15.6177 10.1476C15.6065 10.189 15.6032 10.2323 15.608 10.275C15.6128 10.3177 15.6256 10.359 15.6457 10.3964C15.6658 10.4338 15.6927 10.4666 15.725 10.4929C15.7572 10.5191 15.7941 10.5383 15.8334 10.5493L18.4275 11.337C18.5049 11.359 18.5874 11.348 18.6572 11.3063C18.727 11.2646 18.7785 11.1955 18.8006 11.1141C18.8227 11.0326 18.8137 10.9452 18.7755 10.8707C18.7373 10.7962 18.6729 10.7406 18.5963 10.7158ZM16.446 18.5828L13.852 17.7949C13.813 17.7819 13.772 17.7772 13.7313 17.7811C13.6906 17.7851 13.6511 17.7976 13.6151 17.818C13.5791 17.8384 13.5473 17.8663 13.5216 17.8999C13.4959 17.9335 13.4769 17.9722 13.4656 18.0138C13.4543 18.0553 13.451 18.0988 13.4559 18.1417C13.4608 18.1846 13.4738 18.226 13.4941 18.2635C13.5144 18.301 13.5416 18.3338 13.574 18.36C13.6065 18.3862 13.6437 18.4053 13.6832 18.4161L16.2774 19.204C16.3553 19.2266 16.4385 19.2162 16.5091 19.1748C16.5798 19.1334 16.6324 19.0644 16.6555 18.9825C16.6666 18.9418 16.67 18.8991 16.6655 18.8569C16.661 18.8147 16.6487 18.7739 16.6292 18.7368C16.6098 18.6996 16.5836 18.6669 16.5522 18.6405C16.5207 18.6141 16.4846 18.5945 16.446 18.5828ZM9.9532 19.8378L9.43737 19.5778C9.36994 19.5437 9.29301 19.5369 9.22118 19.5588C9.14934 19.5806 9.08759 19.6296 9.04763 19.6964L8.6501 20.3595L7.97837 20.0208C7.9109 19.9868 7.834 19.9801 7.7622 20.002C7.69039 20.0239 7.62865 20.0728 7.58863 20.1396L7.19125 20.8026L6.51967 20.4638C6.45222 20.4297 6.37528 20.4229 6.30344 20.4448C6.2316 20.4667 6.16986 20.5157 6.12993 20.5826L5.89089 20.9815L5.7732 20.5511C5.75927 20.5017 5.75563 20.4498 5.76251 20.3988L5.84504 19.8661C5.86652 19.7205 5.85728 19.5716 5.81799 19.4302L3.67732 11.5981C3.63634 11.4449 3.56106 11.3045 3.45784 11.1887L3.2052 10.9096C3.17027 10.8691 3.14491 10.8204 3.13123 10.7675L2.99214 10.2586L3.3585 10.4434C3.42613 10.4763 3.50267 10.4824 3.57419 10.4606C3.64572 10.4389 3.70748 10.3907 3.74824 10.3248L4.14547 9.66184L4.81704 10.0006C4.88451 10.0345 4.96137 10.0412 5.03315 10.0193C5.10494 9.99747 5.16669 9.94862 5.20678 9.88197L5.60432 9.21884L6.27605 9.55744C6.34351 9.59135 6.42037 9.59801 6.49216 9.57616C6.56394 9.55431 6.62569 9.50546 6.66579 9.43881L7.06317 8.77584L7.73474 9.1146C7.80221 9.14851 7.87907 9.15517 7.95085 9.13332C8.02264 9.11147 8.08439 9.06262 8.12448 8.99597L8.52263 8.33235L9.19558 8.67111C9.26298 8.70511 9.33983 8.71181 9.41159 8.68995C9.48335 8.66809 9.54505 8.61918 9.58501 8.55248L9.80358 8.18834L9.94342 8.69971C9.95844 8.75208 9.96158 8.80745 9.95259 8.86134L9.87954 9.23904C9.85053 9.39535 9.85766 9.55676 9.90032 9.70952L11.3624 15.0585L11.6806 13.8944L10.4877 9.53029C10.4726 9.47795 10.4694 9.42256 10.4784 9.36866L10.5514 8.99096C10.5805 8.83466 10.5734 8.67326 10.5308 8.52048L10.2159 7.36844C10.1389 7.08738 9.75344 7.06589 9.61253 7.30056L9.21392 7.9645L8.54082 7.62574C8.47342 7.59174 8.39657 7.58504 8.32481 7.6069C8.25305 7.62876 8.19135 7.67767 8.15138 7.74437L7.75339 8.40767L7.08181 8.06891C7.01437 8.03489 6.93747 8.02817 6.86566 8.05003C6.79385 8.07189 6.7321 8.12081 6.69207 8.18754L6.29454 8.85051L5.62296 8.51175C5.5555 8.47774 5.47859 8.47105 5.40678 8.49294C5.33496 8.51483 5.27322 8.56378 5.23322 8.63054L4.83569 9.29367L4.16396 8.95491C4.0965 8.92091 4.01959 8.91422 3.94777 8.93611C3.87596 8.958 3.81422 9.00695 3.77422 9.07371L3.37684 9.73635L2.70587 9.39776C2.64887 9.36951 2.58557 9.35858 2.52303 9.36617C2.46049 9.37377 2.40118 9.39959 2.35172 9.44077C2.30225 9.48194 2.26459 9.53684 2.24292 9.59934C2.22125 9.66184 2.21644 9.72947 2.22901 9.7947L2.54386 10.9466C2.58484 11.0999 2.66018 11.2405 2.76349 11.3564L3.01644 11.6359C3.05122 11.6763 3.07646 11.7248 3.09011 11.7775L5.23078 19.6096C5.24474 19.6588 5.24839 19.7107 5.24148 19.7615L5.15894 20.2944C5.13753 20.4399 5.14672 20.5886 5.18584 20.73L5.46951 21.7676C5.54196 22.0325 5.98443 22.0868 6.10441 21.8332L6.50118 21.1706L7.1726 21.5092C7.24005 21.5432 7.31694 21.5499 7.38875 21.528C7.46057 21.5062 7.52232 21.4573 7.56234 21.3905L7.95988 20.7274L8.63145 21.0662C8.69893 21.1001 8.77581 21.1067 8.84761 21.0849C8.9194 21.063 8.98115 21.0141 9.02119 20.9474L9.41873 20.2844L10.0903 20.623C10.1577 20.657 10.2346 20.6637 10.3065 20.6419C10.3783 20.62 10.44 20.5711 10.48 20.5044L10.5652 20.3626C10.5393 20.3537 10.5138 20.3435 10.4888 20.3322C10.3728 20.2918 10.2656 20.2272 10.1737 20.1422C10.0817 20.0573 10.0067 19.9539 9.9532 19.8378Z"
                fill="#333333" stroke="#333333" stroke-width="0.2" />
            <path
                d="M7.63595 19.2159C7.71054 19.2174 10.0688 18.4909 10.074 18.4893L10.1789 18.1056C10.209 17.997 10.2494 17.892 10.2995 17.792C10.2489 17.779 10.1961 17.78 10.146 17.7951L7.55189 18.583C7.5133 18.5947 7.47726 18.6143 7.44585 18.6407C7.41443 18.6671 7.38825 18.6998 7.3688 18.7369C7.34935 18.774 7.33701 18.8149 7.3325 18.857C7.32799 18.8992 7.33139 18.9419 7.3425 18.9827C7.36231 19.0491 7.40124 19.1072 7.45386 19.149C7.50648 19.1909 7.57015 19.2142 7.63595 19.2159Z"
                fill="#333333" />
        </g>
    </g>
    <defs>
        <clipPath id="clip0_11181_1813">
            <rect width="20" height="20" fill="white" transform="translate(2 2)" />
        </clipPath>
        <clipPath id="clip1_11181_1813">
            <rect width="22" height="20" fill="white" transform="translate(1 2)" />
        </clipPath>
    </defs>
</svg>
