<svg width="390" height="293" viewBox="0 0 390 293" fill="none" xmlns="http://www.w3.org/2000/svg">
    <path fill-rule="evenodd" clip-rule="evenodd"
        d="M192.509 212.514C191.449 215.761 189.894 219.423 186.998 220.332C184.991 220.962 178.514 216.969 177.1 215.366C175.687 213.763 168.121 136.466 170.08 131.76C172.708 125.448 201.946 134.166 202.572 145.117C203.374 159.117 201.573 174.012 198.883 187.894C197.269 196.225 195.14 204.462 192.509 212.514Z"
        fill="#405D64" />
    <path
        d="M243.346 275.847C240.607 277.297 237.537 278.109 234.443 278.202C233.444 274.71 232.445 271.218 231.446 267.726C231.32 267.285 231.193 266.82 231.295 266.373C231.445 265.716 232.044 265.271 232.628 264.941C234.842 263.69 238.385 262.293 239.5 265.235C240.832 268.751 242.061 272.312 243.346 275.847Z"
        fill="#F4A086" />
    <path
        d="M186.909 284.271C183.855 284.727 180.686 284.471 177.72 283.528C177.861 279.9 178.002 276.272 178.143 272.644C178.161 272.186 178.185 271.705 178.421 271.318C178.769 270.747 179.477 270.528 180.134 270.41C182.627 269.967 186.428 269.828 186.568 272.976C186.735 276.738 186.792 280.507 186.909 284.271Z"
        fill="#F4A086" />
    <path fill-rule="evenodd" clip-rule="evenodd"
        d="M176.215 203.617C179.276 197.194 188.263 192.792 193.926 203.933C202.563 220.926 187.612 252.71 187.681 273.231H177.204C176.624 271.244 174.516 207.179 176.215 203.617Z"
        fill="#405D64" />
    <path fill-rule="evenodd" clip-rule="evenodd"
        d="M216.169 150.581C213.618 152.602 210.245 152.911 207.082 152.911C181.039 152.911 169.571 146.679 169.571 132.359C169.571 119.451 196.577 121.995 208.75 125.978C211.373 126.836 215.197 127.668 216.99 130.132C219.59 133.705 222.366 145.67 216.169 150.581Z"
        fill="#5F7884" />
    <path
        d="M180.548 65.8449C179.701 77.8856 177.353 90.2209 170.62 100.212C169.168 102.366 167.06 104.599 164.488 104.328C162.985 104.169 161.677 103.128 160.865 101.845C160.054 100.562 159.673 99.054 159.395 97.5591C157.213 85.7942 160.783 73.8045 164.34 62.3835C165.804 57.6792 167.751 49.3527 172.512 46.8158C177.471 44.1734 179.968 52.3348 180.422 55.6625C180.882 59.0328 180.786 62.4601 180.548 65.8449Z"
        fill="#F4A086" />
    <path fill-rule="evenodd" clip-rule="evenodd"
        d="M181.119 48.7367C180.891 46.7447 180.361 44.3976 178.523 43.5285C176.584 42.6116 174.502 43.9499 172.994 45.3111C163.85 53.561 160.385 65.2059 158.728 77.7038L180.653 79.0642C182.115 69.1142 182.282 58.8927 181.119 48.7367Z"
        fill="#00A0DB" />
    <path fill-rule="evenodd" clip-rule="evenodd"
        d="M213.957 212.515C213.076 215.762 211.724 219.424 208.879 220.333C206.906 220.963 202.67 212.768 201.168 211.165C199.665 209.562 185.126 148.914 186.824 144.208C189.103 137.895 194.818 133.807 200.695 132.866C209.236 131.498 219.062 134.166 220.294 145.117C221.869 159.117 220.893 174.011 218.97 187.893C217.815 196.226 216.142 204.462 213.957 212.515Z"
        fill="#5F7884" />
    <path
        d="M150.614 98.3745C149.997 99.7613 150.637 101.456 151.746 102.488C152.855 103.52 160.563 107.17 168.131 103.804C171.939 102.11 172.516 98.4196 171.181 94.9174C169.322 90.042 151.346 96.7315 150.614 98.3745Z"
        fill="#F7B690" />
    <path fill-rule="evenodd" clip-rule="evenodd"
        d="M199.253 205.936C199.476 199.063 207.042 191.024 216.096 200.327C230.674 215.306 234.934 243.877 240.617 265.112L230.731 268.602C229.359 266.98 199.128 209.756 199.253 205.936Z"
        fill="#5F7884" />
    <path fill-rule="evenodd" clip-rule="evenodd"
        d="M221.449 92.5162C225.001 81.05 229.364 66.8853 227.397 54.8965C222.571 48.9697 212.703 35.2119 193.135 35.2119C179.409 35.2119 169.132 49.1519 166.751 52.6942C164.098 56.6416 165.061 62.267 165.722 66.8317C167.131 76.5628 171.32 114.8 167.681 141.339H223.103C222.997 128.683 217.869 104.073 221.449 92.5162Z"
        fill="#E6E6E6" />
    <path
        d="M234.199 78.5746C231.453 68.0424 225.594 58.3529 217.558 51.0581C216.111 49.7454 214.15 48.4293 212.357 49.1972C211.379 49.6161 210.725 50.5942 210.437 51.6234C210.149 52.6526 210.176 53.7414 210.218 54.8098C210.712 67.2694 212.963 79.5834 215.208 91.8472C215.897 95.6151 216.602 99.4314 218.22 102.9C219.838 106.368 222.5 109.508 226.061 110.865C227.926 111.576 230.976 111.994 232.694 110.645C234.076 109.559 234.306 106.793 234.655 105.22C235.896 99.6383 236.288 93.8673 235.822 88.1671C235.559 84.9304 235.018 81.7168 234.199 78.5746Z"
        fill="#F4A086" />
    <path fill-rule="evenodd" clip-rule="evenodd"
        d="M237.311 82.5303C237.329 82.606 237.34 82.6835 237.34 82.7635C237.332 82.6852 237.318 82.6077 237.311 82.5303Z"
        fill="#18898D" />
    <path fill-rule="evenodd" clip-rule="evenodd"
        d="M209.869 48.7386C209.973 46.7465 210.355 44.3995 212.139 43.5303C214.022 42.6135 217.519 44.3425 219.113 45.7037C228.772 53.9536 234.146 65.2086 236.586 77.7065L212.233 79.0669C210.15 69.1161 209.343 58.8945 209.869 48.7386Z"
        fill="#E6E6E6" />
    <path
        d="M187.928 7.44137C182.571 3.71524 174.86 6.94931 173.747 13.8406C172.728 20.1495 179.036 30.9755 182.028 32.7326C187.26 35.804 194.294 28.4318 194.54 24.8947C194.901 19.7137 192.433 10.575 187.928 7.44137Z"
        fill="#F7B690" />
    <path fill-rule="evenodd" clip-rule="evenodd"
        d="M191.738 8.76576C192.153 8.48399 192.719 8.51463 193.178 8.71554C193.638 8.9173 194.016 9.26547 194.384 9.6077C195.637 10.7714 196.9 11.9462 197.89 13.3432C198.88 14.7402 199.59 16.3942 199.593 18.1096C199.594 19.2223 199.307 20.3775 199.687 21.4229C200.027 22.3593 200.891 23.2216 200.632 24.1845C200.44 24.8987 199.629 25.321 198.898 25.2409C198.166 25.1609 197.529 24.6808 197.065 24.1062C196.602 23.5315 196.278 22.8581 195.903 22.2214C194.657 20.1068 192.841 18.382 191.546 16.2972C190.251 14.2124 189.53 11.4771 190.7 9.31911L191.738 8.76576Z"
        fill="#222B56" />
    <path fill-rule="evenodd" clip-rule="evenodd"
        d="M166.884 11.5486C168.041 11.0778 169.198 10.607 170.354 10.1354C169.822 10.7969 169.276 11.4873 169.067 12.3113C168.859 13.1362 169.086 14.1374 169.816 14.5664C170.384 14.9001 171.121 14.8124 171.706 14.5102C172.291 14.208 172.757 13.7202 173.21 13.2409C172.972 13.6845 172.729 14.1518 172.725 14.6558C172.723 15.1598 173.049 15.7046 173.548 15.7599C173.944 15.8042 174.303 15.542 174.616 15.2934C176.186 14.0488 177.757 12.8042 179.327 11.5596C179.235 12.0551 179.142 12.5616 179.221 13.0596C179.301 13.5568 179.588 14.0514 180.054 14.2361C180.872 14.5605 181.715 13.8258 182.212 13.0962C182.71 12.3667 183.228 11.4898 184.098 11.3587C185.075 11.2114 185.875 12.0917 186.473 12.8834C186.58 13.0256 186.687 13.1669 186.794 13.309C187.895 14.7665 188.997 16.223 190.097 17.6805C190.434 18.1265 190.78 18.5811 191.239 18.897C191.7 19.2128 192.302 19.3728 192.823 19.1719C193.71 18.8297 203.303 4.59516 191.03 0.248438C189.253 -0.380671 186.744 0.316543 184.948 0.885209C183.151 1.45388 181.451 2.35625 179.597 2.69081C178.128 2.95641 176.619 2.85511 175.133 3.00324C170.978 3.41867 166.993 7.24951 166.884 11.5486Z"
        fill="#222B56" />
    <path
        d="M197.425 14.5688C197.98 15.9624 197.966 17.5756 197.389 18.9598C195.737 22.9209 191.877 19.3684 191.69 16.5004C191.467 13.0824 195.918 10.7771 197.425 14.5688Z"
        fill="#F7B690" />
    <path fill-rule="evenodd" clip-rule="evenodd"
        d="M158.202 289.602C158.068 288.094 159.49 286.845 160.955 286.494C162.419 286.143 163.95 286.41 165.455 286.392C169.747 286.342 173.917 283.753 175.885 279.917C176.156 279.389 176.418 278.807 176.933 278.516C177.618 278.129 178.506 278.418 179.114 278.919C179.722 279.42 180.151 280.105 180.705 280.665C181.7 281.668 183.119 282.224 184.524 282.202C185.701 282.185 187.02 281.28 188.151 281.878C189.149 282.406 189.418 283.797 189.671 284.788C190.107 286.496 190.503 288.216 190.918 289.93C191.01 290.309 191.1 290.706 191.128 291.097H182.949C182.569 290.558 182.258 288.989 182.096 288.342C182.069 289.008 181.807 290.584 181.387 291.097H158.908C158.522 290.678 158.252 290.169 158.202 289.602Z"
        fill="#0A3C5F" />
    <path fill-rule="evenodd" clip-rule="evenodd"
        d="M232.592 285.292C232.04 283.889 232.219 282.502 232.71 281.957C233.202 281.411 233.318 278.692 233.357 274.758C233.375 272.959 236.423 271.382 238.983 273.566C239.813 274.274 240.497 274.682 241.072 274.458C241.555 274.269 241.804 273.222 242.47 273.621C243.058 273.972 243.627 275.246 244.058 276.144C244.801 277.693 245.532 279.257 246.268 280.813C246.431 281.158 246.599 281.519 246.74 281.884L233.376 286.6C233.078 286.261 232.799 285.82 232.592 285.292Z"
        fill="#0A3C5F" />
    <path
        d="M194.509 114.693H161.26C159.292 114.693 157.251 113.089 156.7 111.11L142.07 58.5558C141.519 56.5765 142.668 54.9727 144.635 54.9727H177.884C179.852 54.9727 181.893 56.5765 182.444 58.5558L197.074 111.11C197.624 113.089 196.476 114.693 194.509 114.693Z"
        fill="url(#paint0_linear_12083_20640)" />
    <path
        d="M197.073 111.11L182.444 58.5558C181.893 56.5765 179.852 54.9727 177.884 54.9727H174.339C176.306 54.9727 178.348 56.5774 178.899 58.5558L193.528 111.11C194.079 113.089 192.931 114.693 190.963 114.693H194.508C196.476 114.693 197.624 113.089 197.073 111.11Z"
        fill="#C00016" />
    <path
        d="M192.323 99.0981C190.695 100.161 190.427 102.589 191.265 104.349C192.103 106.109 220.381 113.005 227.194 112.892C229.267 112.857 231.649 112.658 232.869 110.972C233.958 109.465 233.649 107.369 233.066 105.601C232.086 102.632 230.37 99.2854 227.955 97.2304C226.289 95.813 193.365 98.4179 192.323 99.0981Z"
        fill="#F7B690" />
    <path
        d="M182.119 94.0665C181.438 93.1131 180.748 91.8004 181.444 90.8571C181.905 90.2323 182.819 90.1046 183.557 90.3395C184.295 90.5753 184.901 91.0955 185.501 91.5867C186.312 92.2516 187.198 92.9079 188.234 93.0569C189.269 93.2059 190.477 92.6619 190.721 91.6386C190.988 90.52 190.12 89.1103 190.938 88.3075C191.368 87.8861 192.09 87.9133 192.615 88.2062C193.14 88.499 193.514 88.9988 193.871 89.484C195.77 92.0617 197.711 94.7297 198.474 97.8446C199.236 100.959 198.528 104.669 195.939 106.542C193.625 108.218 190.211 107.969 187.983 106.18C186.08 104.653 185.353 102.466 185.103 100.121C184.831 97.5509 183.672 96.2399 182.119 94.0665Z"
        fill="#F7B690" />
    <path
        d="M148.834 91.399C148.956 91.0398 149.154 85.2995 149.448 85.0594C149.985 84.6219 151.988 91.3769 151.574 91.9328C153.025 91.777 153.459 91.731 154.91 91.5752C155.966 91.462 157.346 91.548 157.666 92.5662C157.922 93.3791 157.274 94.1606 156.826 94.8834C156.027 96.1688 157.202 103.671 156.579 104.308C154.271 106.664 149.218 102.579 148.376 100.281C147.207 97.0925 147.788 94.4654 148.834 91.399Z"
        fill="#F7B690" />
    <path
        d="M372.061 234.573C372.089 234.671 372.115 234.767 372.142 234.863C372.169 234.959 372.197 235.055 372.224 235.151C372.945 237.746 373.453 240.396 373.746 243.073L373.747 243.078C373.774 243.283 373.795 243.487 373.813 243.696V243.7C374.453 250.158 373.885 256.679 372.137 262.929C372.135 262.937 372.133 262.945 372.132 262.949C372.13 262.953 372.129 262.957 372.129 262.959L372.128 262.961L372.124 262.974C371.837 264.01 371.515 265.036 371.159 266.049L370.792 267.058C370.395 268.116 369.967 269.162 369.499 270.188L368.742 271.819C367.969 273.469 367.174 275.17 366.606 276.885C365.895 279.034 365.528 281.239 366.003 283.453L366.109 283.896C366.742 286.272 368.337 288.261 370.275 289.75L370.667 290.041C371.012 290.29 371.367 290.52 371.724 290.735L371.727 290.737C371.824 290.794 371.941 290.865 372.057 290.926C372.183 291 372.309 291.071 372.435 291.137L372.49 291.165H382.495L382.564 291.025C382.741 290.666 382.914 290.302 383.086 289.946V289.945C387.29 281.11 390.255 271.553 389.75 261.806L389.705 261.097C389.447 257.556 388.669 254.07 387.393 250.754C384.687 243.706 379.741 237.587 372.921 234.504V234.505C372.751 234.427 372.573 234.348 372.399 234.275L371.922 234.074L372.061 234.573Z"
        fill="white" stroke="#E6E6E6" stroke-width="0.5" />
    <path
        d="M372.18 234.708C372.275 234.835 372.37 234.957 372.465 235.084C374.453 237.718 376.141 240.566 377.498 243.574C377.57 243.724 377.638 243.873 377.697 244.027C379.556 248.228 380.75 252.692 381.236 257.26C381.241 257.292 381.244 257.324 381.245 257.355C381.358 258.424 381.426 259.501 381.453 260.578C381.554 262.597 381.335 264.619 380.806 266.57C380.323 268.163 379.477 269.622 378.335 270.833C378.222 270.955 378.108 271.078 377.986 271.195C377.896 271.29 377.796 271.385 377.701 271.476C376.787 272.349 375.787 273.159 374.927 274.096C374.533 274.516 374.177 274.971 373.863 275.454C373.363 276.264 373.04 277.171 372.915 278.114C372.79 279.058 372.867 280.018 373.139 280.93C373.755 283.22 375.162 285.153 376.601 286.995C377.321 287.918 378.063 288.85 378.706 289.837C378.941 290.19 379.158 290.547 379.358 290.914H379.928C379.738 290.547 379.53 290.19 379.303 289.837C377.651 287.235 375.302 284.999 374.085 282.134C373.261 280.201 373.012 278.011 374.053 276.115C374.358 275.563 374.728 275.05 375.153 274.585C375.981 273.648 376.973 272.847 377.873 272.001C378.099 271.788 378.321 271.571 378.534 271.345C379.662 270.199 380.532 268.826 381.086 267.317C381.714 265.4 382.011 263.391 381.964 261.374C381.964 260.089 381.897 258.795 381.77 257.509C381.756 257.346 381.738 257.179 381.72 257.011C380.794 248.923 377.721 241.23 372.818 234.731C372.727 234.604 372.632 234.482 372.537 234.36C372.343 234.107 371.985 234.46 372.18 234.708Z"
        fill="#E6E6E6" />
    <path
        d="M381.537 257.554C383.104 257.29 384.527 256.479 385.552 255.263C386.576 254.047 387.135 252.507 387.128 250.918C387.127 250.853 387.101 250.791 387.056 250.745C387.01 250.699 386.948 250.672 386.883 250.671C386.819 250.67 386.756 250.693 386.708 250.737C386.661 250.781 386.632 250.842 386.628 250.907C386.637 252.387 386.116 253.822 385.16 254.952C384.204 256.082 382.876 256.833 381.415 257.069C381.097 257.121 381.221 257.605 381.537 257.554Z"
        fill="#E6E6E6" />
    <path
        d="M378.46 270.925C375.797 269.063 373.933 266.266 373.241 263.092C373.172 262.777 372.688 262.9 372.756 263.214C373.483 266.516 375.428 269.423 378.204 271.354C378.469 271.538 378.724 271.108 378.46 270.925Z"
        fill="#E6E6E6" />
    <path
        d="M377.647 243.523C377.062 243.751 376.429 243.831 375.805 243.754C375.182 243.677 374.587 243.447 374.075 243.083C373.812 242.896 373.558 243.327 373.818 243.512C374.387 243.911 375.044 244.165 375.732 244.251C376.421 244.338 377.12 244.254 377.769 244.008C377.832 243.99 377.886 243.948 377.92 243.892C377.954 243.835 377.965 243.768 377.951 243.704C377.934 243.64 377.893 243.585 377.836 243.551C377.779 243.517 377.711 243.507 377.647 243.523Z"
        fill="#E6E6E6" />
    <path
        d="M360.001 256.065C353.613 252.103 346.027 250.202 338.757 251.833H338.752L338.726 251.839C338.539 251.88 338.356 251.921 338.168 251.967L337.663 252.09L338.074 252.407C338.236 252.532 338.395 252.65 338.551 252.775L338.555 252.779C340.693 254.415 342.695 256.222 344.54 258.183L344.542 258.186C344.685 258.333 344.828 258.485 344.967 258.637L344.975 258.646L344.976 258.645C349.351 263.395 352.809 268.913 355.179 274.921L355.188 274.949C355.192 274.964 355.198 274.975 355.2 274.98C355.201 274.983 355.201 274.985 355.201 274.985L355.205 274.997L355.438 274.906L355.206 274.997C356.145 277.401 356.903 279.873 357.472 282.391L357.471 282.392C358.019 284.844 358.478 287.52 359.35 289.92C359.483 290.292 359.629 290.661 359.785 291.015L359.852 291.164H380.438L380.382 290.867C380.314 290.508 380.24 290.145 380.168 289.787C379.141 284.526 377.536 279.393 375.382 274.484L375.381 274.483C375.309 274.321 375.235 274.153 375.15 273.984C374.038 271.558 372.73 269.225 371.239 267.011L371.238 267.009L371.209 266.965L371.202 266.96C370.39 265.765 369.519 264.612 368.592 263.504V263.503C366.154 260.603 363.275 258.105 360.061 256.102C360.054 256.097 360.048 256.094 360.043 256.091C360.034 256.085 360.025 256.08 360.021 256.077C360.017 256.075 360.016 256.074 360.015 256.073L360.011 256.071L360.001 256.065Z"
        fill="white" stroke="#E6E6E6" stroke-width="0.5" />
    <path
        d="M338.25 252.448C338.404 252.489 338.557 252.534 338.707 252.58C341.879 253.486 344.94 254.741 347.835 256.322C347.98 256.399 348.125 256.481 348.27 256.562C352.271 258.795 355.902 261.633 359.037 264.976C359.039 264.978 359.041 264.981 359.041 264.985C359.077 265.021 359.118 265.062 359.15 265.098C359.874 265.876 360.571 266.686 361.232 267.519C362.524 269.072 363.565 270.817 364.318 272.692C364.893 274.255 365.096 275.93 364.911 277.584C364.897 277.752 364.875 277.915 364.852 278.082C364.834 278.213 364.816 278.345 364.793 278.48C364.495 280.295 363.979 282.115 364.123 283.966C364.212 284.914 364.5 285.833 364.968 286.662C365.437 287.492 366.076 288.212 366.843 288.777C367.365 289.18 367.923 289.534 368.509 289.836C369.347 290.268 370.221 290.628 371.12 290.913H372.899C372.659 290.845 372.424 290.777 372.184 290.709C371.333 290.469 370.497 290.177 369.681 289.836C369.215 289.641 368.762 289.417 368.323 289.166C366.504 288.12 364.988 286.518 364.671 284.378C364.395 282.504 364.929 280.63 365.246 278.797C365.3 278.48 365.35 278.168 365.377 277.856C365.593 276.269 365.462 274.653 364.992 273.122C364.341 271.212 363.368 269.427 362.114 267.845C361.339 266.815 360.511 265.826 359.634 264.881C359.525 264.758 359.412 264.636 359.294 264.514C356.095 261.148 352.4 258.289 348.338 256.037H348.333C345.313 254.356 342.108 253.029 338.784 252.082H338.779C338.63 252.036 338.476 251.991 338.327 251.95C338.014 251.869 337.942 252.362 338.25 252.448Z"
        fill="#E6E6E6" />
    <path
        d="M359.474 265.054C360.567 263.9 361.214 262.395 361.3 260.808C361.386 259.221 360.905 257.655 359.943 256.39C359.747 256.134 359.341 256.426 359.537 256.682C360.435 257.858 360.883 259.317 360.8 260.795C360.717 262.273 360.109 263.673 359.084 264.741C358.862 264.974 359.253 265.286 359.474 265.054Z"
        fill="#E6E6E6" />
    <path
        d="M365.068 277.583C361.821 277.7 358.649 276.589 356.184 274.471C355.94 274.261 355.627 274.651 355.871 274.861C358.439 277.06 361.743 278.21 365.122 278.08C365.444 278.068 365.388 277.571 365.068 277.583Z"
        fill="#E6E6E6" />
    <path
        d="M347.92 256.192C347.59 256.727 347.133 257.171 346.589 257.485C346.045 257.8 345.431 257.974 344.803 257.992C344.481 258.001 344.537 258.497 344.857 258.489C345.551 258.466 346.228 258.272 346.83 257.927C347.432 257.581 347.94 257.093 348.31 256.506C348.349 256.453 348.367 256.388 348.36 256.322C348.353 256.257 348.322 256.197 348.272 256.154C348.22 256.113 348.154 256.094 348.088 256.101C348.022 256.108 347.962 256.141 347.92 256.192Z"
        fill="#E6E6E6" />
    <path
        d="M-0.883514 291.281C-0.883728 291.352 -0.869965 291.422 -0.842957 291.487C-0.815979 291.553 -0.776337 291.612 -0.726288 291.662C-0.676239 291.712 -0.61676 291.752 -0.551331 291.779C-0.485901 291.806 -0.415771 291.82 -0.344971 291.819H389.002C389.145 291.819 389.282 291.763 389.383 291.662C389.484 291.561 389.541 291.424 389.541 291.281C389.541 291.138 389.484 291.001 389.383 290.9C389.282 290.799 389.145 290.742 389.002 290.742H-0.344971C-0.415771 290.742 -0.485901 290.756 -0.551331 290.783C-0.61676 290.81 -0.676239 290.849 -0.726288 290.899C-0.776337 290.95 -0.815979 291.009 -0.842957 291.074C-0.869965 291.14 -0.883728 291.21 -0.883514 291.281Z"
        fill="#E6E6E6" />
    <defs>
        <linearGradient id="paint0_linear_12083_20640" x1="141.932" y1="54.9727" x2="200.712" y2="58.6434"
            gradientUnits="userSpaceOnUse">
            <stop stop-color="#C00016" />
            <stop offset="1" stop-color="#5A000A" />
        </linearGradient>
    </defs>
</svg>
