<svg width="304" height="306" viewBox="0 0 304 306" fill="none" xmlns="http://www.w3.org/2000/svg">
    <path
        d="M258.929 254.31C251.432 262.037 244.725 266.579 239.589 270.008C189.504 303.451 132.251 293.812 114.549 290.517C85.9905 285.202 61.8829 281.452 41.1701 262.739C-5.89549 220.217 -3.60634 131.513 32.3575 76.5651C36.6217 70.0498 72.5312 16.8209 129.908 9.3205C131.312 9.13706 132.359 9.03261 133.276 8.93544C142.152 7.9957 197.156 3.03566 242.005 40.6109C248.425 45.9896 258.757 55.6914 268.338 70.4883C303.37 124.592 303.481 208.387 258.929 254.31Z"
        fill="url(#paint0_linear_12083_20760)" />
    <path
        d="M303.333 236.618C298.768 259.985 276.737 276.799 260.269 280.249L254.27 274.329C268.883 265.451 278.724 258.148 281.394 241.23C281.538 240.313 282.227 239.575 283.134 239.375L301.907 235.233C302.741 235.049 303.496 235.779 303.333 236.618Z"
        fill="url(#paint1_linear_12083_20760)" />
    <path
        d="M268.176 289.07L244.068 281.325C243.573 281.167 243.416 280.545 243.776 280.17L256.104 267.317C256.586 266.814 257.417 266.917 257.762 267.522L269.279 287.709C269.704 288.454 268.992 289.332 268.176 289.07Z"
        fill="url(#paint2_linear_12083_20760)" />
    <path
        d="M8.09541 52.1217C17.4197 30.2147 42.4662 18.3498 59.2915 18.4L63.928 25.4384C47.7882 31.0824 36.6432 36.1793 30.514 52.1726C30.1816 53.0398 29.3547 53.6184 28.4261 53.6256L9.20226 53.7727C8.34816 53.7793 7.76086 52.9076 8.09541 52.1217Z"
        fill="url(#paint3_linear_12083_20760)" />
    <path
        d="M53.3918 8.12764L77.5863 14.0552C79.2465 14.4619 79.7204 16.5953 78.3886 17.6667L60.6761 31.915C60.0997 32.3066 59.3088 32.0333 59.0969 31.3695L52.0296 9.22867C51.769 8.4121 52.6481 7.70153 53.3918 8.12764Z"
        fill="url(#paint4_linear_12083_20760)" />
    <path
        d="M122.217 104.087C120.269 104.831 118.28 105.462 116.26 105.977C113.591 106.629 112.084 106.932 109.509 105.929C109.418 105.894 109.332 105.859 109.25 105.824C104.368 103.742 100.194 100.281 97.2374 95.8627C94.2806 91.4442 92.6682 86.2588 92.5963 80.9377C92.5834 80.7552 92.5834 80.5633 92.5834 80.376C92.5809 79.4742 92.6239 78.5728 92.7122 77.6753C92.8251 76.4528 93.0201 75.2393 93.2958 74.0432L93.27 74.0385C91.1845 71.8995 90.3821 68.9694 90.6482 66.0253C90.8304 64.0293 91.462 62.1009 92.4952 60.3853C93.5284 58.6697 94.9363 57.2117 96.6128 56.1211C99.2403 54.4641 102.203 53.4152 105.285 53.0507C106.113 52.9549 106.945 52.9065 107.778 52.9056H115.605C117.222 52.5259 118.864 52.2662 120.519 52.1286H120.532C136.284 50.818 148.707 61.2932 147.549 74.0385C147.54 74.0525 147.527 74.0666 147.519 74.0806C147.184 74.6282 146.888 75.1478 146.626 75.6439C146.373 76.1073 146.158 76.552 145.974 76.9732C144.536 80.2309 151.368 130.774 148.918 131.542C147.523 131.977 141.902 94.3664 142.91 101.518C144.18 110.491 129.475 101.396 122.217 104.087Z"
        fill="#2F2E41" />
    <path d="M145.948 195.454L167.785 242.117L83.7847 233.583L101.319 188.788L145.948 195.454Z" fill="#FFB6B6" />
    <path
        d="M189.784 289.011C175.177 293.888 159.783 295.956 144.411 295.106L137.727 284.233C137.727 284.233 137.447 288.283 137.03 294.474C129.712 293.623 121.97 291.943 114.178 290.5C100.678 288 89.6776 286 75.6776 282C73.1111 266.653 73.4211 234.235 87.6106 220.459L163.985 234.497C163.985 234.497 176.239 243.69 172.961 246.983C169.683 250.271 169.175 249.762 171.329 251.923C173.483 254.083 178.137 256.971 178.184 258.861C178.203 259.598 183.427 272.974 189.784 289.011Z"
        fill="#2F2E41" />
    <path
        d="M132.612 105.286L114.16 106.577L102.234 118.137L98.0571 118.885C94.3027 119.556 90.9245 121.586 88.563 124.59C86.2015 127.594 85.0209 131.362 85.2452 135.181C86.1044 149.781 88.028 171.597 92.0486 178.675C98.2829 189.649 103.432 186.206 98.2829 189.649C93.1335 193.093 89.6763 190.387 92.0486 195.829C94.4208 201.271 88.8423 208.251 88.8423 208.251L86.6217 210.479L88.977 211.447L164.026 221.242C164.026 221.242 157.537 191.976 161.596 184.787C165.654 177.598 175.494 155.866 166.712 147.363L158.125 117.053L143.355 112.684L132.612 105.286Z"
        fill="url(#paint5_linear_12083_20760)" />
    <path
        d="M244.31 225.402C243.076 225.363 241.864 225.055 240.759 224.5C239.655 223.944 238.684 223.155 237.913 222.187C237.143 221.218 236.591 220.093 236.296 218.889C236.002 217.686 235.972 216.433 236.208 215.216L201.003 191.302L205.204 179.908L246.809 208.618C248.821 209.169 250.562 210.441 251.701 212.193C252.841 213.944 253.3 216.055 252.992 218.123C252.684 220.192 251.63 222.076 250.03 223.417C248.43 224.759 246.395 225.465 244.31 225.402Z"
        fill="#FFB6B6" />
    <path
        d="M144.875 115.622L139.759 117.653L167.048 171.113L223.54 209.737L231.683 195.932L188.681 158.675L171.465 125.556C169.042 120.896 164.983 117.301 160.072 115.466C155.162 113.631 149.747 113.687 144.875 115.622Z"
        fill="#79010E" />
    <path
        d="M122.425 100.584C132.658 100.584 140.954 92.2632 140.954 81.999C140.954 71.7348 132.658 63.4141 122.425 63.4141C112.192 63.4141 103.897 71.7348 103.897 81.999C103.897 92.2632 112.192 100.584 122.425 100.584Z"
        fill="#FFB6B6" />
    <path
        d="M138.537 74.1403C138.228 74.3039 137.924 74.4545 137.615 74.6052C137.293 74.7601 136.971 74.9151 136.645 75.0614C130.444 77.8807 125.394 78.1949 122.33 74.1403C122.246 72.0072 121.767 69.9083 120.918 67.9508C121.068 70.1384 120.493 72.3143 119.283 74.1403H113.112C106.757 78.3714 103.496 82.2582 107.907 96.148C108.195 97.0605 110.164 129.48 110.726 131.972C101.106 128.271 92.8066 88.9685 92.5963 78.6124C92.5835 78.4446 92.5835 78.2681 92.5835 78.0959C92.581 77.2663 92.624 76.4372 92.7122 75.6124C92.8254 74.4862 93.0205 73.3699 93.2958 72.2723L93.2701 72.268C92.2912 71.3293 91.5444 70.1743 91.0892 68.8949C90.634 67.6156 90.483 66.2473 90.6482 64.8991C92.2621 62.7794 94.2593 60.9834 96.5356 59.6049C98.6054 58.5995 100.763 57.7869 102.981 57.1773C103.037 57.1644 103.084 57.1514 103.14 57.1385C103.818 56.9534 104.513 56.7856 105.208 56.6392C106.641 56.3379 108.089 56.118 109.546 55.9807C109.654 55.9764 109.757 55.9678 109.851 55.9678C110.434 55.9682 111.006 56.1257 111.507 56.424C111.512 56.424 111.512 56.4283 111.52 56.4283C112.002 56.7171 112.402 57.1253 112.68 57.6138C112.959 58.1023 113.108 58.6546 113.112 59.2175H119.987C120.24 59.2175 120.493 59.2261 120.746 59.239C130.32 59.6221 138.014 63.7284 138.507 73.1676C138.529 73.4947 138.537 73.8132 138.537 74.1403Z"
        fill="#2F2E41" />
    <path
        d="M97.8936 74.8871C104.635 74.8871 110.1 69.4054 110.1 62.6433C110.1 55.8812 104.635 50.3994 97.8936 50.3994C91.1521 50.3994 85.687 55.8812 85.687 62.6433C85.687 69.4054 91.1521 74.8871 97.8936 74.8871Z"
        fill="#2F2E41" />
    <path
        d="M114.653 56.9804C113.266 63.5979 106.424 67.5557 99.8786 65.9367C96.7354 65.1592 94.0288 63.1611 92.3542 60.382C90.6797 57.6029 90.1744 54.2703 90.9495 51.1175C92.5636 44.5521 100.507 46.4448 105.724 42.1612C113.103 36.1013 116.523 48.0562 114.653 56.9804Z"
        fill="#2F2E41" />
    <path
        d="M87.5318 241.185C97.9353 198.631 118.549 162.055 152.687 133.397C154.008 131.217 156.138 129.652 158.608 129.045C161.079 128.437 163.689 128.838 165.865 130.158L247.021 179.515C249.195 180.84 250.755 182.976 251.361 185.454C251.966 187.932 251.567 190.55 250.251 192.733C237.22 236.398 217.704 274.289 185.095 300.521C183.774 302.701 181.645 304.267 179.174 304.874C176.704 305.481 174.094 305.081 171.918 303.76L90.7615 254.403C88.588 253.078 87.0273 250.942 86.4219 248.464C85.8164 245.986 86.2156 243.369 87.5318 241.185Z"
        fill="#F2F2F2" />
    <path opacity="0.2"
        d="M101.956 255.527C99.783 254.202 98.2224 252.066 97.6169 249.588C97.0115 247.11 97.4107 244.492 98.7269 242.309C109.13 199.754 129.744 163.178 163.882 134.521C164.757 133.094 165.992 131.924 167.462 131.129L165.865 130.158C163.688 128.838 161.079 128.437 158.608 129.045C156.138 129.652 154.008 131.217 152.687 133.397C118.549 162.054 97.9353 198.631 87.5319 241.185C86.2156 243.369 85.8164 245.986 86.4219 248.464C87.0273 250.942 88.588 253.078 90.7615 254.403L171.917 303.76C173.362 304.632 175.01 305.105 176.696 305.132C178.382 305.159 180.044 304.738 181.516 303.913L101.956 255.527Z"
        fill="black" />
    <path
        d="M197.132 231.751L142.656 198.827C141.791 198.303 141.168 197.455 140.926 196.47C140.683 195.486 140.84 194.445 141.361 193.576C141.883 192.707 142.728 192.082 143.709 191.837C144.69 191.592 145.728 191.748 146.595 192.27L201.071 225.194C201.934 225.72 202.555 226.567 202.796 227.551C203.038 228.534 202.881 229.574 202.359 230.442C201.838 231.309 200.995 231.934 200.016 232.18C199.036 232.425 197.999 232.271 197.132 231.751Z"
        fill="white" />
    <path
        d="M165.442 188.091L153.457 180.848C152.589 180.327 151.962 179.481 151.715 178.496C151.469 177.512 151.622 176.469 152.141 175.598C152.661 174.727 153.504 174.098 154.486 173.851C155.467 173.603 156.507 173.757 157.375 174.278L157.396 174.291L169.38 181.534C170.244 182.06 170.865 182.907 171.106 183.891C171.348 184.875 171.191 185.914 170.67 186.782C170.149 187.65 169.305 188.275 168.325 188.52C167.345 188.766 166.308 188.611 165.442 188.091Z"
        fill="white" />
    <path
        d="M188.474 246.164L133.998 213.24C133.132 212.717 132.508 211.87 132.264 210.886C132.02 209.901 132.175 208.86 132.696 207.99C133.217 207.12 134.061 206.494 135.042 206.248C136.023 206.002 137.062 206.157 137.929 206.679L137.937 206.683L192.413 239.607C193.276 240.133 193.897 240.98 194.138 241.964C194.38 242.948 194.223 243.987 193.701 244.855C193.18 245.723 192.337 246.348 191.357 246.593C190.377 246.838 189.341 246.684 188.474 246.164Z"
        fill="white" />
    <path
        d="M204.049 169.673C212.837 169.673 219.961 162.527 219.961 153.713C219.961 144.898 212.837 137.753 204.049 137.753C195.262 137.753 188.138 144.898 188.138 153.713C188.138 162.527 195.262 169.673 204.049 169.673Z"
        fill="#3F3D56" />
    <path
        d="M92.5923 241.636C91.3797 241.138 90.2895 240.381 89.3971 239.419C88.5047 238.456 87.8314 237.31 87.4238 236.061C87.0161 234.812 86.8839 233.489 87.0362 232.183C87.1886 230.878 87.6218 229.621 88.306 228.5L62.1636 191.64L70.5502 181.88L101.281 225.887C103.076 227.183 104.336 229.094 104.821 231.259C105.305 233.423 104.982 235.691 103.911 237.633C102.84 239.574 101.096 241.054 99.0099 241.792C96.9239 242.529 94.6405 242.474 92.5923 241.636Z"
        fill="#FFB6B6" />
    <path
        d="M93.1923 124.827C91.8697 124.047 90.3131 123.765 88.8018 124.032C87.2905 124.299 85.9236 125.097 84.9463 126.284L49.6245 175.834L82.3586 222.468L95.1676 208.668L75.2425 177.262L101.723 151.972C103.899 147.19 104.232 141.769 102.656 136.756C101.081 131.743 97.7089 127.493 93.1923 124.827Z"
        fill="#AD0014" />
    <defs>
        <linearGradient id="paint0_linear_12083_20760" x1="319.899" y1="341.036" x2="116.833" y2="124.868"
            gradientUnits="userSpaceOnUse">
            <stop stop-color="white" />
            <stop offset="1" stop-color="white" />
        </linearGradient>
        <linearGradient id="paint1_linear_12083_20760" x1="243.58" y1="235.204" x2="307.033" y2="239.95"
            gradientUnits="userSpaceOnUse">
            <stop stop-color="#C00016" />
            <stop offset="1" stop-color="#5A000A" />
        </linearGradient>
        <linearGradient id="paint2_linear_12083_20760" x1="243.58" y1="235.204" x2="307.033" y2="239.95"
            gradientUnits="userSpaceOnUse">
            <stop stop-color="#C00016" />
            <stop offset="1" stop-color="#5A000A" />
        </linearGradient>
        <linearGradient id="paint3_linear_12083_20760" x1="8" y1="8" x2="83.1341" y2="15.8803"
            gradientUnits="userSpaceOnUse">
            <stop stop-color="#C00016" />
            <stop offset="1" stop-color="#5A000A" />
        </linearGradient>
        <linearGradient id="paint4_linear_12083_20760" x1="8" y1="8" x2="83.1341" y2="15.8803"
            gradientUnits="userSpaceOnUse">
            <stop stop-color="#C00016" />
            <stop offset="1" stop-color="#5A000A" />
        </linearGradient>
        <linearGradient id="paint5_linear_12083_20760" x1="85.2183" y1="105.286" x2="175.764" y2="109.766"
            gradientUnits="userSpaceOnUse">
            <stop stop-color="#C00016" />
            <stop offset="1" stop-color="#5A000A" />
        </linearGradient>
    </defs>
</svg>
