<svg width="213" height="305" viewBox="0 0 213 305" fill="none" xmlns="http://www.w3.org/2000/svg">
    <path
        d="M76.3928 75.6113C74.372 76.3835 72.3085 77.038 70.2125 77.5717C67.4439 78.2486 65.8807 78.5623 63.2085 77.522C63.1146 77.4855 63.025 77.4494 62.9405 77.4138C57.8755 75.2537 53.5457 71.6632 50.4782 67.0793C47.4108 62.4955 45.738 57.1161 45.6635 51.5959C45.6501 51.4066 45.6501 51.2075 45.6501 51.0132C45.6475 50.0777 45.6921 49.1425 45.7837 48.2115C45.9008 46.9432 46.1031 45.6844 46.3891 44.4434L46.3624 44.4386C44.1989 42.2195 43.3664 39.1798 43.6424 36.1256C43.8315 34.0549 44.4867 32.0543 45.5585 30.2745C46.6304 28.4947 48.091 26.9822 49.8303 25.8508C52.5561 24.1318 55.6295 23.0437 58.8272 22.6655C59.6858 22.5662 60.5493 22.5159 61.4136 22.515H69.5335C71.2105 22.1211 72.9142 21.8517 74.6307 21.7089H74.644C90.9862 20.3493 103.874 31.2164 102.672 44.4386C102.663 44.4531 102.65 44.4677 102.641 44.4823C102.294 45.0504 101.986 45.5894 101.715 46.1041C101.452 46.5848 101.23 47.0461 101.038 47.4831C99.5469 50.8627 106.634 103.297 104.092 104.093C102.645 104.545 96.8135 65.527 97.8596 72.9466C99.1774 82.255 83.9216 72.8197 76.3928 75.6113Z"
        fill="#2F2E41" />
    <path d="M101.012 170.396L123.665 218.804L36.5222 209.952L54.7128 163.48L101.012 170.396Z" fill="#FFB6B6" />
    <path
        d="M146.487 267.453C131.333 272.512 115.364 274.658 99.4172 273.776L92.4827 262.496C92.4827 262.496 92.1923 266.697 91.7592 273.12C84.1681 272.237 76.6759 270.644 69.3808 268.361C55.5463 264.022 42.578 257.298 29.4325 251.098C26.7699 235.177 25.7708 210.627 40.4912 196.336L119.724 210.899C119.724 210.899 132.436 220.436 129.035 223.853C125.634 227.264 125.108 226.736 127.342 228.977C129.577 231.218 134.405 234.214 134.454 236.174C134.474 236.939 139.892 250.816 146.487 267.453Z"
        fill="#2F2E41" />
    <path
        d="M87.1765 76.8535L68.0342 78.1931L55.6618 90.1852L51.3288 90.961C47.4339 91.6575 43.9292 93.7635 41.4794 96.8796C39.0295 99.9956 37.8048 103.905 38.0375 107.867C38.9288 123.013 40.9244 145.645 45.0954 152.988C51.5629 164.373 56.905 160.801 51.5629 164.373C46.2209 167.946 42.6344 165.139 45.0954 170.784C47.5564 176.43 41.7692 183.671 41.7692 183.671L39.4654 185.982L41.9089 186.986L119.766 197.148C119.766 197.148 113.034 166.787 117.244 159.329C121.455 151.87 131.663 129.326 122.552 120.504L113.644 89.061L98.3214 84.528L87.1765 76.8535Z"
        fill="url(#paint0_linear_12079_66364)" />
    <path
        d="M203.054 201.465C201.773 201.425 200.516 201.105 199.37 200.529C198.224 199.953 197.217 199.135 196.417 198.13C195.618 197.125 195.046 195.958 194.74 194.709C194.435 193.461 194.403 192.16 194.648 190.898L158.127 166.089L162.484 154.27L205.646 184.054C207.734 184.625 209.539 185.944 210.721 187.762C211.903 189.579 212.38 191.768 212.06 193.915C211.741 196.061 210.647 198.015 208.988 199.407C207.328 200.798 205.217 201.531 203.054 201.465Z"
        fill="#FFB6B6" />
    <path
        d="M99.898 87.5779L94.5911 89.6857L122.901 145.145L181.506 185.215L189.954 170.893L145.343 132.242L127.483 97.8844C124.969 93.0491 120.759 89.3197 115.664 87.4162C110.57 85.5128 104.953 85.5704 99.898 87.5779Z"
        fill="#79010E" />
    <path
        d="M76.6085 71.9766C87.2243 71.9766 95.8301 63.3445 95.8301 52.6963C95.8301 42.0481 87.2243 33.416 76.6085 33.416C65.9928 33.416 57.387 42.0481 57.387 52.6963C57.387 63.3445 65.9928 71.9766 76.6085 71.9766Z"
        fill="#FFB6B6" />
    <path
        d="M93.3235 44.5419C93.003 44.7116 92.6869 44.8679 92.3664 45.0242C92.0325 45.1849 91.6986 45.3457 91.3603 45.4975C84.9276 48.4223 79.6879 48.7483 76.5094 44.5419C76.4225 42.329 75.9258 40.1516 75.0448 38.1208C75.2005 40.3902 74.6042 42.6476 73.3487 44.5419H66.9472C60.3542 48.9313 56.9709 52.9635 61.5473 67.373C61.8455 68.3196 63.8889 101.952 64.472 104.538C54.4913 100.697 45.8817 59.9249 45.6636 49.1814C45.6502 49.0072 45.6502 48.8242 45.6502 48.6455C45.6476 47.7849 45.6922 46.9248 45.7838 46.0691C45.9013 44.9008 46.1036 43.7427 46.3892 42.604L46.3625 42.5995C45.347 41.6257 44.5723 40.4275 44.1001 39.1003C43.6279 37.7731 43.4712 36.3536 43.6425 34.9549C45.3168 32.756 47.3888 30.8928 49.7503 29.4626C51.8975 28.4197 54.1357 27.5766 56.4367 26.9442C56.4946 26.9308 56.5436 26.9174 56.6014 26.904C57.3048 26.712 58.026 26.5379 58.7471 26.386C60.2333 26.0734 61.736 25.8453 63.2478 25.7029C63.3591 25.6984 63.4659 25.6895 63.5639 25.6895C64.1686 25.6899 64.7621 25.8533 65.2822 26.1628C65.2867 26.1628 65.2867 26.1672 65.2956 26.1672C65.7953 26.4668 66.2098 26.8903 66.4991 27.3971C66.7883 27.9039 66.9426 28.4768 66.9472 29.0607H74.0788C74.3414 29.0607 74.6041 29.0697 74.8667 29.0831C84.7985 29.4805 92.7804 33.7404 93.2923 43.5328C93.3146 43.8722 93.3235 44.2026 93.3235 44.5419Z"
        fill="#2F2E41" />
    <path
        d="M51.1589 45.318C58.1526 45.318 63.8222 39.6311 63.8222 32.616C63.8222 25.6009 58.1526 19.9141 51.1589 19.9141C44.1652 19.9141 38.4956 25.6009 38.4956 32.616C38.4956 39.6311 44.1652 45.318 51.1589 45.318Z"
        fill="#2F2E41" />
    <path
        d="M68.5452 26.741C67.1066 33.6061 60.0087 37.712 53.2184 36.0324C49.9575 35.2259 47.1497 33.153 45.4125 30.2699C43.6753 27.3868 43.1512 23.9295 43.9553 20.6588C45.6297 13.8477 53.8706 15.8112 59.2821 11.3673C66.9374 5.08079 70.4854 17.4829 68.5452 26.741Z"
        fill="#2F2E41" />
    <path
        d="M40.4096 217.839C51.2023 173.692 72.587 135.747 108.003 106.018C109.374 103.756 111.583 102.132 114.145 101.502C116.708 100.872 119.416 101.288 121.674 102.657L205.866 153.861C208.121 155.236 209.74 157.452 210.368 160.022C210.996 162.593 210.582 165.309 209.217 167.573C195.699 212.873 175.452 252.181 141.623 279.394C140.253 281.656 138.044 283.28 135.481 283.91C132.918 284.54 130.211 284.125 127.953 282.755L43.7601 231.551C41.5053 230.177 39.8863 227.961 39.2581 225.39C38.63 222.819 39.0441 220.104 40.4096 217.839Z"
        fill="#F2F2F2" />
    <path opacity="0.2"
        d="M55.374 232.717C53.1192 231.342 51.5001 229.126 50.872 226.556C50.2439 223.985 50.6581 221.269 52.0236 219.005C62.8162 174.858 84.201 136.913 119.617 107.183C120.524 105.703 121.805 104.489 123.33 103.665L121.674 102.657C119.416 101.288 116.708 100.872 114.145 101.502C111.583 102.132 109.374 103.756 108.003 106.018C72.587 135.747 51.2023 173.692 40.4097 217.839C39.0441 220.104 38.63 222.819 39.2581 225.39C39.8862 227.961 41.5053 230.176 43.7601 231.551L127.952 282.755C129.451 283.659 131.161 284.15 132.91 284.178C134.659 284.206 136.383 283.77 137.91 282.913L55.374 232.717Z"
        fill="black" />
    <path
        d="M154.111 208.051L97.5967 173.895C96.6988 173.351 96.053 172.471 95.8011 171.45C95.5492 170.428 95.7118 169.348 96.2532 168.447C96.7947 167.546 97.6706 166.897 98.6886 166.643C99.7067 166.389 100.784 166.551 101.683 167.092L158.197 201.248C159.092 201.793 159.736 202.673 159.987 203.693C160.237 204.714 160.074 205.792 159.534 206.692C158.993 207.592 158.118 208.241 157.102 208.495C156.085 208.75 155.01 208.59 154.111 208.051Z"
        fill="white" />
    <path
        d="M121.234 162.756L108.801 155.242C107.9 154.701 107.25 153.824 106.994 152.802C106.738 151.781 106.898 150.699 107.437 149.796C107.976 148.892 108.85 148.24 109.869 147.983C110.887 147.726 111.965 147.886 112.866 148.427L112.888 148.44L125.321 155.954C126.217 156.499 126.86 157.378 127.111 158.399C127.362 159.419 127.199 160.498 126.658 161.398C126.117 162.298 125.243 162.947 124.226 163.202C123.209 163.456 122.134 163.296 121.234 162.756Z"
        fill="white" />
    <path
        d="M145.128 223.003L88.6145 188.847C87.7156 188.304 87.0684 187.426 86.8151 186.404C86.5618 185.383 86.7231 184.302 87.2635 183.4C87.804 182.498 88.6794 181.848 89.6974 181.593C90.7154 181.338 91.7927 181.499 92.6926 182.04L92.7006 182.045L149.215 216.2C150.11 216.746 150.754 217.625 151.004 218.645C151.255 219.666 151.092 220.744 150.551 221.644C150.011 222.545 149.136 223.193 148.12 223.448C147.103 223.702 146.028 223.542 145.128 223.003Z"
        fill="white" />
    <path
        d="M161.287 143.649C170.403 143.649 177.793 136.236 177.793 127.092C177.793 117.948 170.403 110.535 161.287 110.535C152.17 110.535 144.78 117.948 144.78 127.092C144.78 136.236 152.17 143.649 161.287 143.649Z"
        fill="#3F3D56" />
    <path
        d="M132.834 304.507C152.319 304.507 168.114 288.663 168.114 269.119C168.114 249.574 152.319 233.73 132.834 233.73C113.349 233.73 97.5535 249.574 97.5535 269.119C97.5535 288.663 113.349 304.507 132.834 304.507Z"
        fill="white" />
    <path
        d="M132.833 305C125.758 305 118.842 302.895 112.959 298.953C107.076 295.01 102.491 289.406 99.7838 282.849C97.0763 276.293 96.3679 269.078 97.7481 262.118C99.1284 255.158 102.535 248.764 107.538 243.746C112.541 238.728 118.915 235.31 125.854 233.926C132.793 232.541 139.986 233.252 146.523 235.968C153.059 238.683 158.646 243.282 162.577 249.183C166.508 255.084 168.606 262.021 168.606 269.118C168.595 278.631 164.823 287.751 158.116 294.478C151.41 301.205 142.317 304.989 132.833 305ZM132.833 234.224C125.953 234.224 119.227 236.27 113.506 240.104C107.785 243.939 103.326 249.388 100.693 255.765C98.0602 262.141 97.3713 269.157 98.7136 275.926C100.056 282.695 103.369 288.912 108.234 293.792C113.1 298.672 119.298 301.996 126.047 303.342C132.795 304.688 139.79 303.997 146.146 301.356C152.503 298.715 157.936 294.243 161.759 288.504C165.581 282.766 167.621 276.019 167.621 269.118C167.611 259.866 163.942 250.997 157.421 244.455C150.899 237.914 142.056 234.234 132.833 234.224Z"
        fill="#3F3D56" />
    <path
        d="M128.021 287.536C127.412 287.536 126.811 287.393 126.266 287.12C125.721 286.846 125.247 286.45 124.882 285.961L115.257 273.088C114.947 272.674 114.722 272.204 114.594 271.703C114.465 271.202 114.437 270.68 114.509 270.168C114.582 269.656 114.755 269.164 115.017 268.719C115.28 268.273 115.628 267.885 116.04 267.574C116.453 267.264 116.922 267.038 117.422 266.91C117.921 266.782 118.441 266.754 118.951 266.827C119.462 266.9 119.953 267.074 120.396 267.338C120.84 267.602 121.227 267.95 121.536 268.364L127.833 276.785L144.006 252.452C144.292 252.022 144.66 251.653 145.088 251.365C145.516 251.077 145.997 250.877 146.502 250.776C147.007 250.674 147.528 250.674 148.033 250.774C148.539 250.874 149.02 251.074 149.449 251.36C149.877 251.647 150.246 252.016 150.532 252.445C150.819 252.875 151.019 253.357 151.12 253.864C151.221 254.371 151.222 254.893 151.122 255.4C151.022 255.907 150.823 256.389 150.537 256.819L131.287 285.782C130.939 286.306 130.47 286.739 129.921 287.044C129.372 287.348 128.758 287.517 128.131 287.534C128.094 287.535 128.058 287.536 128.021 287.536Z"
        fill="#87B300" />
    <path
        d="M181.648 16.6417C181.889 15.6899 180.978 14.6373 179.614 14.2906C178.25 13.9439 176.949 14.4344 176.709 15.3861C176.468 16.3378 177.379 17.3904 178.743 17.7371C180.107 18.0839 181.408 17.5934 181.648 16.6417Z"
        fill="white" />
    <path
        d="M45.6593 218.305C44.4013 217.788 43.2703 217.003 42.3445 216.004C41.4187 215.005 40.7202 213.817 40.2973 212.521C39.8745 211.225 39.7373 209.852 39.8953 208.498C40.0533 207.144 40.5028 205.84 41.2125 204.677L14.092 166.437L22.7925 156.312L54.6728 201.966C56.5357 203.31 57.8423 205.293 58.3452 207.539C58.848 209.784 58.512 212.137 57.401 214.151C56.29 216.165 54.481 217.7 52.317 218.466C50.1529 219.231 47.784 219.174 45.6593 218.305Z"
        fill="#FFB6B6" />
    <path
        d="M46.2819 97.1265C44.9098 96.3168 43.2949 96.0241 41.7271 96.3009C40.1593 96.5778 38.7412 97.4061 37.7273 98.6372L1.08398 150.041L35.0428 198.42L48.3311 184.104L27.6605 151.522L55.1318 125.287C57.3893 120.326 57.7342 114.702 56.0997 109.501C54.4652 104.301 50.9674 99.8918 46.2819 97.1265Z"
        fill="#AD0014" />
    <defs>
        <linearGradient id="paint0_linear_12079_66364" x1="38.0095" y1="76.8535" x2="131.943" y2="81.5006"
            gradientUnits="userSpaceOnUse">
            <stop stop-color="#C00016" />
            <stop offset="1" stop-color="#5A000A" />
        </linearGradient>
    </defs>
</svg>
