<svg width="281" height="291" viewBox="0 0 281 291" fill="none" xmlns="http://www.w3.org/2000/svg">
    <g clip-path="url(#clip0_12079_66539)">
        <path
            d="M137.599 290.975C213.593 290.975 275.198 288.789 275.198 286.091C275.198 283.394 213.593 281.207 137.599 281.207C61.6052 281.207 0 283.394 0 286.091C0 288.789 61.6052 290.975 137.599 290.975Z"
            fill="#E0E0E0" />
        <path
            d="M101.425 8.86713C110.191 1.08711 123.951 -0.498498 136.476 0.121248C175.816 2.06785 211.329 20.9836 242.047 42.3795C253.167 50.1251 264.116 58.4725 271.334 69.1389C286.028 90.8523 281.669 120.932 261.237 138.82C254.285 144.906 245.857 149.572 237.206 153.708C221.823 161.061 205.225 166.965 187.765 168.645C175.315 169.843 162.711 168.869 150.333 167.197C115.751 162.526 81.8056 152.197 53.3547 134.526C40.8762 126.775 29.1146 117.139 23.9712 104.601C18.8278 92.0624 22.1195 76.1736 34.8613 68.752C40.1311 65.6825 46.4319 64.2962 52.6007 62.9945C61.6807 61.0784 70.9064 59.1896 79.1005 55.2942C87.5638 51.2709 97.5854 43.4904 95.9096 34.585C94.1116 25.0298 92.669 16.638 101.425 8.86713Z"
            fill="white" />
        <path
            d="M141.984 269.518V277.158C141.984 277.158 139.675 279.786 137.2 280.526C134.726 281.265 135.221 283.237 135.221 283.237L134.478 286.44C134.478 286.44 131.344 289.233 129.117 290.137C126.89 291.041 123.096 290.301 120.126 288.001C118.872 287.032 119.367 284.965 120.499 282.757C121.973 280.068 123.789 277.579 125.9 275.35C126.985 274.269 127.583 272.035 127.899 270.32C128.134 269.035 128.209 268.039 128.209 268.039L141.984 269.518Z"
            fill="#4C495A" />
        <path opacity="0.1"
            d="M141.984 275.221V277.159C141.984 277.159 139.675 279.788 137.2 280.528C134.726 281.267 135.221 283.238 135.221 283.238L134.478 286.442C134.478 286.442 131.344 289.235 129.117 290.139C126.89 291.043 123.096 290.303 120.126 288.003C118.872 287.034 119.367 284.967 120.499 282.759C120.446 285.079 121.136 287.684 124.498 287.592C128.126 287.478 131.623 286.211 134.478 283.978C134.478 283.978 134.396 278.556 138.19 277.324C139.577 276.868 140.864 276.154 141.984 275.221Z"
            fill="black" />
        <path
            d="M172.173 289.069C166.07 290.301 163.76 284.551 163.76 284.551C163.76 284.551 164.502 280.033 162.688 278.718C161.566 277.885 160.637 276.82 159.966 275.596V268.039L167.389 262.781L171.408 266.324L171.678 266.56C171.678 266.56 173.246 271.735 175.143 274.21C176.347 275.78 177.353 278.965 178.01 281.603C178.389 283.121 178.653 284.459 178.772 285.208C179.102 287.262 178.277 287.837 172.173 289.069Z"
            fill="#4C495A" />
        <path opacity="0.1"
            d="M172.173 289.07C166.07 290.302 163.76 284.552 163.76 284.552C163.76 284.552 164.502 280.034 162.688 278.719C161.566 277.886 160.637 276.821 159.966 275.598V272.67C161.144 273.909 163.364 276.307 163.843 277.323C164.502 278.719 164.585 283.813 167.637 284.716C170.689 285.62 176.628 286.441 177.122 284.141C177.328 283.267 177.626 282.417 178.01 281.604C178.389 283.123 178.653 284.46 178.772 285.209C179.102 287.263 178.277 287.838 172.173 289.07Z"
            fill="black" />
        <path opacity="0.1"
            d="M128.21 268.039L141.984 269.518V273.556C140.43 274.473 138.203 275.446 136.953 274.447C135.105 272.975 129.612 271.105 127.899 270.32C128.134 269.035 128.21 268.039 128.21 268.039Z"
            fill="black" />
        <path opacity="0.1"
            d="M171.678 267.217C169.781 266.56 166.4 269.435 161.945 271.243C161.326 271.533 160.65 271.683 159.966 271.683V268.039L167.389 262.781L171.408 266.324C171.47 266.629 171.561 266.928 171.678 267.217Z"
            fill="black" />
        <path
            d="M176.545 176.772C176.545 176.772 176.284 177.982 175.911 179.736C175.064 183.729 173.638 190.554 173.411 192.381C173.081 195.009 172.008 200.103 172.008 200.103C169.534 203.964 170.936 209.057 170.936 209.057C171.438 210.229 171.496 211.542 171.101 212.754C170.441 214.807 170.689 214.889 170.689 214.889C170.689 214.889 172.998 217.436 171.926 219.243C170.854 221.051 173.411 224.09 173.411 224.09L172.833 242.492L173.411 255.142C173.411 255.142 171.513 257.853 172.163 259.168C172.813 260.482 172.091 262.618 172.091 262.618C172.091 262.618 172.421 263.686 171.678 264.261C170.936 264.836 171.678 266.561 171.678 266.561C169.781 265.904 166.399 268.779 161.945 270.586C157.491 272.394 158.976 268.122 158.976 268.122C158.976 268.122 155.512 263.85 156.254 263.357C156.996 262.864 158.234 255.882 158.234 255.882C154.769 251.117 156.254 243.231 156.254 243.231L156.765 224.836C156.765 224.836 156.089 221.872 156.666 220.558C157.244 219.243 155.099 217.19 155.099 217.19C155.099 217.19 155.677 214.725 155.099 213.822C154.522 212.918 154.357 210.453 154.357 210.453C154.357 210.453 152.955 202.731 152.955 200.596C152.955 198.46 151.057 191.559 151.057 191.559C151.717 185.644 150.068 184.166 150.068 184.166C146.273 185.973 148.83 192.874 148.83 195.749C148.83 198.624 147.181 203.06 147.181 203.06C147.181 203.06 146.438 213.493 145.531 215.465C144.624 217.436 144.129 221.708 144.129 221.708C144.129 221.708 145.614 225.158 144.921 226.883C144.228 228.608 144.921 236.166 144.921 236.166C144.921 236.166 144.376 247.256 142.892 250.871C141.407 254.485 143.139 257.032 144.231 258.757C145.32 260.482 145.119 262.454 143.634 263.357C142.149 264.261 142.562 264.754 143.716 266.15C144.871 267.547 143.716 271.737 143.716 271.737C143.716 271.737 139.015 275.433 136.953 273.79C134.891 272.147 128.292 270.011 127.467 269.436C126.642 268.861 126.89 267.218 128.127 265.904C129.364 264.59 128.704 264.425 128.704 264.425C125.405 263.44 127.467 260.4 127.467 260.4C127.467 260.4 130.849 256.785 129.447 254.814C128.045 252.842 128.045 247.092 128.952 245.942C129.859 244.792 128.787 241.506 128.787 241.506L126.817 225.487C126.817 225.487 126.725 222.119 127.797 221.708C128.869 221.297 129.694 220.311 128.869 218.586C128.045 216.861 129.777 213 129.777 213C130.767 211.686 129.034 206.017 126.972 202.896C124.91 199.774 126.147 190.656 126.147 190.656C126.147 190.656 124.58 188.438 124.58 187.37C124.565 186.684 124.396 186.01 124.085 185.398C123.373 184.271 123.511 181.721 123.821 179.487C124.122 177.324 124.58 175.458 124.58 175.458L176.545 176.772Z"
            fill="#5F5D7E" />
        <path
            d="M160.378 83.6965L144.129 87.4753C144.129 87.4753 136.128 80.7391 138.108 77.1246C138.788 75.8825 139.088 73.763 139.19 71.522C139.269 69.7706 139.226 67.9403 139.15 66.3926C139.035 64.1549 138.85 62.5021 138.85 62.5021C138.85 62.5021 155.512 53.1371 154.935 62.5021C154.817 64.0616 154.854 65.6288 155.043 67.1812C155.161 68.2858 155.485 69.3589 155.997 70.3456C156.888 71.9262 157.986 71.9492 157.986 71.9492L160.378 83.6965Z"
            fill="#F8DFE5" />
        <path opacity="0.1"
            d="M155.043 67.1813C152.695 68.8589 149.845 69.6943 146.959 69.5511C144.072 69.4079 141.32 68.2945 139.15 66.3926C139.035 64.1549 138.85 62.5021 138.85 62.5021C138.85 62.5021 155.512 53.1371 154.934 62.5021C154.817 64.0616 154.853 65.6288 155.043 67.1813Z"
            fill="black" />
        <path
            d="M147.593 69.2396C154.654 69.2396 160.378 63.5388 160.378 56.5065C160.378 49.4742 154.654 43.7734 147.593 43.7734C140.532 43.7734 134.808 49.4742 134.808 56.5065C134.808 63.5388 140.532 69.2396 147.593 69.2396Z"
            fill="#F8DFE5" />
        <path opacity="0.1"
            d="M160.378 83.6965L144.129 87.4754C144.129 87.4754 136.128 80.7392 138.108 77.1246C138.788 75.8825 139.088 73.7631 139.19 71.5221C139.549 73.4708 140.599 75.226 142.15 76.4674C145.861 78.9319 145.284 81.9714 145.284 81.9714L151.965 81.725C151.553 79.0141 154.027 77.5354 154.852 77.2068C155.677 76.8782 155.264 75.3995 155.264 75.3995L155.997 70.3457C156.888 71.9262 157.986 71.9492 157.986 71.9492L160.378 83.6965Z"
            fill="black" />
        <path opacity="0.1"
            d="M176.545 176.772C176.545 176.772 176.284 177.982 175.911 179.736C174.117 179.641 171.744 179.572 170.688 179.812C168.874 180.223 161.615 180.387 161.615 180.387L143.634 181.021V180.469C141.565 180.486 139.5 180.623 137.448 180.88C134.396 181.291 129.612 180.716 126.56 180.223C125.62 180.089 124.701 179.841 123.821 179.487C124.122 177.324 124.58 175.458 124.58 175.458L176.545 176.772Z"
            fill="black" />
        <path
            d="M175.143 124.608C174.882 126.142 175.074 128.685 175.404 131.196C175.902 135.004 176.71 138.737 176.71 138.737C176.71 138.737 180.092 160.096 178.195 162.889C176.298 165.682 178.195 179.237 178.195 179.237C178.195 179.237 172.503 178.744 170.689 179.154C168.874 179.565 161.616 179.729 161.616 179.729L143.634 180.364V179.812C141.566 179.828 139.5 179.965 137.448 180.222C134.396 180.633 129.612 180.058 126.56 179.565C123.508 179.072 122.271 178.086 122.601 177.594C122.931 177.101 122.271 163.628 122.271 163.628L122.188 152.702C122.188 152.702 122.106 144.98 124.003 143.255C124.778 142.552 125.415 139.953 125.9 137.127C126.596 133.036 126.972 128.469 126.972 128.469L114.435 95.0339L114.188 94.3767C114.188 94.3767 117.817 88.7906 117.239 86.0797C116.662 83.3688 120.621 80.9864 120.621 80.9864C120.621 80.9864 128.127 77.7005 128.622 76.7147C129.117 75.7289 134.313 75.4825 134.313 75.4825C134.313 75.4825 137.283 73.9216 137.794 72.9096C137.919 72.6269 138.109 72.3777 138.35 72.1829C138.59 71.988 138.873 71.853 139.177 71.7891C139.526 73.7617 140.582 75.541 142.149 76.7969C145.861 79.2613 145.284 82.3008 145.284 82.3008L151.965 82.0544C151.553 79.3435 154.027 77.8648 154.852 77.5362C155.677 77.2076 155.264 75.7289 155.264 75.7289L156.036 70.409C156.393 69.525 158.894 72.9096 158.894 72.9096C158.894 72.9096 165.245 75.0717 165.657 75.236C166.07 75.4003 171.431 77.0433 171.431 77.0433C171.431 77.0433 178.03 81.3151 178.03 82.383C178.03 83.4509 181.659 89.2013 181.659 89.2013C181.659 89.2013 181.616 89.4314 181.537 89.852C180.699 94.38 175.747 121.075 175.143 124.608Z"
            fill="url(#paint0_linear_12079_66539)" />
        <path
            d="M148.748 111.298C148.748 111.298 134.478 107.519 133.076 106.616C131.674 105.712 123.425 110.97 133.488 118.117C133.488 118.117 145.793 120.663 149.085 118.117C152.377 115.57 148.748 111.298 148.748 111.298Z"
            fill="#F8DFE5" />
        <path opacity="0.1"
            d="M179.597 88.791L181.329 88.8732L186.443 102.51C186.443 102.51 189.495 109.657 190.072 110.807C190.649 111.957 190.402 116.722 190.072 118.118C189.742 119.515 187.598 125.676 187.515 127.237C187.433 128.798 183.556 130.358 179.597 130.112C175.637 129.865 166.399 131.098 166.399 131.098C166.399 131.098 156.533 130.071 150.48 133.151C150.48 133.151 146.603 125.183 147.016 110.314C147.016 110.314 153.862 109.903 155.594 110.56C157.326 111.218 165.739 113.107 166.812 112.121C167.884 111.136 172.75 113.929 172.75 113.929C172.998 113.387 173.126 112.799 173.126 112.203C173.126 111.608 172.998 111.02 172.75 110.478C171.926 108.507 170.523 102.346 172.338 100.374C174.153 98.4024 179.597 88.791 179.597 88.791Z"
            fill="black" />
        <path opacity="0.1"
            d="M175.403 131.196C171.309 131.472 166.729 132.083 166.729 132.083C166.729 132.083 156.864 131.055 150.81 134.137C150.81 134.137 146.933 126.168 147.346 111.299C147.346 111.299 154.192 110.889 155.924 111.546C157.656 112.203 166.069 114.092 167.142 113.107C168.214 112.121 173.081 114.914 173.081 114.914C173.328 114.372 173.456 113.784 173.456 113.189C173.456 112.594 173.328 112.005 173.081 111.464C172.256 109.492 170.853 103.331 172.668 101.359C174.483 99.3878 179.927 89.7764 179.927 89.7764L181.537 89.8519C180.699 94.38 175.746 121.075 175.143 124.607C174.882 126.142 175.073 128.685 175.403 131.196Z"
            fill="black" />
        <path
            d="M179.927 89.1201L181.659 89.2023L186.773 102.839C186.773 102.839 189.825 109.986 190.402 111.136C190.979 112.286 190.732 117.051 190.402 118.447C190.072 119.844 187.928 126.005 187.845 127.566C187.763 129.127 183.886 130.687 179.927 130.441C175.967 130.195 166.729 131.427 166.729 131.427C166.729 131.427 156.863 130.4 150.81 133.481C150.81 133.481 146.933 125.512 147.346 110.643C147.346 110.643 154.192 110.232 155.924 110.89C157.656 111.547 166.069 113.436 167.142 112.45C168.214 111.465 173.081 114.258 173.081 114.258C173.328 113.716 173.456 113.128 173.456 112.533C173.456 111.937 173.328 111.349 173.081 110.807C172.256 108.836 170.853 102.675 172.668 100.703C174.483 98.7315 179.927 89.1201 179.927 89.1201Z"
            fill="url(#paint1_linear_12079_66539)" />
        <path d="M162.5 119.293L164.559 120.562L176.028 102.114L173.97 100.845L162.5 119.293Z" fill="#DFE6F5" />
        <path
            d="M181.909 99.6168C183.936 96.3564 183.718 92.5655 181.422 91.1496C179.126 89.7337 175.621 91.2289 173.594 94.4892C171.567 97.7496 171.785 101.54 174.081 102.956C176.377 104.372 179.882 102.877 181.909 99.6168Z"
            fill="#DFE6F5" />
        <path opacity="0.1"
            d="M180.736 98.8923C182.191 96.5521 182.034 93.831 180.386 92.8146C178.738 91.7983 176.222 92.8715 174.767 95.2118C173.312 97.5521 173.469 100.273 175.117 101.289C176.765 102.306 179.281 101.233 180.736 98.8923Z"
            fill="black" />
        <path d="M156.638 128.724L158.696 129.993L165.833 118.514L163.775 117.245L156.638 128.724Z" fill="#53526B" />
        <path
            d="M144.541 129.535L149.573 128.138C149.573 128.138 174.4 128.796 166.07 118.609C166.07 118.609 161.698 114.42 152.542 117.788C143.387 121.156 140.83 121.566 140.83 121.566L144.541 129.535Z"
            fill="#F8DFE5" />
        <path opacity="0.1"
            d="M140.83 86.5712C141.376 86.5712 141.819 86.1298 141.819 85.5854C141.819 85.041 141.376 84.5996 140.83 84.5996C140.283 84.5996 139.84 85.041 139.84 85.5854C139.84 86.1298 140.283 86.5712 140.83 86.5712Z"
            fill="black" />
        <path opacity="0.1"
            d="M157.821 85.9979C158.368 85.9979 158.811 85.5566 158.811 85.0122C158.811 84.4677 158.368 84.0264 157.821 84.0264C157.275 84.0264 156.832 84.4677 156.832 85.0122C156.832 85.5566 157.275 85.9979 157.821 85.9979Z"
            fill="black" />
        <path
            d="M140.83 86.2431C141.376 86.2431 141.819 85.8017 141.819 85.2573C141.819 84.7128 141.376 84.2715 140.83 84.2715C140.283 84.2715 139.84 84.7128 139.84 85.2573C139.84 85.8017 140.283 86.2431 140.83 86.2431Z"
            fill="white" />
        <path opacity="0.1"
            d="M142.232 100.21C142.778 100.21 143.221 99.7685 143.221 99.2241C143.221 98.6796 142.778 98.2383 142.232 98.2383C141.685 98.2383 141.242 98.6796 141.242 99.2241C141.242 99.7685 141.685 100.21 142.232 100.21Z"
            fill="black" />
        <path opacity="0.1"
            d="M158.316 99.2235C158.863 99.2235 159.306 98.7822 159.306 98.2377C159.306 97.6933 158.863 97.252 158.316 97.252C157.769 97.252 157.326 97.6933 157.326 98.2377C157.326 98.7822 157.769 99.2235 158.316 99.2235Z"
            fill="black" />
        <path
            d="M142.232 99.8817C142.778 99.8817 143.221 99.4404 143.221 98.8959C143.221 98.3515 142.778 97.9102 142.232 97.9102C141.685 97.9102 141.242 98.3515 141.242 98.8959C141.242 99.4404 141.685 99.8817 142.232 99.8817Z"
            fill="white" />
        <path opacity="0.1"
            d="M157.903 146.793C158.45 146.793 158.893 146.352 158.893 145.807C158.893 145.263 158.45 144.821 157.903 144.821C157.357 144.821 156.914 145.263 156.914 145.807C156.914 146.352 157.357 146.793 157.903 146.793Z"
            fill="black" />
        <path opacity="0.1"
            d="M144.877 146.793C145.424 146.793 145.867 146.352 145.867 145.807C145.867 145.263 145.424 144.821 144.877 144.821C144.33 144.821 143.887 145.263 143.887 145.807C143.887 146.352 144.33 146.793 144.877 146.793Z"
            fill="black" />
        <path
            d="M157.903 146.464C158.45 146.464 158.893 146.022 158.893 145.478C158.893 144.934 158.45 144.492 157.903 144.492C157.357 144.492 156.914 144.934 156.914 145.478C156.914 146.022 157.357 146.464 157.903 146.464Z"
            fill="white" />
        <path opacity="0.1"
            d="M145.867 163.3C146.413 163.3 146.857 162.858 146.857 162.314C146.857 161.769 146.413 161.328 145.867 161.328C145.32 161.328 144.877 161.769 144.877 162.314C144.877 162.858 145.32 163.3 145.867 163.3Z"
            fill="black" />
        <path opacity="0.1"
            d="M158.316 162.313C158.863 162.313 159.306 161.872 159.306 161.328C159.306 160.783 158.863 160.342 158.316 160.342C157.769 160.342 157.326 160.783 157.326 161.328C157.326 161.872 157.769 162.313 158.316 162.313Z"
            fill="black" />
        <path
            d="M145.867 162.972C146.413 162.972 146.857 162.53 146.857 161.986C146.857 161.441 146.413 161 145.867 161C145.32 161 144.877 161.441 144.877 161.986C144.877 162.53 145.32 162.972 145.867 162.972Z"
            fill="white" />
        <path
            d="M144.877 146.464C145.424 146.464 145.867 146.022 145.867 145.478C145.867 144.934 145.424 144.492 144.877 144.492C144.33 144.492 143.887 144.934 143.887 145.478C143.887 146.022 144.33 146.464 144.877 146.464Z"
            fill="white" />
        <path
            d="M158.316 161.984C158.863 161.984 159.306 161.543 159.306 160.998C159.306 160.454 158.863 160.013 158.316 160.013C157.769 160.013 157.326 160.454 157.326 160.998C157.326 161.543 157.769 161.984 158.316 161.984Z"
            fill="white" />
        <path
            d="M157.821 85.6688C158.368 85.6688 158.811 85.2275 158.811 84.6831C158.811 84.1386 158.368 83.6973 157.821 83.6973C157.275 83.6973 156.832 84.1386 156.832 84.6831C156.832 85.2275 157.275 85.6688 157.821 85.6688Z"
            fill="white" />
        <path
            d="M158.316 98.8944C158.863 98.8944 159.306 98.4531 159.306 97.9086C159.306 97.3642 158.863 96.9229 158.316 96.9229C157.769 96.9229 157.326 97.3642 157.326 97.9086C157.326 98.4531 157.769 98.8944 158.316 98.8944Z"
            fill="white" />
        <path opacity="0.1"
            d="M159.8 132.494C159.8 132.494 159.965 155.003 160.46 159.028C160.46 159.028 160.64 133.555 159.8 132.494Z"
            fill="black" />
        <path opacity="0.1"
            d="M164.007 142.926C163.667 142.926 170.771 169.296 171.101 171.185C171.431 173.074 165.987 142.926 164.007 142.926Z"
            fill="black" />
        <path opacity="0.1"
            d="M169.616 138.655C169.616 138.902 173.575 152.949 175.555 153.689C177.535 154.428 169.616 138.655 169.616 138.655Z"
            fill="black" />
        <path opacity="0.1"
            d="M185.205 111.3C185.205 111.3 176.792 111.673 176.545 112.883C176.297 114.093 185.205 111.3 185.205 111.3Z"
            fill="black" />
        <path opacity="0.1"
            d="M170.359 218.423C170.359 218.423 164.338 220.969 165.245 221.134C166.152 221.298 170.359 218.423 170.359 218.423Z"
            fill="black" />
        <path opacity="0.1"
            d="M157.903 214.642C157.669 214.116 161.945 216.778 161.945 217.106C161.945 217.435 158.233 215.381 157.903 214.642Z"
            fill="black" />
        <path opacity="0.1"
            d="M163.512 223.267C163.512 223.267 168.214 223.031 168.544 224.833C168.874 226.635 163.512 223.267 163.512 223.267Z"
            fill="black" />
        <path opacity="0.1"
            d="M129.694 223.258C129.694 223.258 134.808 222.262 135.221 223.258C135.633 224.254 129.694 223.258 129.694 223.258Z"
            fill="black" />
        <path opacity="0.1"
            d="M131.591 254.239C131.591 254.239 131.927 258.429 130.687 259.415C129.447 260.4 131.591 254.239 131.591 254.239Z"
            fill="black" />
        <path opacity="0.1"
            d="M130.967 263.113C132.581 263.277 141.077 261.798 140.995 263.113C140.912 264.427 130.967 263.113 130.967 263.113Z"
            fill="black" />
        <path opacity="0.1" d="M169.946 258.018C169.946 258.018 167.049 257.575 167.755 259.521L169.946 258.018Z"
            fill="black" />
        <path opacity="0.1"
            d="M116.084 94.0488H114.517L112.125 102.757C112.125 102.757 111.3 105.796 110.476 106.535C109.651 107.275 111.218 114.011 111.218 114.011C111.218 114.011 110.311 118.776 109.568 120.008C108.826 121.24 110.723 124.28 110.723 124.28L114.517 133.152L124.58 135.78C124.58 135.78 142.314 139.641 143.139 140.217C143.964 140.792 144.706 139.97 145.284 134.63C145.861 129.291 147.428 118.94 148.665 118.447C148.665 118.447 138.767 119.515 137.943 119.351C137.118 119.186 133.159 119.433 133.159 119.433C133.159 119.433 127.962 119.104 127.137 119.597C126.312 120.09 128.21 117.211 128.21 117.211C128.557 115.893 128.557 114.508 128.21 113.19C127.632 110.971 127.302 85.8339 116.084 94.0488Z"
            fill="black" />
        <path opacity="0.1"
            d="M148.335 119.433C147.098 119.926 145.531 130.277 144.953 135.617C144.376 140.956 143.634 141.778 142.809 141.203C142.139 140.736 130.318 138.101 125.9 137.128C126.596 133.037 126.972 128.47 126.972 128.47L114.435 95.0352H115.754C126.972 86.8203 127.302 111.958 127.879 114.176C128.227 115.494 128.227 116.879 127.879 118.198C127.879 118.198 125.982 121.076 126.807 120.583C127.632 120.091 132.828 120.419 132.828 120.419C132.828 120.419 136.788 120.173 137.612 120.337C138.437 120.501 148.335 119.433 148.335 119.433Z"
            fill="black" />
        <path
            d="M115.754 94.377H114.187L111.795 103.085C111.795 103.085 110.97 106.124 110.146 106.864C109.321 107.603 110.888 114.339 110.888 114.339C110.888 114.339 109.981 119.104 109.238 120.336C108.496 121.568 110.393 124.608 110.393 124.608L114.187 133.48L124.25 136.109C124.25 136.109 141.984 139.97 142.809 140.545C143.634 141.12 144.376 140.298 144.954 134.959C145.531 129.619 147.098 119.268 148.335 118.775C148.335 118.775 138.437 119.843 137.613 119.679C136.788 119.515 132.828 119.761 132.828 119.761C132.828 119.761 127.632 119.432 126.807 119.925C125.982 120.418 127.879 117.539 127.879 117.539C128.227 116.221 128.227 114.836 127.879 113.518C127.302 111.3 126.972 86.1621 115.754 94.377Z"
            fill="#B30014" />
        <path opacity="0.1"
            d="M121.116 124.115C121.116 124.115 116.579 132.659 115.754 131.673C114.93 130.687 121.116 124.115 121.116 124.115Z"
            fill="black" />
        <path opacity="0.1"
            d="M116.414 119.249C116.414 119.249 112.207 122.718 114.187 123.621C116.167 124.525 116.414 119.249 116.414 119.249Z"
            fill="black" />
        <path opacity="0.1"
            d="M120.374 114.997C120.703 115.079 126.477 116.221 126.56 116.718C126.642 117.215 120.374 114.997 120.374 114.997Z"
            fill="black" />
        <path opacity="0.1"
            d="M160.415 54.8181C160.235 54.881 160.082 55.0019 159.98 55.1615C159.878 55.3211 159.832 55.5103 159.851 55.6987C159.514 55.9945 159.042 55.6462 158.768 55.2683C158.491 54.8937 158.178 54.4304 157.759 54.4829C157.56 54.5462 157.367 54.6264 157.181 54.7228C156.522 54.9331 155.964 54.1609 155.594 53.484C154.951 52.2978 154.308 51.1127 153.664 49.9286C152.374 50.6745 150.85 49.8925 149.57 49.1203C148.29 48.348 146.765 47.5627 145.472 48.3086C143.575 49.3996 143.506 53.0371 141.539 53.9342C140.906 54.2234 140.17 54.1609 139.583 54.5585C139.002 54.9528 138.689 55.7119 138.428 56.4381C138.332 56.8515 138.105 57.2234 137.781 57.4994C137.576 57.6065 137.347 57.6618 137.115 57.6605C136.532 57.7591 135.932 57.6753 135.399 57.4206C135.12 57.2457 134.908 56.981 134.8 56.6703C134.692 56.3596 134.694 56.0215 134.805 55.7119C134.821 55.6791 134.839 55.6473 134.858 55.6166C135.069 55.3621 135.259 55.0907 135.426 54.805C135.624 54.2825 135.34 53.6746 135.402 53.1094C135.505 52.1433 136.531 51.634 136.706 50.6844C136.778 50.3131 136.702 49.9155 136.772 49.5409C136.781 49.4918 136.795 49.4435 136.811 49.3963L136.208 49.8103C136.884 49.025 137.224 47.934 137.719 46.9811C138.268 45.9377 139.025 45.0163 139.943 44.2724C140.86 43.5286 141.92 42.9778 143.057 42.6535C145.208 42.0292 147.481 42.2 149.652 42.7291C151.717 43.2413 153.694 44.0528 155.522 45.1377C156.175 45.4864 156.755 45.9559 157.231 46.5211C157.63 47.1071 157.969 47.7312 158.244 48.3842C158.884 49.7052 160.633 50.9275 159.24 51.1115C158.082 51.266 159.138 52.0743 159.745 52.6198C159.882 52.7267 160 52.8555 160.095 53.001C160.196 53.2088 160.242 53.4387 160.229 53.6691C160.216 53.8996 160.145 54.123 160.022 54.3186C159.788 54.6144 160.738 54.6735 160.415 54.8181Z"
            fill="black" />
        <path
            d="M160.414 54.488C160.235 54.5509 160.082 54.6718 159.98 54.8314C159.877 54.9911 159.832 55.1802 159.85 55.3687C159.514 55.6644 159.042 55.3161 158.768 54.9382C158.491 54.5636 158.177 54.1003 157.758 54.1529C157.559 54.2161 157.366 54.2964 157.181 54.3928C156.521 54.603 155.964 53.8309 155.594 53.1539C154.951 51.9677 154.307 50.7826 153.664 49.5985C152.374 50.3445 150.85 49.5624 149.569 48.7902C148.289 48.018 146.765 47.2327 145.472 47.9786C143.575 49.0695 143.505 52.7071 141.539 53.6041C140.905 53.8933 140.17 53.8309 139.582 54.2285C139.002 54.6228 138.688 55.3818 138.427 56.108C138.331 56.5214 138.104 56.8933 137.781 57.1694C137.575 57.2765 137.346 57.3317 137.114 57.3304C136.531 57.4291 135.932 57.3453 135.399 57.0905C135.119 56.9156 134.908 56.6509 134.8 56.3402C134.692 56.0295 134.694 55.6914 134.805 55.3818C134.82 55.349 134.838 55.3172 134.858 55.2865C135.069 55.0321 135.259 54.7606 135.425 54.4749C135.623 53.9524 135.339 53.3445 135.402 52.7794C135.504 51.8133 136.53 51.304 136.705 50.3543C136.778 49.983 136.702 49.5854 136.771 49.2108C136.781 49.1617 136.794 49.1134 136.811 49.0662L136.207 49.4803C136.883 48.6949 137.223 47.604 137.718 46.651C138.268 45.6077 139.024 44.6862 139.942 43.9424C140.86 43.1985 141.919 42.6478 143.056 42.3234C145.208 41.6991 147.481 41.87 149.652 42.399C151.716 42.9112 153.694 43.7228 155.521 44.8076C156.174 45.1563 156.754 45.6258 157.23 46.191C157.629 46.777 157.969 47.4011 158.243 48.0541C158.883 49.3751 160.632 50.5975 159.24 50.7815C158.082 50.9359 159.137 51.7443 159.745 52.2897C159.882 52.3967 160 52.5255 160.094 52.6709C160.195 52.8787 160.241 53.1086 160.229 53.3391C160.216 53.5695 160.145 53.793 160.022 53.9886C159.787 54.2843 160.738 54.3435 160.414 54.488Z"
            fill="#865A61" />
        <path opacity="0.1"
            d="M159.744 52.2898L159.612 53.6731C159.612 53.6731 145.768 36.1984 134.999 55.9306C134.999 55.9306 134.946 55.6907 134.857 55.2865C135.069 55.0321 135.259 54.7606 135.425 54.4749C135.623 53.9524 135.339 53.3445 135.402 52.7794C135.504 51.8133 136.53 51.304 136.705 50.3543C136.778 49.983 136.702 49.5854 136.771 49.2108C136.781 49.1617 136.794 49.1134 136.811 49.0662L136.207 49.4803C136.883 48.6949 137.223 47.604 137.718 46.651C138.268 45.6077 139.024 44.6862 139.942 43.9424C140.859 43.1985 141.919 42.6478 143.056 42.3234C145.207 41.6991 147.481 41.87 149.652 42.399C151.716 42.9112 153.694 43.7228 155.521 44.8076C156.174 45.1563 156.754 45.6258 157.23 46.191C157.629 46.777 157.969 47.4011 158.243 48.0541C158.883 49.3751 160.632 50.5975 159.24 50.7815C158.082 50.9359 159.137 51.7443 159.744 52.2898Z"
            fill="black" />
<g opacity="0.1">
    <path
        d="M160.086 54.3112C160.018 54.3876 159.968 54.4787 159.941 54.5773C159.914 54.676 159.91 54.7795 159.929 54.8799C159.593 55.1757 159.121 54.8274 158.847 54.4495C158.57 54.0749 158.257 53.6116 157.838 53.6641C157.639 53.7274 157.445 53.8076 157.26 53.904C156.6 54.1143 156.043 53.3421 155.673 52.6652C155.03 51.479 154.386 50.2939 153.743 49.1098C152.453 49.8557 150.929 49.0737 149.649 48.3015C148.368 47.5292 146.844 46.7439 145.551 47.4898C143.654 48.5808 143.584 52.2183 141.618 53.1154C140.985 53.4046 140.249 53.3421 139.661 53.7397C139.081 54.134 138.767 54.8931 138.507 55.6193C138.41 56.0327 138.184 56.4046 137.86 56.6806C137.654 56.7877 137.426 56.843 137.194 56.8417C136.611 56.9403 136.011 56.8565 135.478 56.6018C135.158 56.3907 134.929 56.0687 134.835 55.6985C134.769 55.9928 134.796 56.3001 134.911 56.5791C135.026 56.858 135.224 57.0953 135.478 57.259C136.011 57.5137 136.611 57.5975 137.194 57.4989C137.426 57.5002 137.654 57.4449 137.86 57.3378C138.184 57.0617 138.41 56.6899 138.507 56.2765C138.767 55.5503 139.081 54.7912 139.661 54.3969C140.249 53.9993 140.984 54.0617 141.618 53.7726C143.584 52.8755 143.654 49.238 145.551 48.147C146.844 47.4011 148.368 48.1865 149.649 48.9586C150.929 49.7308 152.453 50.5129 153.743 49.767C154.386 50.9499 155.03 52.1351 155.673 53.3224C156.043 53.9993 156.6 54.7715 157.26 54.5612C157.445 54.4648 157.639 54.3846 157.838 54.3213C158.257 54.2688 158.57 54.7321 158.847 55.1067C159.121 55.4846 159.593 55.8329 159.929 55.5371C159.911 55.3487 159.957 55.1595 160.059 54.9999C160.161 54.8402 160.314 54.7194 160.494 54.6565C160.751 54.5415 160.204 54.4802 160.086 54.3112Z"
        fill="black" />
    <path
        d="M159.007 51.0277C159.107 50.9877 159.212 50.9614 159.319 50.9494C159.933 50.8683 159.935 50.5849 159.692 50.1807C159.577 50.2428 159.449 50.2807 159.319 50.2922C158.656 50.3805 158.719 50.683 159.007 51.0277Z"
        fill="black" />
    <path
        d="M160.272 53.7812C160.318 53.5694 160.316 53.35 160.268 53.1387C160.239 53.2697 160.182 53.393 160.101 53.5004C159.998 53.6308 160.125 53.7152 160.272 53.7812Z"
        fill="black" />
    <path
        d="M135.5 52.835C135.493 52.8725 135.485 52.9096 135.481 52.9486C135.467 53.2446 135.489 53.541 135.545 53.8319C135.584 53.4993 135.569 53.1627 135.5 52.835Z"
        fill="black" />
    <path
        d="M136.84 48.8242C136.684 49.1172 136.499 49.3932 136.286 49.6478L136.819 49.2827C136.816 49.1296 136.823 48.9765 136.84 48.8242Z"
        fill="black" />
</g>
        <path
            d="M134.999 55.6016C134.999 55.6016 133.008 46.7382 133.642 45.3167C133.642 45.3167 131.922 41.8047 131.922 40.9685C131.839 39.5732 131.403 38.2214 130.656 37.0385C129.751 35.617 128.755 29.0112 134.185 27.4225C139.614 25.8337 143.777 24.4122 144.41 23.3252C145.044 22.2382 154.364 22.9071 156.898 27.088C159.432 31.2689 161.061 30.4327 161.061 30.4327C161.061 30.4327 164.952 32.8576 164.952 35.0317C164.952 37.2057 163.775 38.2928 164.952 38.7945C166.128 39.2962 165.223 48.3269 160.065 48.5777L159.613 53.3439C159.613 53.3439 145.768 35.8679 134.999 55.6016Z"
            fill="url(#paint2_linear_12079_66539)" />
        <path opacity="0.1" d="M135.592 29.1494C135.592 29.1494 134.396 36.1321 136.581 38.4733L135.592 29.1494Z"
            fill="black" />
        <path opacity="0.1" d="M141.2 27.5488C141.2 27.5488 138.148 35.0244 138.891 36.462L141.2 27.5488Z"
            fill="black" />
        <path opacity="0.1" d="M143.84 25.168C143.84 25.168 141.778 34.9026 142.768 35.683L143.84 25.168Z"
            fill="black" />
        <path opacity="0.1" d="M147.387 27.7959C147.387 27.7959 144.83 34.0392 145.861 34.9018L147.387 27.7959Z"
            fill="black" />
        <path opacity="0.1" d="M152.212 28.5342C152.212 28.5342 149.201 33.6274 149.82 34.5311L152.212 28.5342Z"
            fill="black" />
        <path opacity="0.1" d="M158.399 33.5049C158.399 33.5049 155.182 34.3674 155.842 35.3943L158.399 33.5049Z"
            fill="black" />
        <path opacity="0.1" d="M161.45 38.8027C161.45 38.8027 158.563 40.1993 159.1 40.9386L161.45 38.8027Z"
            fill="black" />
        <path opacity="0.1"
            d="M133.642 45.3176C133.642 45.3176 152.081 37.8581 160.065 48.5787C160.065 48.5787 150.374 40.3723 133.642 45.3176Z"
            fill="black" />
        <path d="M126.978 106.61L129.547 104.021L136.812 111.173L134.242 113.762L127.562 107.185L126.978 106.61Z"
            fill="#53526B" />
        <path d="M110.122 90.0137C110.122 90.0137 121.367 90.9667 131.834 102.7L127.472 107.095L110.122 90.0137Z"
            fill="#DFE6F5" />
        <path
            d="M143.852 110.994C143.852 110.994 133.044 107.07 131.982 106.131C130.92 105.193 124.672 110.653 132.294 118.074C132.294 118.074 141.614 120.719 144.108 118.074C146.601 115.43 143.852 110.994 143.852 110.994Z"
            fill="#F8DFE5" />
</g>
<defs>
    <linearGradient id="paint0_linear_12079_66539" x1="114.188" y1="70.2617" x2="186.088" y2="73.2343"
        gradientUnits="userSpaceOnUse">
        <stop stop-color="#C00016" />
        <stop offset="1" stop-color="#5A000A" />
    </linearGradient>
    <linearGradient id="paint1_linear_12079_66539" x1="147.315" y1="89.1201" x2="193.477" y2="92.1694"
        gradientUnits="userSpaceOnUse">
        <stop stop-color="#C00016" />
        <stop offset="1" stop-color="#5A000A" />
</linearGradient>
    <linearGradient id="paint2_linear_12079_66539" x1="129.942" y1="22.8633" x2="167.602" y2="25.6158"
        gradientUnits="userSpaceOnUse">
        <stop stop-color="#C00016" />
        <stop offset="1" stop-color="#5A000A" />
    </linearGradient>
    <clipPath id="clip0_12079_66539">
        <rect width="280.294" height="291" fill="white" />
</clipPath>
</defs>
</svg>
