<svg width="304" height="235" viewBox="0 0 304 235" fill="none" xmlns="http://www.w3.org/2000/svg">
    <path
        d="M150.931 234.547C67.5742 234.547 0.00012207 230.619 0.00012207 225.773C0.00012207 220.927 67.5742 216.998 150.931 216.998C234.288 216.998 301.862 220.927 301.862 225.773C301.862 230.619 234.288 234.547 150.931 234.547Z"
        fill="#F5F5F5" />
    <path opacity="0.9"
        d="M257.049 102.207C260.575 134.243 300.345 140.189 303.693 173.659C307.328 209.99 278.417 226.616 245.598 227.779C217.263 228.787 199.157 199.719 171.094 194.076C135.597 186.945 110.625 209.129 85.1314 186.86C21.035 130.871 111.847 50.4354 166.992 34.2428C193.233 26.5457 232.66 19.1664 254.363 42.095C275.809 64.7832 254.114 75.5266 257.049 102.207Z"
        fill="#FFF0F2" />
    <path
        d="M28.1169 66.0559C28.1368 64.9381 28.6129 63.8749 29.4385 63.1042C30.2641 62.3333 31.3704 61.9196 32.5096 61.9553L124.699 64.8445C127.045 64.918 128.888 66.8406 128.818 69.1423L124.27 218.888C124.201 221.161 122.291 222.962 119.973 222.939L29.0252 222.662C27.8904 222.652 27.4185 221.612 26.6271 220.815C25.8356 220.017 25.4015 218.942 25.4214 217.83L28.1169 66.0559Z"
        fill="#EEC0C5" />
    <path
        d="M28.1169 66.0559C28.1368 64.9381 28.6129 63.8749 29.4385 63.1042C30.2641 62.3333 31.3704 61.9196 32.5096 61.9553L124.699 64.8445C127.045 64.918 128.888 66.8406 128.818 69.1423L124.27 218.888C124.201 221.161 122.291 222.962 119.973 222.939L29.0252 222.662C27.8904 222.652 27.4185 221.612 26.6271 220.815C25.8356 220.017 25.4015 218.942 25.4214 217.83L28.1169 66.0559Z"
        fill="white" fill-opacity="0.2" />
    <g opacity="0.45">
        <path d="M113.024 79.2493L113.168 75.5018L83.198 74.1855L83.0639 77.9417L113.024 79.2493Z" fill="white" />
        <path d="M112.621 89.7493L112.765 86.0088L82.8219 84.7168L82.6881 88.466L112.621 89.7493Z" fill="white" />
        <path d="M112.219 100.228L112.362 96.4945L82.446 95.2266L82.3125 98.9687L112.219 100.228Z" fill="white" />
        <path d="M111.817 110.689L111.96 106.963L82.0713 105.719L81.938 109.454L111.817 110.689Z" fill="white" />
        <path d="M111.416 121.129L111.559 117.41L81.6975 116.189L81.5645 119.918L111.416 121.129Z" fill="white" />
        <path d="M110.617 141.952L110.759 138.247L80.9511 137.074L80.8186 140.789L110.617 141.952Z" fill="white" />
        <path d="M109.423 173.043L109.564 169.357L79.8368 168.256L79.7049 171.949L109.423 173.043Z" fill="white" />
        <path d="M111.016 131.549L111.159 127.836L81.3241 126.641L81.1913 130.362L111.016 131.549Z" fill="white" />
        <path d="M110.218 152.334L110.36 148.635L80.5791 147.486L80.4467 151.194L110.218 152.334Z" fill="white" />
        <path d="M109.82 162.698L109.961 159.006L80.2074 157.881L80.0754 161.581L109.82 162.698Z" fill="white" />
        <path d="M109.026 183.368L109.167 179.689L79.4671 178.611L79.3355 182.298L109.026 183.368Z" fill="white" />
        <path d="M108.631 193.672L108.771 190L79.0977 188.945L78.9663 192.625L108.631 193.672Z" fill="white" />
        <path d="M108.235 203.96L108.376 200.295L78.7288 199.264L78.5977 202.937L108.235 203.96Z" fill="white" />
        <path d="M107.841 214.227L107.981 210.569L78.3609 209.561L78.23 213.227L107.841 214.227Z" fill="white" />
        <path d="M73.9343 77.5435L74.0654 73.7847L43.9237 72.4609L43.8024 76.2285L73.9343 77.5435Z" fill="white" />
        <path d="M73.5669 88.0749L73.6978 84.3232L43.5834 83.0234L43.4625 86.784L73.5669 88.0749Z" fill="white" />
        <path d="M73.1999 98.5843L73.3306 94.8396L43.2438 93.5645L43.1229 97.3179L73.1999 98.5843Z" fill="white" />
        <path d="M72.8334 109.077L72.9639 105.339L42.9044 104.088L42.7838 107.834L72.8334 109.077Z" fill="white" />
        <path d="M72.4675 119.549L72.5977 115.819L42.5655 114.592L42.4451 118.331L72.4675 119.549Z" fill="white" />
        <path d="M71.7385 140.433L71.8682 136.716L41.8906 135.537L41.7707 139.263L71.7385 140.433Z" fill="white" />
        <path d="M70.6499 171.616L70.7788 167.92L40.8826 166.812L40.7634 170.517L70.6499 171.616Z" fill="white" />
        <path d="M72.103 130.001L72.2329 126.277L42.2281 125.074L42.1079 128.807L72.103 130.001Z" fill="white" />
        <path d="M71.3749 150.847L71.5044 147.137L41.5539 145.982L41.4342 149.701L71.3749 150.847Z" fill="white" />
        <path d="M71.0123 161.241L71.1416 157.538L41.2183 156.406L41.0988 160.118L71.0123 161.241Z" fill="white" />
        <path d="M70.2877 181.971L70.4165 178.282L40.5473 177.197L40.4283 180.895L70.2877 181.971Z" fill="white" />
        <path d="M69.9277 192.307L70.0562 188.625L40.2139 187.564L40.0951 191.255L69.9277 192.307Z" fill="white" />
        <path d="M69.5675 202.625L69.6958 198.949L39.8805 197.912L39.762 201.596L69.5675 202.625Z" fill="white" />
        <path d="M69.2074 212.923L69.3354 209.254L39.5471 208.24L39.4287 211.917L69.2074 212.923Z" fill="white" />
    </g>
    <path
        d="M55.969 33.6289C55.9838 32.5344 56.4298 31.4922 57.2055 30.7393C57.9815 29.9863 59.0213 29.5864 60.0893 29.6302L141.239 32.9629C142.632 33.02 143.723 34.2109 143.69 35.6384L139.57 213.336L57.5163 212.31C56.4643 212.297 55.4608 211.856 54.7267 211.084C53.9927 210.313 53.5883 209.273 53.6029 208.196L55.969 33.6289Z"
        fill="#EEC0C5" />
    <g opacity="0.34">
        <path d="M121.547 61.3243L133.538 61.3204L134.134 43.5664H122.067L121.547 61.3243Z" fill="white" />
        <path d="M102.861 61.277L114.268 61.2716L114.741 43.5664H103.261L102.861 61.277Z" fill="white" />
        <path d="M83.7603 61.2285L95.6214 61.2244L95.9756 43.5664H84.0392L83.7603 61.2285Z" fill="white" />
        <path d="M64.764 61.1805L76.5602 61.176L76.7935 43.5664H64.9228L64.764 61.1805Z" fill="white" />
        <path d="M120.701 90.2059L132.566 90.285L133.15 72.9307L121.21 72.8809L120.701 90.2059Z" fill="white" />
        <path d="M102.209 90.0824L113.498 90.1576L113.961 72.8502L102.602 72.8027L102.209 90.0824Z" fill="white" />
        <path d="M83.3062 89.956L95.0446 90.0341L95.3916 72.7721L83.5794 72.7227L83.3062 89.956Z" fill="white" />
        <path d="M64.5057 89.8315L76.1806 89.9094L76.4092 72.6937L64.6613 72.6445L64.5057 89.8315Z" fill="white" />
        <path d="M119.871 118.431L131.614 118.557L132.187 101.557L120.37 101.459L119.871 118.431Z" fill="white" />
        <path d="M101.571 118.235L112.743 118.355L113.197 101.4L101.955 101.307L101.571 118.235Z" fill="white" />
        <path d="M82.8616 118.034L94.4799 118.159L94.8198 101.247L83.1292 101.15L82.8616 118.034Z" fill="white" />
        <path d="M64.2523 117.836L75.8083 117.959L76.0322 101.092L64.4047 100.996L64.2523 117.836Z" fill="white" />
        <path d="M119.059 146.085L130.681 146.255L131.242 129.599L119.548 129.455L119.059 146.085Z" fill="white" />
        <path d="M100.945 145.82L112.003 145.983L112.448 129.369L101.321 129.232L100.945 145.82Z" fill="white" />
        <path d="M82.4251 145.549L93.9257 145.718L94.2588 129.146L82.6874 129.004L82.4251 145.549Z" fill="white" />
        <path d="M64.0036 145.278L75.4432 145.446L75.6626 128.917L64.153 128.775L64.0036 145.278Z" fill="white" />
        <path d="M118.263 173.186L129.768 173.4L130.317 157.076L118.742 156.889L118.263 173.186Z" fill="white" />
        <path d="M100.332 172.855L111.279 173.058L111.715 156.776L100.701 156.598L100.332 172.855Z" fill="white" />
        <path d="M81.9982 172.513L93.3834 172.725L93.71 156.483L82.2553 156.297L81.9982 172.513Z" fill="white" />
        <path d="M63.7607 172.176L75.0862 172.386L75.3013 156.185L63.9072 156L63.7607 172.176Z" fill="white" />
        <path d="M117.483 199.751L128.872 200.006L129.411 184.005L117.952 183.775L117.483 199.751Z" fill="white" />
        <path d="M99.73 199.353L110.568 199.595L110.995 183.635L100.092 183.416L99.73 199.353Z" fill="white" />
        <path d="M81.5787 198.948L92.8509 199.2L93.1709 183.279L81.8308 183.051L81.5787 198.948Z" fill="white" />
        <path d="M63.522 198.544L74.7354 198.795L74.9463 182.912L63.6655 182.686L63.522 198.544Z" fill="white" />
    </g>
    <path
        d="M216.545 87.094C216.9 83.4481 220.143 80.7805 223.789 81.1356C227.435 81.4906 230.103 84.734 229.748 88.3798C229.392 92.0257 226.149 94.6934 222.503 94.3383C218.857 93.9832 216.19 90.7398 216.545 87.094Z"
        fill="url(#paint0_linear_12083_20838)" />
    <path
        d="M244.342 36.3438C257.153 41.6264 266.934 51.1461 272.736 62.6107C273.927 64.9633 272.899 67.8311 270.465 68.844L270.221 68.9457C268.055 69.8468 265.545 68.9429 264.488 66.8486C259.658 57.2733 251.504 49.3188 240.81 44.9095C230.117 40.5001 218.727 40.3957 208.551 43.783C206.325 44.5239 203.907 43.396 203.006 41.2302L202.905 40.9858C201.892 38.5514 203.184 35.7929 205.687 34.9632C217.883 30.9204 231.531 31.0612 244.342 36.3438Z"
        fill="url(#paint1_linear_12083_20838)" />
    <path
        d="M238.456 50.6198C247.306 54.2692 254.149 60.7207 258.393 68.5217C259.663 70.8563 258.599 73.7812 256.145 74.8021L256.103 74.8196C253.953 75.7143 251.508 74.8042 250.388 72.7621C247.098 66.7641 241.819 61.806 235.002 58.995C228.185 56.184 220.946 55.9807 214.385 57.9161C212.15 58.5751 209.775 57.4979 208.88 55.3475L208.863 55.3055C207.842 52.8516 209.148 50.0268 211.695 49.2661C220.204 46.7239 229.605 46.9705 238.456 50.6198Z"
        fill="url(#paint2_linear_12083_20838)" />
    <path
        d="M241.721 80.8038C239.593 81.6895 237.184 80.8952 235.88 78.9935C234.243 76.6044 231.915 74.6482 229.037 73.4617C226.16 72.2751 223.13 72.0221 220.284 72.5624C218.019 72.9925 215.75 71.8582 214.865 69.7296L214.853 69.702C213.767 67.0925 215.325 64.1396 218.091 63.5571C222.78 62.5693 227.805 62.9314 232.569 64.8962C237.334 66.861 241.154 70.1454 243.784 74.1514C245.335 76.5141 244.359 79.7065 241.749 80.7925L241.721 80.8038Z"
        fill="url(#paint3_linear_12083_20838)" />
    <path
        d="M230.635 31.9762C230.714 30.1874 232.282 28.7983 234.156 28.8359L234.246 28.8388C236.16 28.9232 237.647 30.4649 237.567 32.2821L234.678 97.7592C234.599 99.5481 233.031 100.937 231.156 100.9L231.067 100.897C229.182 100.814 227.712 99.3185 227.743 97.5384L227.746 97.4534L230.635 31.9762ZM226.142 97.3826C226.025 100.041 228.199 102.296 230.999 102.419C233.8 102.543 236.165 100.488 236.282 97.83L239.171 32.3529C239.288 29.6946 237.113 27.4396 234.313 27.316C231.513 27.1925 229.148 29.2472 229.031 31.9054L226.142 97.3826Z"
        fill="#FFF0F2" />
    <path
        d="M237.733 28.5305C237.817 26.6163 236.334 24.9961 234.419 24.9116C232.505 24.8272 230.885 26.3105 230.801 28.2247L227.757 97.1964C227.673 99.1106 229.156 100.731 231.07 100.815C232.985 100.9 234.605 99.4164 234.689 97.5022L237.733 28.5305Z"
        fill="url(#paint4_linear_12083_20838)" />
    <path
        d="M187.921 80.1134C187.921 80.1134 187.064 78.563 187.156 77.3158C187.248 76.0686 186.471 74.2368 187.298 74.3723C188.125 74.5079 188.296 74.3973 188.52 75.894C188.745 77.3906 190.764 82.9109 187.921 80.1134Z"
        fill="#FF8B7B" />
    <path
        d="M147.979 222.573C150.991 222.489 152.55 222.134 153.355 221.805C153.357 222.104 153.355 222.409 153.346 222.725C153.335 223.062 153.085 223.332 152.778 223.33L136.236 223.223C135.709 223.22 135.4 222.607 135.629 222.123C137.798 222.303 143.322 222.703 147.979 222.573Z"
        fill="#181A1B" />
    <path
        d="M152.65 216.231C152.271 214.886 151.029 213.973 149.632 214.017L148.251 214.061C140.898 215.824 137.178 219.888 135.717 221.93C135.689 221.969 135.671 222.012 135.651 222.054C137.82 222.234 143.344 222.634 148.001 222.504C151.014 222.42 152.572 222.065 153.378 221.736C153.364 219.384 153.017 217.535 152.65 216.231Z"
        fill="#263238" />
    <path
        d="M145.928 209.314L147.084 214.876C147.169 215.284 147.482 215.589 147.861 215.624C148.325 215.668 148.986 215.694 149.651 215.596C150.247 215.508 150.662 214.903 150.556 214.253L149.753 209.314H145.928Z"
        fill="#FF8B7B" />
    <path
        d="M169.866 222.573C166.853 222.489 165.295 222.134 164.489 221.805C164.487 222.104 164.489 222.409 164.499 222.725C164.509 223.062 164.759 223.332 165.066 223.33L181.608 223.223C182.136 223.22 182.444 222.607 182.216 222.123C180.047 222.303 174.523 222.703 169.866 222.573Z"
        fill="#181A1B" />
    <path
        d="M182.216 222.122C182.196 222.08 182.179 222.037 182.15 221.998C180.689 219.957 176.969 215.892 169.616 214.129L166.089 214.018C166.089 214.018 164.519 216.747 164.489 221.804C165.295 222.133 166.853 222.488 169.866 222.572C174.523 222.703 180.047 222.302 182.216 222.122Z"
        fill="#263238" />
    <path
        d="M165.436 208.674C165.475 208.937 165.958 212.932 166.146 214.482C166.19 214.85 166.457 215.135 166.793 215.175C167.394 215.247 168.365 215.312 169.216 215.138C169.674 215.044 170.006 214.603 170.006 214.091V207.818L165.436 208.674Z"
        fill="#FF8B7B" />
    <path
        d="M162.606 135.752C162.606 135.752 171.113 168.082 170.959 208.765C170.957 209.507 170.436 210.147 169.71 210.3C168.64 210.525 167.068 210.793 165.766 210.756C165.072 210.737 164.491 210.221 164.374 209.536C163.181 202.541 156.336 163.134 152.436 156.737C152.436 156.737 149.869 191.834 150.69 210.043C150.71 210.496 150.379 210.889 149.928 210.941C149.245 211.02 148.153 211.08 146.762 210.932C146.235 210.876 145.809 210.477 145.733 209.951C144.884 204.031 139.993 168.792 140.201 143.408C140.213 141.976 143.987 135.752 143.987 135.752L162.606 135.752Z"
        fill="#E3969F" />
    <path
        d="M136.088 107.636C133.775 101.308 134.614 93.6663 134.623 93.5898L135.26 93.6626C135.252 93.7377 134.431 101.233 136.69 107.416L136.088 107.636Z"
        fill="url(#paint5_linear_12083_20838)" />
    <path
        d="M195.362 110.283C197.271 99.8968 194.532 82.7793 194.532 82.7793L190.8 86.6467C190.8 86.6467 190.17 100.62 187.513 106.403C189.262 106.611 192.652 107.392 195.362 110.283Z"
        fill="#AD0014" />
    <path
        d="M187.514 106.402C187.012 107.494 186.439 108.294 185.783 108.653C183.385 109.97 178.731 102.455 175.263 95.9412C172.768 91.2597 170.884 87.0969 170.884 87.0969C168.39 84.2791 162.212 83.892 156.464 84.2512C150.482 84.6224 144.974 85.7998 144.575 85.8876C144.559 85.8916 144.551 85.8916 144.551 85.8916C141.797 86.2547 139.406 86.558 137.678 86.7775C135.659 87.0329 133.811 88.0307 132.478 89.5714C127.197 95.6818 115.607 112.417 129.249 129.279C130.993 128.309 133.475 126.757 135.16 124.957C133.651 120.702 133.527 115.266 136.688 108.597C136.796 109.128 136.932 109.651 137.091 110.166C141.454 123.975 141.685 135.469 141.673 138.116C141.673 138.479 141.889 138.802 142.224 138.934C147.959 141.233 159.007 139.864 162.711 139.313C163.393 139.213 163.848 138.579 163.756 137.896C162.651 129.886 165.668 118.735 168.757 109.998C186.885 127.962 193.359 121.179 195.362 110.282C192.652 107.391 189.262 106.61 187.514 106.402Z"
        fill="#AD0014" />
    <path
        d="M145.292 136.549C143.718 135.666 137.612 131.874 135.159 124.957C133.474 126.755 130.993 128.309 129.248 129.278C131.854 132.5 135.382 135.727 140.052 138.886C140.217 142.48 142.98 143.81 143.612 144.974C144.244 146.138 143.346 145.872 143.745 147.336C144.144 148.799 148.334 145.007 149.332 144.143C150.33 143.278 149.731 140.883 149.731 140.883C149.731 140.883 149.798 140.384 150.064 139.386C150.33 138.391 145.313 136.556 145.292 136.549Z"
        fill="#FF8B7B" />
    <path
        d="M147.572 75.5109L146.467 86.8082C146.467 86.8082 152.822 88.7223 157.444 85.4608L154.195 75.1934L147.572 75.5109Z"
        fill="#FF8B7B" />
    <path
        d="M168.889 109.62C168.881 109.62 168.873 109.619 168.865 109.619C168.755 109.605 168.678 109.505 168.691 109.396C168.702 109.308 169.777 100.586 169.194 98.0734C169.169 97.9661 169.236 97.8588 169.343 97.8339C169.45 97.8073 169.558 97.8755 169.582 97.9829C170.182 100.564 169.132 109.084 169.087 109.445C169.075 109.546 168.989 109.62 168.889 109.62Z"
        fill="#87000F" />
    <path
        d="M194.171 70.8545C194.161 70.6203 194.048 70.4026 193.862 70.2602C193.676 70.1177 193.436 70.0652 193.208 70.1174L187.503 71.415C187.282 71.4653 187.133 71.674 187.159 71.8999L188.817 86.7274C188.825 86.7913 188.857 86.8497 188.907 86.8896C188.958 86.9295 189.022 86.9476 189.086 86.9399L194.066 86.3366C194.474 86.2871 194.775 85.9328 194.759 85.5222L194.171 70.8545Z"
        fill="#263238" />
    <path
        d="M192.566 71.7106C192.559 71.5776 192.492 71.4551 192.385 71.3761C192.278 71.2972 192.141 71.2701 192.012 71.3024L188.259 72.2407C188.042 72.295 187.899 72.5015 187.924 72.7238L189.348 85.3506C189.355 85.4169 189.39 85.477 189.443 85.5169C189.496 85.5567 189.564 85.5727 189.63 85.561L193.091 84.945C193.211 84.9235 193.296 84.816 193.289 84.6942L192.566 71.7106Z"
        fill="#FAFAFA" />
    <path
        d="M190.41 71.3701C190.419 71.4147 190.357 71.4653 190.273 71.4829L189.017 71.743C188.932 71.7607 188.856 71.7387 188.847 71.694L188.838 71.6505C188.828 71.6059 188.89 71.5553 188.975 71.5377L190.23 71.2776C190.315 71.2599 190.392 71.2819 190.401 71.3266L190.41 71.3701Z"
        fill="url(#paint6_linear_12083_20838)" />
    <path
        d="M196.152 74.6228C195.23 74.2831 193.427 71.162 193.081 72.1888C192.736 73.2156 193.227 74.6228 193.081 75.0594C192.936 75.4961 191.938 77.9221 192.387 79.0381C192.711 79.8434 193.245 82.3215 193.518 83.6387C193.608 84.0759 193.993 84.3896 194.44 84.3898C194.886 84.3901 195.272 84.0769 195.362 83.6397C195.399 83.4644 197.074 74.9623 196.152 74.6228Z"
        fill="#FF8B7B" />
    <path
        d="M159.478 64.6471C159.478 64.6471 161.176 72.4412 160.637 76.248C160.099 80.0548 160.425 82.6592 155.92 82.5524C151.416 82.4455 148.18 79.5481 146.938 75.4027C146.938 75.4027 144.973 69.005 146.142 66.777C147.31 64.5491 159.478 64.6471 159.478 64.6471Z"
        fill="#FF8B7B" />
    <path
        d="M148.961 73.002L149.231 72.9419C149.574 72.8656 149.784 72.5168 149.686 72.1791C149.308 70.871 148.651 67.915 150.323 67.5881C152.478 67.1668 160.69 67.1256 162.95 64.6633C165.121 62.2969 164.361 58.5345 162.379 57.1133C162.246 57.0182 162.063 57.0365 161.961 57.1632L161.711 57.4708C161.54 57.6813 161.199 57.5766 161.176 57.3063C161.154 57.0469 160.837 56.9344 160.659 57.1242C159.969 57.858 158.286 58.9356 154.368 58.8822C148.8 58.8063 144.817 60.2742 143.992 63.9679C143.939 64.2025 143.662 64.2839 143.485 64.1211C143.137 63.8006 142.525 63.5612 141.535 64.1058C139.813 65.053 139.778 68.3901 142.485 71.6791C142.614 71.8353 142.565 72.0749 142.377 72.1501C141.715 72.4152 140.661 73.1495 142.685 74.8098C144.778 76.5271 146.547 76.7719 147.243 76.7945C147.416 76.8002 147.556 76.6594 147.552 76.4863L147.482 73.0815C147.478 72.8889 147.653 72.7419 147.842 72.7795L148.961 73.002Z"
        fill="#263238" />
    <path
        d="M148.96 73.717C148.96 73.717 148.68 68.8979 146.37 69.7746C144.06 70.6511 146.416 75.1207 148.034 75.6204L148.96 73.717Z"
        fill="#FF8B7B" />
    <defs>
        <linearGradient id="paint0_linear_12083_20838" x1="202.558" y1="24.9082" x2="277.716" y2="29.5312"
            gradientUnits="userSpaceOnUse">
            <stop stop-color="#C00016" />
            <stop offset="1" stop-color="#5A000A" />
        </linearGradient>
        <linearGradient id="paint1_linear_12083_20838" x1="202.558" y1="24.9082" x2="277.716" y2="29.5312"
            gradientUnits="userSpaceOnUse">
            <stop stop-color="#C00016" />
            <stop offset="1" stop-color="#5A000A" />
        </linearGradient>
        <linearGradient id="paint2_linear_12083_20838" x1="202.558" y1="24.9082" x2="277.716" y2="29.5312"
            gradientUnits="userSpaceOnUse">
            <stop stop-color="#C00016" />
            <stop offset="1" stop-color="#5A000A" />
        </linearGradient>
        <linearGradient id="paint3_linear_12083_20838" x1="202.558" y1="24.9082" x2="277.716" y2="29.5312"
            gradientUnits="userSpaceOnUse">
            <stop stop-color="#C00016" />
            <stop offset="1" stop-color="#5A000A" />
        </linearGradient>
        <linearGradient id="paint4_linear_12083_20838" x1="202.558" y1="24.9082" x2="277.716" y2="29.5312"
            gradientUnits="userSpaceOnUse">
            <stop stop-color="#C00016" />
            <stop offset="1" stop-color="#5A000A" />
        </linearGradient>
        <linearGradient id="paint5_linear_12083_20838" x1="135.967" y1="99.6131" x2="144.215" y2="75.9324"
            gradientUnits="userSpaceOnUse">
            <stop stop-color="#53D8FF" />
            <stop offset="1" stop-color="#3840F7" />
        </linearGradient>
        <linearGradient id="paint6_linear_12083_20838" x1="189.943" y1="71.1528" x2="189.711" y2="72.6619"
            gradientUnits="userSpaceOnUse">
            <stop stop-color="#8D55D1" />
            <stop offset="0.9964" stop-color="#1C2873" />
        </linearGradient>
    </defs>
</svg>
