<svg width="292" height="305" viewBox="0 0 292 305" fill="none" xmlns="http://www.w3.org/2000/svg">
    <path
        d="M86.6435 86.7764C83.4346 115.932 47.2439 121.342 44.1979 151.803C40.8898 184.866 67.1987 199.998 97.0637 201.056C122.848 201.973 139.325 175.519 164.862 170.384C197.164 163.894 219.888 184.083 243.088 163.816C301.415 112.863 218.776 39.6608 168.595 24.9244C144.716 17.9194 108.837 11.2038 89.0874 32.0704C69.5718 52.7183 89.3141 62.4955 86.6435 86.7764Z"
        fill="white" />
    <path opacity="0.9"
        d="M86.6435 86.7764C83.4346 115.932 47.2439 121.342 44.1979 151.803C40.8898 184.866 67.1987 199.998 97.0637 201.056C122.848 201.973 139.325 175.519 164.862 170.384C197.164 163.894 219.888 184.083 243.088 163.816C301.415 112.863 218.776 39.6608 168.595 24.9244C144.716 17.9194 108.837 11.2038 89.0874 32.0704C69.5718 52.7183 89.3141 62.4955 86.6435 86.7764Z"
        fill="white" />
    <path
        d="M145.62 283.893C221.474 283.893 282.966 280.318 282.966 275.907C282.966 271.497 221.474 267.922 145.62 267.922C69.7655 267.922 8.27344 271.497 8.27344 275.907C8.27344 280.318 69.7655 283.893 145.62 283.893Z"
        fill="#E0E0E0" />
    <path d="M181.428 270.52L186.259 269.186L183.638 257.899L178.8 259.24L181.428 270.52Z" fill="#FF8B7B" />
    <path d="M123.653 270.364L128.612 271.14L130.801 259.874H125.786L123.653 270.364Z" fill="#FF8B7B" />
    <path
        d="M129.051 270.625L123.483 269.75C123.385 269.734 123.285 269.751 123.198 269.8C123.112 269.849 123.045 269.926 123.009 270.018L121.337 274.251C121.29 274.353 121.269 274.466 121.274 274.578C121.28 274.691 121.313 274.8 121.369 274.898C121.426 274.995 121.506 275.077 121.601 275.138C121.697 275.198 121.805 275.235 121.918 275.245C123.866 275.514 124.829 275.549 127.28 275.951C128.789 276.191 130.227 276.558 136.879 276.558C138.94 276.558 139.259 274.491 138.402 274.3C134.534 273.461 130.858 272.353 129.809 271.069C129.62 270.833 129.35 270.675 129.051 270.625Z"
        fill="#263238" />
    <path
        d="M186.075 268.635L180.791 270.095C180.696 270.123 180.613 270.182 180.555 270.263C180.497 270.343 180.468 270.441 180.472 270.54L180.713 275.083C180.714 275.193 180.741 275.302 180.793 275.401C180.844 275.499 180.918 275.584 181.008 275.648C181.099 275.713 181.203 275.755 181.313 275.772C181.423 275.789 181.535 275.78 181.641 275.746C183.539 275.188 186.259 274.335 188.654 273.629C191.452 272.861 193.91 272.346 197.197 271.436C199.18 270.885 199.173 268.741 198.295 268.783C194.278 269.009 191.168 269.771 187.343 268.663C186.931 268.538 186.493 268.528 186.075 268.635Z"
        fill="#263238" />
    <path d="M183.638 257.906L184.991 263.719L180.153 265.052L178.8 259.24L183.638 257.906Z" fill="#EA7063" />
    <path d="M125.786 259.874H130.801L129.639 265.842H124.567L125.786 259.874Z" fill="#EA7063" />
    <path
        d="M166.191 101.179C166.191 101.179 172.113 116.268 166.488 144.366H139.641C139.457 140.26 142.05 120.254 138.076 100.925C141.042 100.353 144.042 99.9762 147.058 99.7967C150.856 99.5743 154.664 99.5743 158.463 99.7967C161.071 100.057 163.655 100.519 166.191 101.179Z"
        fill="url(#paint0_linear_12079_66434)" />
    <path
        d="M180.252 127.776C180.147 127.38 180.009 126.993 179.841 126.619L179.601 126.034L179.126 124.863L178.17 122.507L176.243 117.724C174.954 114.549 173.622 111.375 172.241 108.257L164.923 111.304C166.212 114.521 167.587 117.653 169.046 120.828C169.754 122.401 170.512 123.96 171.277 125.526C171.66 126.309 172.042 127.092 172.446 127.868L173.006 128.961L172.85 129.018C171.436 129.511 169.973 129.854 168.486 130.041C165.292 130.506 161.863 130.746 158.519 130.922L158.172 134.823C161.71 135.539 165.309 135.908 168.918 135.924C170.887 135.951 172.851 135.743 174.77 135.303C175.342 135.159 175.903 134.973 176.448 134.746C177.135 134.46 177.779 134.08 178.361 133.617C179.201 132.945 179.832 132.05 180.181 131.035C180.52 129.978 180.544 128.847 180.252 127.776Z"
        fill="#FF8B7B" />
    <path
        d="M160.234 104.603C158.548 109.075 167.112 122.239 167.112 122.239L177.142 116.814C175.635 112.721 173.693 108.8 171.348 105.118C167.799 99.8484 162.089 99.6932 160.234 104.603Z"
        fill="#6F010D" />
    <path d="M150.302 128.19L149.835 133.446L154.602 134.074L155.403 128.31L150.302 128.19Z" fill="#FF8B7B" />
    <path
        d="M159.185 131.225L155.403 128.305L154.602 134.068C154.602 134.068 157.995 136.509 160.333 134.23L159.185 131.225Z"
        fill="#FF8B7B" />
    <path
        d="M148.199 87.002C148.907 90.6631 149.615 97.3577 147.072 99.7984C147.072 99.7984 148.546 103.502 155.367 103.502C161.601 103.502 158.477 99.7984 158.477 99.7984C154.383 98.825 154.687 93.6612 155.644 89.8801L148.199 87.002Z"
        fill="#FF8B7B" />
    <path
        d="M148.85 92.1009L151.308 90.3232C151.443 90.6971 153.54 92.1009 153.221 92.8487C152.151 95.3741 150.168 96.27 148.73 95.8256C148.885 94.5904 148.925 93.3435 148.85 92.1009Z"
        fill="#EA7063" />
    <path
        d="M147.872 79.3334L143.665 76.5117C141.681 78.1977 141.334 82.7336 143.856 85.5835C148.9 84.6453 147.872 79.3334 147.872 79.3334Z"
        fill="#263238" />
    <path
        d="M156.912 81.0411C156.912 86.2824 157.224 89.3511 154.787 92.208C151.075 96.5041 144.445 94.543 142.844 89.3863C141.427 84.7658 141.597 76.9708 146.591 74.5723C147.689 74.0414 148.904 73.7977 150.122 73.8643C151.341 73.9308 152.522 74.3054 153.555 74.9527C154.588 75.6 155.438 76.4987 156.025 77.5639C156.613 78.6292 156.918 79.8259 156.912 81.0411Z"
        fill="#FF8B7B" />
    <path
        d="M157.918 77.7593L152.895 76.9551C151.812 79.3112 153.427 83.572 156.919 85.0957C161.105 82.14 157.918 77.7593 157.918 77.7593Z"
        fill="#263238" />
    <path
        d="M147.214 78.2683C145.053 78.5011 137.7 78.3035 141.412 70.8754C141.412 71.7712 142.255 74.212 144.359 71.5808C146.13 69.3587 150.068 72.3497 149.672 70.1699C149.672 70.1699 151.088 70.8754 150.38 71.7501C149.672 72.6248 155.034 69.923 158.059 71.6654C156.522 71.8206 156.352 73.9369 158.59 75.3619C160.715 76.7163 159.178 80.2011 156.465 79.5451C153.752 78.889 152.597 77.6828 147.214 78.2683Z"
        fill="#263238" />
    <path
        d="M159.328 85.1519C159.067 86.2772 158.376 87.2568 157.401 87.8819C156.112 88.7002 155.056 87.6491 155.077 86.1959C155.077 84.8909 155.786 82.8945 157.245 82.6688C158.704 82.4431 159.639 83.7693 159.328 85.1519Z"
        fill="#FF8B7B" />
    <path
        d="M166.489 144.366C166.489 144.366 176.505 184.103 178.531 199.213C180.656 214.923 185.736 261.503 185.736 261.503L177.894 264.007C177.894 264.007 166.694 218.253 163.684 202.98C160.376 186.325 148.851 144.366 148.851 144.366H166.489Z"
        fill="#C00016" />
    <path opacity="0.6"
        d="M166.489 144.366C166.489 144.366 176.505 184.103 178.531 199.213C180.656 214.923 185.736 261.503 185.736 261.503L177.894 264.007C177.894 264.007 166.694 218.253 163.684 202.98C160.376 186.325 148.851 144.366 148.851 144.366H166.489Z"
        fill="#FAFAFA" />
    <path d="M177.497 264.559L186.295 261.815L186.175 258.562L176.569 261.681L177.497 264.559Z" fill="#C00016" />
    <path opacity="0.2" d="M177.497 264.559L186.295 261.815L186.175 258.562L176.569 261.681L177.497 264.559Z"
        fill="black" />
    <path
        d="M154.447 147.302L152.109 156.402C154.277 164.528 157.181 175.547 159.632 185.458C159.865 172.551 158.116 159.683 154.447 147.302Z"
        fill="#C00016" />
    <path opacity="0.4"
        d="M154.447 147.302L152.109 156.402C154.277 164.528 157.181 175.547 159.632 185.458C159.865 172.551 158.116 159.683 154.447 147.302Z"
        fill="#FAFAFA" />
    <path
        d="M156.975 144.366C156.975 144.366 154.694 185.204 151.571 199.503C148.142 215.17 131.849 264.684 131.849 264.684H122.641C122.641 264.684 134.563 216.433 136.511 200.928C138.636 184.096 139.649 144.366 139.649 144.366H156.975Z"
        fill="#C00016" />
    <path opacity="0.6"
        d="M156.975 144.366C156.975 144.366 154.694 185.204 151.571 199.503C148.142 215.17 131.849 264.684 131.849 264.684H122.641C122.641 264.684 134.563 216.433 136.511 200.928C138.636 184.096 139.649 144.366 139.649 144.366H156.975Z"
        fill="#FAFAFA" />
    <path d="M121.975 264.825H132.508L133.471 262.011H121.975V264.825Z" fill="#C00016" />
    <path opacity="0.2" d="M121.975 264.825H132.508L133.471 262.011H121.975V264.825Z" fill="black" />
    <path
        d="M126.352 259.281C126.341 259.28 126.33 259.276 126.321 259.27C126.311 259.264 126.303 259.256 126.296 259.247C126.29 259.238 126.285 259.227 126.282 259.216C126.28 259.205 126.28 259.194 126.282 259.183C126.36 258.717 137.446 215.446 139.195 201.486C141.101 186.368 141.696 150.18 141.738 149.848C141.742 149.826 141.753 149.806 141.77 149.792C141.787 149.778 141.808 149.77 141.83 149.771C141.842 149.771 141.854 149.775 141.864 149.78C141.875 149.786 141.884 149.793 141.891 149.803C141.899 149.812 141.904 149.823 141.907 149.834C141.91 149.846 141.91 149.858 141.908 149.869C141.866 150.201 141.271 186.389 139.365 201.507C137.616 215.439 126.53 258.745 126.452 259.211C126.45 259.222 126.446 259.233 126.44 259.242C126.434 259.252 126.426 259.26 126.417 259.267C126.408 259.274 126.397 259.278 126.386 259.281C126.375 259.283 126.364 259.283 126.352 259.281Z"
        fill="#C00016" />
    <path opacity="0.4"
        d="M126.352 259.281C126.341 259.28 126.33 259.276 126.321 259.27C126.311 259.264 126.303 259.256 126.296 259.247C126.29 259.238 126.285 259.227 126.282 259.216C126.28 259.205 126.28 259.194 126.282 259.183C126.36 258.717 137.446 215.446 139.195 201.486C141.101 186.368 141.696 150.18 141.738 149.848C141.742 149.826 141.753 149.806 141.77 149.792C141.787 149.778 141.808 149.77 141.83 149.771C141.842 149.771 141.854 149.775 141.864 149.78C141.875 149.786 141.884 149.793 141.891 149.803C141.899 149.812 141.904 149.823 141.907 149.834C141.91 149.846 141.91 149.858 141.908 149.869C141.866 150.201 141.271 186.389 139.365 201.507C137.616 215.439 126.53 258.745 126.452 259.211C126.45 259.222 126.446 259.233 126.44 259.242C126.434 259.252 126.426 259.26 126.417 259.267C126.408 259.274 126.397 259.278 126.386 259.281C126.375 259.283 126.364 259.283 126.352 259.281Z"
        fill="#FAFAFA" />
    <path
        d="M140.747 109.174C139.387 112.934 137.984 116.708 136.574 120.46C135.165 124.213 133.741 127.987 132.487 131.599C131.382 135.07 130.574 139.027 129.767 142.886C128.959 146.745 128.152 150.745 127.309 154.667L123.392 154.286C123.392 150.194 123.505 146.138 123.817 142.054C123.987 140.022 124.157 137.976 124.433 135.916C124.686 133.794 125.062 131.689 125.559 129.61C126.083 127.529 126.664 125.575 127.273 123.621C127.883 121.667 128.506 119.734 129.158 117.808C130.461 113.956 131.835 110.161 133.316 106.373L140.747 109.174Z"
        fill="#FF8B7B" />
    <path
        d="M138.09 100.927C133.344 101.633 127.903 117.992 127.903 117.992L137.877 123.635C137.877 123.635 142.262 115.875 144.43 110.063C146.725 103.961 143.183 100.187 138.09 100.927Z"
        fill="#AC0114" />
    <path
        d="M130.553 271.746C130.886 271.824 131.236 271.787 131.545 271.641C131.647 271.581 131.732 271.496 131.792 271.395C131.853 271.294 131.887 271.18 131.892 271.062C131.902 270.994 131.893 270.925 131.867 270.862C131.841 270.799 131.798 270.743 131.743 270.702C131.24 270.336 129.484 271.062 129.285 271.147C129.265 271.157 129.248 271.172 129.236 271.19C129.223 271.209 129.216 271.23 129.214 271.253C129.215 271.276 129.221 271.299 129.234 271.319C129.246 271.339 129.264 271.355 129.285 271.365C129.692 271.539 130.118 271.667 130.553 271.746ZM131.453 270.836C131.506 270.844 131.557 270.863 131.602 270.893C131.602 270.893 131.658 270.949 131.651 271.041C131.65 271.122 131.629 271.201 131.59 271.271C131.55 271.341 131.493 271.4 131.424 271.443C130.831 271.607 130.198 271.539 129.654 271.253C130.221 271.001 130.832 270.86 131.453 270.836Z"
        fill="#C00016" />
    <path
        d="M129.313 271.372H129.37C129.93 271.175 131.091 270.251 131.07 269.686C131.068 269.597 131.034 269.511 130.974 269.444C130.915 269.377 130.833 269.333 130.744 269.32C130.658 269.294 130.567 269.288 130.478 269.3C130.389 269.312 130.303 269.343 130.227 269.39C129.575 269.771 129.228 271.175 129.214 271.231C129.211 271.253 129.212 271.275 129.218 271.295C129.225 271.316 129.235 271.335 129.249 271.351L129.313 271.372ZM130.631 269.531H130.68C130.829 269.574 130.836 269.651 130.836 269.679C130.836 270.011 130.085 270.731 129.512 271.034C129.639 270.478 129.93 269.972 130.347 269.581C130.389 269.554 130.436 269.536 130.484 269.528C130.533 269.519 130.583 269.521 130.631 269.531Z"
        fill="#C00016" />
    <path
        d="M188.321 268.918C188.744 268.843 189.128 268.626 189.412 268.305C189.472 268.214 189.508 268.11 189.518 268.001C189.528 267.893 189.511 267.784 189.468 267.684C189.448 267.623 189.413 267.569 189.366 267.526C189.319 267.482 189.262 267.452 189.199 267.437C188.491 267.268 186.847 268.791 186.663 268.961C186.649 268.98 186.641 269.004 186.641 269.028C186.641 269.052 186.649 269.075 186.663 269.095C186.671 269.118 186.686 269.139 186.707 269.153C186.727 269.167 186.752 269.174 186.777 269.172C187.298 269.133 187.815 269.048 188.321 268.918ZM188.916 267.684C188.99 267.664 189.068 267.664 189.143 267.684C189.168 267.691 189.191 267.705 189.209 267.723C189.228 267.742 189.241 267.765 189.249 267.79C189.281 267.852 189.297 267.921 189.297 267.991C189.297 268.061 189.281 268.129 189.249 268.192C189.022 268.537 188.236 268.805 187.124 268.897C187.649 268.396 188.255 267.986 188.916 267.684Z"
        fill="#C00016" />
    <path
        d="M186.77 269.164H186.819C187.329 268.741 188.193 267.379 187.953 266.857C187.896 266.737 187.761 266.603 187.443 266.66C187.325 266.676 187.213 266.718 187.112 266.781C187.012 266.844 186.927 266.928 186.862 267.027C186.566 267.673 186.481 268.396 186.621 269.094C186.635 269.133 186.662 269.165 186.699 269.185L186.77 269.164ZM187.407 266.886H187.478C187.69 266.85 187.726 266.928 187.74 266.949C187.882 267.266 187.322 268.296 186.826 268.818C186.729 268.256 186.808 267.677 187.053 267.161C187.134 267.03 187.26 266.932 187.407 266.886Z"
        fill="#C00016" />
    <path
        d="M127.472 154.103L126.509 157.933L122.216 155.345C122.216 155.345 122.839 151.225 126.112 151.154L127.472 154.103Z"
        fill="#FF8B7B" />
    <path d="M123.193 159.766L120.005 157.911L122.215 155.371L126.508 157.953L123.193 159.766Z" fill="#FF8B7B" />
    <path
        d="M87.5621 277.152H139.868C140.871 277.162 141.864 276.964 142.785 276.57C143.707 276.177 144.536 275.597 145.219 274.867C145.903 274.137 146.427 273.273 146.757 272.33C147.087 271.388 147.216 270.387 147.136 269.392L136.808 122.663C136.621 120.569 135.664 118.618 134.119 117.185C132.575 115.753 130.553 114.94 128.442 114.903H76.1644C75.1617 114.892 74.1678 115.089 73.246 115.482C72.3242 115.875 71.4948 116.455 70.8109 117.185C70.1269 117.916 69.6034 118.78 69.2738 119.723C68.9442 120.666 68.8157 121.667 68.8965 122.663L79.1963 269.392C79.383 271.485 80.3408 273.436 81.8853 274.869C83.4298 276.301 85.4518 277.115 87.5621 277.152Z"
        fill="#363636" />
    <path opacity="0.3"
        d="M87.5621 277.152H139.868C140.871 277.162 141.864 276.964 142.785 276.57C143.707 276.177 144.536 275.597 145.219 274.867C145.903 274.137 146.427 273.273 146.757 272.33C147.087 271.388 147.216 270.387 147.136 269.392L136.808 122.663C136.621 120.569 135.664 118.618 134.119 117.185C132.575 115.753 130.553 114.94 128.442 114.903H76.1644C75.1617 114.892 74.1678 115.089 73.246 115.482C72.3242 115.875 71.4948 116.455 70.8109 117.185C70.1269 117.916 69.6034 118.78 69.2738 119.723C68.9442 120.666 68.8157 121.667 68.8965 122.663L79.1963 269.392C79.383 271.485 80.3408 273.436 81.8853 274.869C83.4298 276.301 85.4518 277.115 87.5621 277.152Z"
        fill="#FAFAFA" />
    <path
        d="M93.2006 277.152H145.514C146.516 277.162 147.51 276.964 148.431 276.57C149.352 276.177 150.181 275.597 150.865 274.867C151.549 274.137 152.072 273.273 152.402 272.33C152.732 271.388 152.861 270.387 152.782 269.392L142.475 122.663C142.291 120.569 141.335 118.617 139.792 117.184C138.248 115.751 136.226 114.938 134.116 114.903H81.8099C80.8073 114.892 79.8133 115.089 78.8915 115.482C77.9697 115.875 77.1403 116.455 76.4564 117.185C75.7724 117.916 75.2489 118.78 74.9193 119.723C74.5897 120.666 74.4612 121.667 74.542 122.663L84.8418 269.392C85.0269 271.485 85.9832 273.436 87.5265 274.868C89.0699 276.301 91.091 277.114 93.2006 277.152Z"
        fill="#363636" />
    <path opacity="0.6"
        d="M93.2006 277.152H145.514C146.516 277.162 147.51 276.964 148.431 276.57C149.352 276.177 150.181 275.597 150.865 274.867C151.549 274.137 152.072 273.273 152.402 272.33C152.732 271.388 152.861 270.387 152.782 269.392L142.475 122.663C142.291 120.569 141.335 118.617 139.792 117.184C138.248 115.751 136.226 114.938 134.116 114.903H81.8099C80.8073 114.892 79.8133 115.089 78.8915 115.482C77.9697 115.875 77.1403 116.455 76.4564 117.185C75.7724 117.916 75.2489 118.78 74.9193 119.723C74.5897 120.666 74.4612 121.667 74.542 122.663L84.8418 269.392C85.0269 271.485 85.9832 273.436 87.5265 274.868C89.0699 276.301 91.091 277.114 93.2006 277.152Z"
        fill="#FAFAFA" />
    <path
        d="M86.7477 268.721H150.692C150.829 268.721 150.964 268.694 151.089 268.64C151.214 268.586 151.327 268.507 151.42 268.407C151.513 268.308 151.585 268.191 151.63 268.063C151.675 267.934 151.694 267.798 151.684 267.663L141.647 124.729C141.63 124.478 141.519 124.243 141.334 124.071C141.15 123.899 140.907 123.804 140.655 123.805H76.7101C76.5733 123.805 76.4381 123.834 76.3129 123.889C76.1877 123.943 76.0752 124.023 75.9822 124.123C75.8892 124.223 75.8178 124.341 75.7724 124.469C75.727 124.598 75.7086 124.734 75.7183 124.87L85.756 267.797C85.7722 268.048 85.8838 268.283 86.0681 268.455C86.2523 268.626 86.4954 268.722 86.7477 268.721Z"
        fill="url(#paint1_linear_12079_66434)" />
    <path
        d="M97.2029 118.98C97.2277 119.31 97.376 119.62 97.6186 119.847C97.8612 120.074 98.1804 120.203 98.5134 120.207C98.6722 120.21 98.8297 120.179 98.9758 120.117C99.1219 120.055 99.2533 119.963 99.3615 119.848C99.4697 119.732 99.5522 119.595 99.6038 119.445C99.6554 119.296 99.6749 119.137 99.661 118.98C99.6397 118.644 99.4924 118.328 99.2483 118.096C99.0042 117.863 98.6812 117.73 98.3434 117.724C98.1823 117.721 98.0223 117.752 97.8744 117.816C97.7264 117.879 97.5939 117.974 97.4858 118.093C97.3777 118.212 97.2965 118.353 97.2477 118.506C97.1989 118.659 97.1836 118.82 97.2029 118.98Z"
        fill="#363636" />
    <path opacity="0.4"
        d="M97.2029 118.98C97.2277 119.31 97.376 119.62 97.6186 119.847C97.8612 120.074 98.1804 120.203 98.5134 120.207C98.6722 120.21 98.8297 120.179 98.9758 120.117C99.1219 120.055 99.2533 119.963 99.3615 119.848C99.4697 119.732 99.5522 119.595 99.6038 119.445C99.6554 119.296 99.6749 119.137 99.661 118.98C99.6397 118.644 99.4924 118.328 99.2483 118.096C99.0042 117.863 98.6812 117.73 98.3434 117.724C98.1823 117.721 98.0223 117.752 97.8744 117.816C97.7264 117.879 97.5939 117.974 97.4858 118.093C97.3777 118.212 97.2965 118.353 97.2477 118.506C97.1989 118.659 97.1836 118.82 97.2029 118.98Z"
        fill="#FAFAFA" />
    <path
        d="M103.515 120.207H117.13C117.287 120.207 117.444 120.175 117.588 120.112C117.733 120.05 117.863 119.958 117.97 119.842C118.078 119.727 118.16 119.591 118.211 119.442C118.263 119.294 118.283 119.136 118.27 118.979C118.251 118.647 118.107 118.333 117.867 118.101C117.627 117.868 117.308 117.734 116.974 117.724H103.373C103.215 117.722 103.058 117.754 102.912 117.816C102.766 117.878 102.635 117.97 102.527 118.085C102.419 118.201 102.337 118.338 102.285 118.487C102.233 118.636 102.213 118.794 102.225 118.951C102.248 119.282 102.392 119.592 102.629 119.824C102.867 120.056 103.182 120.192 103.515 120.207Z"
        fill="#363636" />
    <path opacity="0.4"
        d="M103.515 120.207H117.13C117.287 120.207 117.444 120.175 117.588 120.112C117.733 120.05 117.863 119.958 117.97 119.842C118.078 119.727 118.16 119.591 118.211 119.442C118.263 119.294 118.283 119.136 118.27 118.979C118.251 118.647 118.107 118.333 117.867 118.101C117.627 117.868 117.308 117.734 116.974 117.724H103.373C103.215 117.722 103.058 117.754 102.912 117.816C102.766 117.878 102.635 117.97 102.527 118.085C102.419 118.201 102.337 118.338 102.285 118.487C102.233 118.636 102.213 118.794 102.225 118.951C102.248 119.282 102.392 119.592 102.629 119.824C102.867 120.056 103.182 120.192 103.515 120.207Z"
        fill="#FAFAFA" />
    <path
        d="M63.1482 193.698L69.8874 176.956C70.6928 174.976 73.5679 174.976 75.0769 176.956L87.7498 193.698C89.2486 195.729 88.2494 198.176 85.9452 198.176H81.5408C86.0982 212.918 99.8926 224.635 115.033 226.604C116.316 226.785 117.513 227.356 118.458 228.239C119.403 229.122 120.052 230.275 120.314 231.539C120.474 232.208 120.46 232.908 120.274 233.571C120.089 234.234 119.736 234.839 119.251 235.329C118.766 235.819 118.164 236.179 117.501 236.374C116.838 236.568 116.136 236.592 115.461 236.443C95.325 233.843 76.9834 217.974 71.4779 198.196H66.5331C64.2289 198.176 62.3428 195.688 63.1482 193.698Z"
        fill="url(#paint2_linear_12079_66434)" />
    <path
        d="M106.968 156.153C106.809 155.484 106.822 154.786 107.008 154.124C107.193 153.462 107.545 152.858 108.028 152.368C108.512 151.878 109.113 151.518 109.775 151.322C110.436 151.127 111.137 151.101 111.811 151.249C131.947 153.848 150.288 169.717 155.794 189.496H160.79C163.094 189.496 164.98 191.983 164.175 193.963L157.436 210.705C156.64 212.736 153.755 212.736 152.246 210.705L139.522 193.973C138.023 191.993 139.023 189.506 141.327 189.506H145.741C141.174 174.763 127.389 163.047 112.239 161.077C110.959 160.895 109.766 160.325 108.823 159.444C107.879 158.563 107.232 157.414 106.968 156.153Z"
        fill="url(#paint3_linear_12079_66434)" />
    <defs>
        <linearGradient id="paint0_linear_12079_66434" x1="138.076" y1="99.6299" x2="170.923" y2="101.157"
            gradientUnits="userSpaceOnUse">
            <stop stop-color="#C00016" />
            <stop offset="1" stop-color="#5A000A" />
        </linearGradient>
        <linearGradient id="paint1_linear_12079_66434" x1="103.19" y1="123.805" x2="113.701" y2="268.721"
            gradientUnits="userSpaceOnUse">
            <stop stop-color="white" />
            <stop offset="1" stop-color="#E2E2E2" />
        </linearGradient>
        <linearGradient id="paint2_linear_12079_66434" x1="62.959" y1="175.471" x2="124.055" y2="179.349"
            gradientUnits="userSpaceOnUse">
            <stop stop-color="#C00016" />
            <stop offset="1" stop-color="#5A000A" />
        </linearGradient>
        <linearGradient id="paint3_linear_12079_66434" x1="106.858" y1="151.154" x2="167.997" y2="155.038"
            gradientUnits="userSpaceOnUse">
            <stop stop-color="#C00016" />
            <stop offset="1" stop-color="#5A000A" />
        </linearGradient>
    </defs>
</svg>
