<svg width="390" height="292" viewBox="0 0 390 292" fill="none" xmlns="http://www.w3.org/2000/svg">
    <g clip-path="url(#clip0_12272_9062)">
        <path d="M284.878 277.267H277.109L273.412 247.303H284.878V277.267Z" fill="#9E616A" />
        <path
            d="M288.978 290.729H283.407L282.412 285.469L279.865 290.729H265.089C264.381 290.729 263.691 290.503 263.121 290.083C262.55 289.663 262.129 289.072 261.918 288.396C261.707 287.72 261.718 286.994 261.949 286.324C262.18 285.655 262.619 285.076 263.202 284.674L275.002 276.525V271.207L287.413 271.948L288.978 290.729Z"
            fill="#2F2E41" />
        <path d="M331.031 267.463L324.797 272.098L303.95 250.259L313.151 243.417L331.031 267.463Z" fill="#9E616A" />
        <path
            d="M342.353 275.817L337.883 279.142L333.946 275.514L335.041 281.255L323.184 290.072C322.615 290.495 321.927 290.725 321.218 290.728C320.51 290.732 319.819 290.509 319.247 290.092C318.674 289.675 318.25 289.086 318.035 288.411C317.821 287.736 317.828 287.01 318.056 286.339L322.662 272.759L319.489 268.492L329.89 261.68L342.353 275.817Z"
            fill="#2F2E41" />
        <path
            d="M293.922 122.666C293.922 122.666 308.662 135.4 301.861 171.703L293.559 207.274L320.636 252.195L312.002 262.698L276.801 214.076L264.045 184.155L260.466 130.901L293.922 122.666Z"
            fill="#2F2E41" />
        <path d="M271.076 192.682L270.189 206.413L272.902 264.922L285.669 262.699L288.109 221.041L271.076 192.682Z"
            fill="#2F2E41" />
        <path d="M107.242 284.314L114.19 284.314L117.494 257.517L107.241 257.518L107.242 284.314Z" fill="#FFB6B6" />
        <path
            d="M105.47 282.044L107.426 282.044L115.06 278.939L119.152 282.043H119.153C121.465 282.044 123.683 282.962 125.318 284.597C126.953 286.232 127.871 288.45 127.872 290.762V291.046L105.471 291.047L105.47 282.044Z"
            fill="#2F2E41" />
        <path d="M134.165 279.937L140.941 281.466L150.068 256.056L140.066 253.798L134.165 279.937Z" fill="#FFB6B6" />
        <path
            d="M132.935 277.332L134.843 277.762L142.974 276.416L146.281 280.345L146.282 280.345C148.537 280.855 150.498 282.239 151.733 284.194C152.968 286.149 153.375 288.515 152.866 290.77L152.804 291.047L130.953 286.113L132.935 277.332Z"
            fill="#2F2E41" />
        <path
            d="M98.443 120.492C95.1858 130.316 95.5301 140.979 99.2259 152.424L100.806 216.861C100.806 216.861 98.4519 259.117 106.048 273.987H117.063L122.517 213.002L123.202 172.068L146.819 206.602L131.777 272.99L145.334 274.202L169.744 202.156L139.627 132.259L98.443 120.492Z"
            fill="#2F2E41" />
        <path
            d="M364.797 258.447C362.189 255.699 359.163 253.38 355.834 251.573C349.198 247.972 341.468 246.524 334.279 248.604C334.097 248.657 333.916 248.711 333.732 248.769L333.232 248.925L333.668 249.215C333.836 249.327 334.002 249.437 334.167 249.551L334.169 249.553C336.402 251.058 338.508 252.741 340.468 254.587L340.471 254.59L340.925 255.017C345.308 259.234 348.921 264.18 351.606 269.631L352.131 270.727C353.215 273.07 354.12 275.492 354.836 277.972C355.33 279.679 355.784 281.509 356.363 283.251C356.943 284.997 357.658 286.682 358.685 288.125C358.898 288.431 359.128 288.724 359.377 289.001L359.451 289.083L359.56 289.085L378.051 289.295L378.11 289.296L378.163 289.27C378.179 289.262 378.195 289.255 378.217 289.246C378.221 289.244 378.225 289.242 378.229 289.241L378.905 289.279L379.232 289.298L379.163 288.977C379.149 288.91 379.133 288.842 379.118 288.776C379.103 288.709 379.088 288.643 379.075 288.579C379.066 288.538 379.056 288.497 379.047 288.46C379.038 288.421 379.03 288.386 379.023 288.352L379.022 288.346C379.009 288.292 378.999 288.25 378.992 288.213L378.991 288.206L378.989 288.199C378.987 288.187 378.983 288.172 378.979 288.156C378.974 288.129 378.968 288.105 378.963 288.085C378.958 288.061 378.954 288.046 378.951 288.031L378.95 288.021L378.679 286.884C378.588 286.506 378.496 286.129 378.402 285.751C378.4 285.741 378.397 285.731 378.393 285.72C377.009 279.923 374.942 274.31 372.238 268.998L372.236 268.996C372.157 268.845 372.072 268.68 371.98 268.519L371.499 267.639C370.357 265.6 369.071 263.644 367.649 261.786L367.649 261.785C366.756 260.625 365.803 259.511 364.797 258.447L364.797 258.447Z"
            fill="white" stroke="#E6E6E6" stroke-width="0.5" />
        <path
            d="M333.846 249.241C343.032 251.175 351.376 255.954 357.692 262.899C359.079 264.37 360.224 266.051 361.087 267.879C361.87 269.687 362.155 271.671 361.912 273.626C361.722 275.453 361.315 277.301 361.573 279.142C361.719 280.083 362.062 280.983 362.579 281.782C363.097 282.581 363.778 283.261 364.577 283.779C366.535 285.12 368.857 285.677 371.148 286.144C373.691 286.662 376.341 287.159 378.45 288.776C378.705 288.971 378.994 288.563 378.739 288.368C375.07 285.556 370.104 286.081 366.077 284.079C364.198 283.145 362.59 281.64 362.146 279.52C361.758 277.667 362.175 275.762 362.383 273.913C362.649 272.009 362.444 270.07 361.786 268.264C361.019 266.398 359.94 264.676 358.596 263.172C355.622 259.738 352.127 256.793 348.239 254.444C343.816 251.74 338.963 249.811 333.89 248.743C333.576 248.677 333.534 249.175 333.846 249.241Z"
            fill="#E6E6E6" />
        <path
            d="M355.788 260.547C356.81 259.329 357.365 257.788 357.355 256.198C357.345 254.609 356.77 253.074 355.733 251.87C355.523 251.627 355.135 251.942 355.346 252.186C356.313 253.306 356.849 254.735 356.855 256.215C356.861 257.696 356.338 259.129 355.38 260.258C355.172 260.503 355.581 260.791 355.788 260.547Z"
            fill="#E6E6E6" />
        <path
            d="M362.129 272.713C358.895 273.026 355.662 272.108 353.074 270.143C352.818 269.948 352.529 270.356 352.785 270.55C355.481 272.59 358.848 273.538 362.213 273.206C362.534 273.174 362.448 272.681 362.129 272.713Z"
            fill="#E6E6E6" />
        <path
            d="M366.956 257.071C373.06 247.433 384.183 240.308 395.575 241.589L396.095 241.648L395.722 242.016C387.265 250.375 381.937 261.372 380.605 273.166L380.489 274.309C380.284 276.661 380.188 279.2 379.727 281.563C379.264 283.934 378.428 286.167 376.719 287.918C374.592 290.098 371.472 291.039 368.474 291.124C365.498 291.209 362.564 290.537 359.705 289.873L359.048 290.042L358.728 290.124L358.736 289.793C359.008 278.437 360.852 266.709 366.956 257.071Z"
            fill="white" stroke="#E6E6E6" stroke-width="0.5" />
        <path
            d="M395.553 242.076C386.911 245.743 379.644 252.039 374.784 260.072C373.707 261.782 372.907 263.652 372.412 265.612C371.992 267.537 372.095 269.539 372.71 271.41C373.249 273.167 374.003 274.901 374.105 276.758C374.143 277.709 373.98 278.658 373.626 279.542C373.272 280.425 372.735 281.224 372.051 281.886C370.388 283.579 368.216 284.574 366.058 285.473C363.663 286.471 361.158 287.47 359.4 289.462C359.187 289.703 358.825 289.359 359.038 289.118C362.097 285.651 367.071 285.21 370.636 282.47C372.3 281.192 373.588 279.404 373.616 277.239C373.64 275.346 372.863 273.557 372.302 271.783C371.676 269.966 371.503 268.023 371.8 266.124C372.193 264.145 372.92 262.248 373.95 260.513C376.206 256.571 379.069 253.008 382.432 249.954C386.251 246.448 390.641 243.621 395.414 241.595C395.709 241.47 395.846 241.951 395.553 242.076Z"
            fill="#E6E6E6" />
        <path
            d="M376.197 257.394C374.96 256.396 374.118 254.99 373.822 253.429C373.525 251.867 373.794 250.251 374.579 248.869C374.739 248.59 375.18 248.825 375.02 249.104C374.286 250.39 374.037 251.896 374.315 253.349C374.594 254.803 375.384 256.109 376.541 257.032C376.792 257.233 376.447 257.594 376.197 257.394Z"
            fill="#E6E6E6" />
        <path
            d="M372.319 270.557C375.553 270.241 378.549 268.718 380.71 266.291C380.924 266.05 381.286 266.395 381.072 266.635C378.819 269.157 375.698 270.736 372.332 271.057C372.011 271.088 372 270.588 372.319 270.557Z"
            fill="#E6E6E6" />
        <path
            d="M386.468 247.077C386.867 247.563 387.379 247.942 387.96 248.181C388.541 248.42 389.172 248.511 389.797 248.446C390.118 248.411 390.128 248.911 389.81 248.945C389.119 249.014 388.422 248.913 387.78 248.651C387.137 248.388 386.569 247.972 386.124 247.439C386.078 247.393 386.051 247.33 386.05 247.264C386.048 247.199 386.071 247.135 386.115 247.086C386.161 247.038 386.224 247.01 386.29 247.009C386.356 247.007 386.42 247.032 386.468 247.077Z"
            fill="#E6E6E6" />
        <path
            d="M258.856 117.933C258.711 118.544 258.72 119.182 258.883 119.789C259.045 120.396 259.356 120.953 259.787 121.41C260.009 121.643 259.618 121.955 259.398 121.723C258.924 121.216 258.581 120.6 258.4 119.93C258.219 119.26 258.205 118.556 258.359 117.879C258.368 117.814 258.401 117.755 258.452 117.714C258.504 117.673 258.569 117.653 258.634 117.658C258.7 117.665 258.76 117.698 258.801 117.75C258.843 117.801 258.862 117.867 258.856 117.933Z"
            fill="white" />
        <path
            d="M17.2744 234.567C17.2472 234.665 17.2205 234.761 17.1934 234.857C17.1663 234.953 17.1383 235.049 17.1113 235.145C16.391 237.74 15.8826 240.39 15.5898 243.067L15.5889 243.072C15.5622 243.277 15.5402 243.481 15.5225 243.69V243.694C14.8826 250.152 15.451 256.673 17.1982 262.923C17.2008 262.931 17.2028 262.939 17.2041 262.943C17.2053 262.947 17.2063 262.951 17.207 262.953L17.208 262.955L17.2119 262.968C17.499 264.004 17.8205 265.03 18.1768 266.043L18.5439 267.052C18.9404 268.11 19.3689 269.155 19.8369 270.181L20.5938 271.813C21.367 273.463 22.1618 275.164 22.7295 276.879C23.441 279.028 23.8076 281.233 23.333 283.447L23.2266 283.89C22.5933 286.266 20.9988 288.255 19.0605 289.744L18.6689 290.035C18.3232 290.284 17.969 290.514 17.6113 290.729L17.6084 290.731C17.5119 290.787 17.3946 290.858 17.2783 290.92C17.1524 290.994 17.0267 291.065 16.9004 291.131L16.8457 291.159H6.84082L6.77148 291.019C6.59428 290.66 6.42122 290.296 6.25 289.94V289.939C2.04557 281.104 -0.91943 271.547 -0.414062 261.8L-0.369141 261.091C-0.111442 257.549 0.667069 254.064 1.94238 250.748C4.64867 243.7 9.59431 237.581 16.415 234.498V234.499C16.585 234.421 16.7632 234.342 16.9365 234.269L17.4141 234.068L17.2744 234.567Z"
            fill="white" stroke="#E6E6E6" stroke-width="0.5" />
        <path
            d="M17.1562 234.705C17.0612 234.832 16.9661 234.954 16.8711 235.08C14.8833 237.715 13.1953 240.563 11.8384 243.571C11.766 243.72 11.6981 243.87 11.6393 244.023C9.78009 248.224 8.58608 252.689 8.10013 257.257C8.09488 257.288 8.09186 257.32 8.09109 257.352C7.97794 258.42 7.91005 259.497 7.8829 260.574C7.78226 262.593 8.00067 264.615 8.53008 266.566C9.0128 268.159 9.85869 269.619 11.0012 270.829C11.1143 270.952 11.2274 271.074 11.3496 271.192C11.4402 271.287 11.5397 271.382 11.6348 271.472C12.549 272.346 13.5492 273.156 14.409 274.093C14.8032 274.513 15.1591 274.967 15.4726 275.45C15.9729 276.26 16.2961 277.167 16.4209 278.111C16.5457 279.055 16.4693 280.014 16.1967 280.926C15.5812 283.216 14.1737 285.149 12.7345 286.991C12.0149 287.914 11.2727 288.847 10.63 289.833C10.3947 290.186 10.1775 290.544 9.97836 290.91H9.40811C9.59819 290.544 9.80638 290.186 10.0327 289.833C11.6846 287.231 14.0334 284.995 15.2509 282.13C16.0746 280.198 16.3235 278.007 15.2826 276.111C14.9775 275.56 14.6083 275.046 14.1828 274.581C13.3546 273.644 12.3634 272.843 11.4628 271.997C11.2365 271.784 11.0148 271.567 10.802 271.341C9.67431 270.195 8.80409 268.822 8.24951 267.313C7.62147 265.396 7.32455 263.387 7.37151 261.371C7.37151 260.085 7.4394 258.791 7.56612 257.506C7.5797 257.343 7.59781 257.175 7.61591 257.008C8.54145 248.92 11.6152 241.227 16.5181 234.727C16.6086 234.601 16.7036 234.479 16.7987 234.356C16.9933 234.103 17.3508 234.456 17.1562 234.705Z"
            fill="#E6E6E6" />
        <path
            d="M7.79831 257.547C6.23072 257.284 4.80776 256.472 3.78356 255.256C2.75936 254.041 2.20061 252.501 2.20709 250.911C2.20795 250.846 2.23394 250.784 2.27958 250.738C2.32522 250.692 2.38695 250.666 2.45176 250.664C2.51656 250.663 2.57939 250.687 2.627 250.731C2.67461 250.775 2.70328 250.835 2.70698 250.9C2.69822 252.38 3.21884 253.815 4.17489 254.945C5.13093 256.075 6.45943 256.826 7.92059 257.062C8.23806 257.114 8.11396 257.599 7.79831 257.547Z"
            fill="#E6E6E6" />
        <path
            d="M10.8754 270.918C13.5387 269.057 15.4024 266.26 16.095 263.085C16.1634 262.771 16.648 262.893 16.5797 263.208C15.8528 266.51 13.9074 269.417 11.1317 271.348C10.867 271.532 10.6122 271.101 10.8754 270.918Z"
            fill="#E6E6E6" />
        <path
            d="M11.6884 243.517C12.2737 243.745 12.9065 243.824 13.53 243.747C14.1536 243.671 14.7483 243.44 15.2608 243.077C15.523 242.89 15.7775 243.32 15.517 243.506C14.9489 243.905 14.2918 244.159 13.6031 244.245C12.9144 244.331 12.215 244.248 11.5661 244.001C11.503 243.983 11.4491 243.942 11.4154 243.885C11.3818 243.829 11.3708 243.762 11.3849 243.698C11.4014 243.634 11.4425 243.579 11.4994 243.545C11.5562 243.511 11.6241 243.501 11.6884 243.517Z"
            fill="#E6E6E6" />
        <path
            d="M29.335 256.062C35.723 252.099 43.309 250.198 50.5791 251.829H50.584L50.6104 251.835C50.7966 251.876 50.9798 251.917 51.168 251.963L51.6729 252.086L51.2617 252.403C51.0997 252.528 50.9413 252.647 50.7852 252.772L50.7812 252.776C48.6433 254.412 46.6411 256.218 44.7959 258.179L44.7939 258.182C44.6509 258.329 44.5076 258.481 44.3691 258.633L44.3613 258.642L44.3604 258.641C39.9852 263.391 36.5267 268.91 34.1572 274.917L34.1484 274.945C34.1436 274.96 34.1379 274.971 34.1357 274.977C34.1348 274.979 34.135 274.981 34.1348 274.982L34.1309 274.993L33.8975 274.902L34.1299 274.993C33.1908 277.398 32.4331 279.869 31.8643 282.387L31.8652 282.388C31.3172 284.841 30.8577 287.516 29.9863 289.916C29.8531 290.288 29.707 290.657 29.5508 291.011L29.4844 291.16H8.89844L8.9541 290.863C9.02226 290.504 9.09551 290.141 9.16797 289.783C10.1951 284.522 11.8001 279.39 13.9541 274.481L13.9551 274.48C14.0271 274.318 14.1012 274.149 14.1855 273.981C15.2984 271.554 16.6059 269.222 18.0967 267.007L18.0977 267.005L18.127 266.961L18.1338 266.956C18.9455 265.761 19.8169 264.608 20.7441 263.5V263.499C23.1815 260.599 26.0605 258.101 29.2754 256.098C29.2818 256.093 29.2879 256.09 29.293 256.087C29.3021 256.082 29.311 256.076 29.3154 256.073C29.3185 256.072 29.3201 256.07 29.3213 256.069L29.3252 256.068L29.335 256.062Z"
            fill="white" stroke="#E6E6E6" stroke-width="0.5" />
        <path
            d="M51.0858 252.445C50.9319 252.485 50.778 252.531 50.6287 252.576C47.4568 253.482 44.3953 254.737 41.5002 256.319C41.3554 256.396 41.2106 256.477 41.0657 256.559C37.0648 258.792 33.433 261.63 30.2989 264.972C30.2965 264.974 30.2949 264.978 30.2944 264.981C30.2582 265.017 30.2175 265.058 30.1858 265.094C29.4617 265.873 28.7647 266.683 28.1039 267.515C26.8114 269.068 25.77 270.814 25.0174 272.688C24.4423 274.251 24.2393 275.926 24.4245 277.581C24.4381 277.748 24.4607 277.911 24.4833 278.079C24.5014 278.21 24.5195 278.341 24.5422 278.477C24.8409 280.292 25.3568 282.111 25.212 283.962C25.1239 284.911 24.8359 285.83 24.3671 286.659C23.8983 287.488 23.2593 288.208 22.492 288.773C21.9704 289.176 21.4129 289.531 20.8265 289.832C19.9881 290.264 19.1145 290.625 18.2152 290.909H16.4365C16.6764 290.841 16.9117 290.773 17.1516 290.705C18.0028 290.465 18.8386 290.174 19.6543 289.832C20.1204 289.637 20.5738 289.413 21.0121 289.162C22.8314 288.117 24.3476 286.515 24.6644 284.374C24.9404 282.5 24.4064 280.627 24.0896 278.794C24.0353 278.477 23.9855 278.165 23.9583 277.852C23.7423 276.265 23.8735 274.65 24.343 273.118C24.9942 271.208 25.9678 269.423 27.2214 267.841C27.9969 266.811 28.8247 265.822 29.7015 264.877C29.8102 264.755 29.9233 264.633 30.041 264.51C33.2409 261.144 36.9357 258.286 40.9978 256.034H41.0024C44.0228 254.352 47.2271 253.025 50.5517 252.078H50.5563C50.7056 252.033 50.8595 251.988 51.0088 251.947C51.3211 251.865 51.3935 252.359 51.0858 252.445Z"
            fill="#E6E6E6" />
        <path
            d="M29.862 265.048C28.7689 263.894 28.1216 262.389 28.0357 260.802C27.9498 259.215 28.4309 257.649 29.3931 256.384C29.5886 256.128 29.9946 256.42 29.7988 256.676C28.9006 257.852 28.4526 259.311 28.5356 260.789C28.6186 262.267 29.2272 263.667 30.2514 264.735C30.4738 264.968 30.083 265.28 29.862 265.048Z"
            fill="#E6E6E6" />
        <path
            d="M24.2676 277.577C27.5148 277.694 30.6869 276.583 33.1513 274.466C33.3953 274.256 33.7084 274.645 33.4647 274.855C30.896 277.054 27.5926 278.204 24.2138 278.074C23.8917 278.062 23.9473 277.565 24.2676 277.577Z"
            fill="#E6E6E6" />
        <path
            d="M41.4156 256.188C41.7455 256.723 42.203 257.167 42.7471 257.482C43.2912 257.796 43.9047 257.97 44.5327 257.988C44.8547 257.997 44.7988 258.494 44.4789 258.485C43.7852 258.462 43.1078 258.269 42.5059 257.923C41.904 257.577 41.396 257.089 41.0261 256.502C40.9866 256.449 40.9686 256.384 40.9756 256.319C40.9827 256.253 41.0143 256.193 41.0642 256.15C41.1159 256.109 41.1819 256.09 41.2477 256.097C41.3135 256.104 41.3738 256.137 41.4156 256.188Z"
            fill="#E6E6E6" />
        <path
            d="M206.328 78.3528C205.864 78.9638 205.271 79.4655 204.591 79.8226C203.912 80.1797 203.163 80.3834 202.396 80.4196C201.63 80.4557 200.864 80.3233 200.154 80.0317C199.444 79.7402 198.807 79.2965 198.287 78.7319L181.18 86.1723L182.846 76.6222L198.836 71.0208C199.843 70.2103 201.111 69.7971 202.402 69.8594C203.692 69.9218 204.915 70.4554 205.839 71.3592C206.762 72.263 207.322 73.4741 207.412 74.763C207.502 76.052 207.117 77.3293 206.328 78.3528Z"
            fill="#FFB8B8" />
        <path
            d="M194.912 81.3352L155.177 99.0347L155.091 99.0042L109.804 82.8658C106.43 81.1028 103.858 78.117 102.615 74.5196C101.371 70.9223 101.549 66.9856 103.114 63.5156C103.981 61.5984 105.244 59.8865 106.82 58.4927C108.397 57.0989 110.25 56.0548 112.259 55.429C114.268 54.8032 116.387 54.61 118.476 54.8621C120.565 55.1141 122.577 55.8058 124.379 56.8914L158.082 77.1936L190.763 72.958L194.912 81.3352Z"
            fill="#C4C4C4" />
        <path
            d="M390.219 291.277C390.22 291.348 390.206 291.418 390.179 291.483C390.152 291.549 390.112 291.608 390.062 291.658C390.012 291.708 389.953 291.748 389.887 291.775C389.822 291.802 389.752 291.816 389.681 291.815H0.33397C0.191134 291.815 0.0541524 291.759 -0.0468483 291.658C-0.147849 291.557 -0.20459 291.42 -0.20459 291.277C-0.20459 291.134 -0.147849 290.997 -0.0468483 290.896C0.0541524 290.795 0.191134 290.738 0.33397 290.738H389.681C389.752 290.738 389.822 290.752 389.887 290.779C389.953 290.806 390.012 290.846 390.062 290.896C390.112 290.946 390.152 291.005 390.179 291.071C390.206 291.136 390.22 291.206 390.219 291.277Z"
            fill="#E6E6E6" />
        <path
            d="M141.592 134.323L101.537 127.916C100.486 127.579 99.5208 127.02 98.707 126.275C97.8932 125.53 97.2503 124.618 96.8222 123.601C96.3942 122.585 96.1912 121.487 96.2272 120.385C96.2633 119.282 96.5374 118.201 97.0309 117.214L98.8474 113.581L98.1418 75.4075C98.0568 70.442 99.2809 65.5418 101.691 61.1996C104.101 56.8575 107.612 53.2267 111.871 50.6725L115.778 48.3369L117.752 43.3239L135.954 43.7678L136.007 50.3426L142.526 60.7375L142.526 60.7806L142.117 117.359L140.32 123.198L143.037 129.989L141.592 134.323Z"
            fill="#C4C4C4" />
        <path
            d="M128.52 37.0904C137.654 37.0904 145.059 29.6856 145.059 20.5513C145.059 11.4171 137.654 4.01233 128.52 4.01233C119.386 4.01233 111.981 11.4171 111.981 20.5513C111.981 29.6856 119.386 37.0904 128.52 37.0904Z"
            fill="#FFB8B8" />
        <path
            d="M111.298 24.1565C110.804 22.0783 111.031 19.1539 111.309 17.0615C112.04 11.5756 115.087 6.36041 119.715 3.27124C120.593 2.60467 121.636 2.19024 122.732 2.07261C123.826 2.0269 125.013 2.61307 125.35 3.65617C125.625 2.96772 126.039 2.3431 126.566 1.82088C127.093 1.29865 127.721 0.889892 128.411 0.619839C129.799 0.088223 131.291 -0.112822 132.77 0.0326416C135.636 0.268904 138.385 1.27676 140.725 2.94924C143.065 4.62172 144.908 6.89643 146.059 9.53198C146.501 10.5814 147.735 6.70509 148.294 7.69666C148.809 8.72733 149.706 9.51575 150.794 9.8932C151.891 10.1992 152.337 14.7178 152.768 13.6642C153.103 14.4428 153.235 15.2936 153.153 16.1372C153.071 16.9808 152.776 17.7898 152.297 18.4889C151.817 19.188 151.169 19.7544 150.412 20.1354C149.654 20.5164 148.813 20.6996 147.966 20.6679C146.85 20.6261 145.782 20.2156 144.68 20.0388C140.735 19.4068 136.551 22.2669 135.708 26.1715C135.406 25.0423 134.924 23.9693 134.28 22.994C133.953 22.5088 133.515 22.1088 133.002 21.8271C132.489 21.5454 131.917 21.3901 131.332 21.3743C130.21 21.4163 129.224 22.15 128.495 23.0049C127.767 23.8599 127.22 24.8573 126.487 25.7077C124.335 28.2027 121.424 34.0214 118.357 33.597C115.936 33.2621 111.971 26.994 111.298 24.1565Z"
            fill="#2F2E41" />
        <path
            d="M228.496 97.0951C228.612 96.3412 228.457 95.5705 228.059 94.9199C227.66 94.2692 227.045 93.7807 226.321 93.5408L181.781 78.7066C181.354 78.5638 180.902 78.5119 180.454 78.5542L169.29 79.6099L162.884 80.2175L151.064 81.3346C150.35 81.4029 149.679 81.7061 149.156 82.1967C148.633 82.6873 148.288 83.3375 148.175 84.0454L142.173 121.536C142.059 122.267 142.198 123.015 142.567 123.657C142.936 124.298 143.513 124.795 144.202 125.064L189.207 142.436C189.418 142.518 189.637 142.577 189.861 142.612C190.187 142.664 190.519 142.667 190.846 142.619L219.926 138.309C220.612 138.21 221.248 137.892 221.739 137.403C222.23 136.914 222.55 136.279 222.652 135.594L228.496 97.0951Z"
            fill="white" />
        <path
            d="M145.223 122.423L190.227 139.794C190.293 139.82 190.364 139.828 190.434 139.818L219.51 135.508C219.597 135.497 219.677 135.457 219.738 135.396C219.8 135.334 219.84 135.254 219.852 135.168L225.699 96.669C225.713 96.575 225.693 96.4793 225.643 96.3982C225.594 96.3172 225.518 96.2559 225.428 96.2248L225.129 96.1235L180.886 81.394C180.866 81.3868 180.845 81.3818 180.824 81.3789C180.789 81.3726 180.754 81.3708 180.719 81.3735L153.491 83.9501L151.33 84.1529C151.241 84.1623 151.158 84.2005 151.093 84.2616C151.028 84.3227 150.985 84.4034 150.97 84.4913L144.969 121.98C144.955 122.072 144.972 122.166 145.018 122.246C145.064 122.327 145.136 122.389 145.223 122.423Z"
            fill="url(#paint0_linear_12272_9062)" />
        <path
            d="M153.49 83.9501L180.719 81.3735C180.754 81.3708 180.789 81.3726 180.823 81.3789C180.844 81.3818 180.865 81.3868 180.885 81.394L225.128 96.1235L213.458 97.3588L209.09 97.819L196.662 99.132C196.626 99.1338 196.59 99.1334 196.553 99.1307C196.531 99.124 196.509 99.1173 196.483 99.1103L153.49 83.9501Z"
            fill="#2F2E41" />
        <path
            d="M144.202 125.067L189.206 142.438C189.418 142.519 189.638 142.577 189.862 142.609C190.188 142.663 190.52 142.667 190.848 142.622L219.924 138.312C220.611 138.212 221.246 137.894 221.738 137.405C222.229 136.915 222.55 136.281 222.653 135.595L228.495 97.0953C228.582 96.5277 228.516 95.9474 228.306 95.4132C228.276 95.3422 228.247 95.2712 228.212 95.2043C227.981 94.7166 227.628 94.2963 227.188 93.9834C226.923 93.7932 226.63 93.6441 226.321 93.5414L226.268 93.5227L181.783 78.7065C181.602 78.6485 181.416 78.6034 181.228 78.5716C180.971 78.5352 180.71 78.5301 180.452 78.5566L169.29 79.6087L162.885 80.2196L151.062 81.3359C150.579 81.3811 150.112 81.5354 149.696 81.7873C149.664 81.8029 149.633 81.8212 149.605 81.8422C149.584 81.8556 149.564 81.8705 149.546 81.8866C149.183 82.1342 148.875 82.453 148.639 82.8237C148.404 83.1943 148.246 83.609 148.176 84.0425L142.17 121.536C142.057 122.267 142.196 123.016 142.565 123.658C142.935 124.3 143.512 124.797 144.202 125.067ZM148.973 84.1732C149.046 83.7239 149.245 83.3045 149.547 82.9643C149.639 82.8548 149.741 82.7549 149.853 82.6661C150.159 82.4193 150.52 82.2509 150.905 82.1756C150.981 82.1599 151.058 82.149 151.135 82.143L171.042 80.2625L180.53 79.3596C180.594 79.3521 180.653 79.3532 180.713 79.3498C180.856 79.3468 181 79.3575 181.142 79.3817C181.272 79.3986 181.4 79.4291 181.524 79.4727L226.061 94.3077C226.096 94.3201 226.127 94.3321 226.162 94.3446C226.567 94.4953 226.923 94.7541 227.191 95.093C227.403 95.3525 227.557 95.6537 227.645 95.9769C227.732 96.3002 227.75 96.6383 227.698 96.9691L221.851 135.473C221.774 135.986 221.534 136.462 221.167 136.828C220.799 137.195 220.324 137.434 219.81 137.51L190.729 141.819C190.313 141.879 189.888 141.831 189.497 141.679L144.492 124.312C143.976 124.109 143.545 123.737 143.268 123.256C142.992 122.775 142.887 122.215 142.972 121.667L148.973 84.1732Z"
            fill="#3F3D56" />
        <path
            d="M149.449 82.0907C149.473 82.0224 149.515 81.962 149.57 81.9159C149.589 81.9011 149.608 81.8878 149.629 81.876C149.647 81.8687 149.667 81.8569 149.686 81.8496C149.776 81.8133 149.877 81.8116 149.968 81.8448L150.905 82.1752L196.667 98.3184L207.378 97.1867L213.371 96.5546L226.057 95.2116L227.191 95.0927L227.411 95.0683C227.506 95.0596 227.602 95.0844 227.68 95.1384C227.759 95.1924 227.816 95.2723 227.842 95.3641C227.848 95.3852 227.852 95.4069 227.854 95.4288C227.864 95.516 227.844 95.6038 227.799 95.679C227.755 95.7543 227.686 95.8129 227.605 95.8461C227.569 95.861 227.532 95.8711 227.493 95.8763L225.95 96.038L213.458 97.3585L209.09 97.8186L196.662 99.1317C196.626 99.1335 196.59 99.133 196.553 99.1304C196.531 99.1237 196.509 99.117 196.483 99.1099L149.853 82.6658L149.695 82.6097C149.659 82.5978 149.625 82.5792 149.596 82.5548C149.525 82.503 149.473 82.4301 149.446 82.3467C149.42 82.2632 149.421 82.1736 149.449 82.0907Z"
            fill="#3F3D56" />
        <path
            d="M189.985 142.728C189.88 142.711 189.785 142.653 189.722 142.567C189.66 142.481 189.633 142.374 189.649 142.268L196.219 98.6695C196.235 98.5634 196.293 98.4681 196.379 98.4044C196.465 98.3407 196.573 98.3139 196.679 98.3298L196.683 98.3304C196.788 98.3473 196.883 98.405 196.946 98.4911C197.009 98.5772 197.035 98.6847 197.019 98.7901L190.449 142.389C190.433 142.495 190.375 142.59 190.289 142.654C190.203 142.718 190.095 142.744 189.989 142.728L189.985 142.728Z"
            fill="#3F3D56" />
        <path
            d="M206.638 139.961L202.269 140.423L207.38 97.1858C207.38 97.1858 213.215 96.1292 213.372 96.5529C213.468 96.8058 206.68 139.684 206.638 139.961Z"
            fill="#3F3D56" />
        <path d="M149.696 82.6095L149.579 102.327L184.484 115.627L197.019 98.7896L149.696 82.6095Z" fill="#3F3D56" />
        <path
            d="M227.192 95.094C226.9 94.7273 226.507 94.454 226.062 94.3081L181.526 79.4737C181.401 79.4316 181.273 79.4003 181.142 79.3801C181 79.3558 180.856 79.345 180.712 79.3479L180.784 78.8966L181.23 78.5738L191.806 70.9167L227.125 81.741L227.187 93.9839L227.192 95.094Z"
            fill="#3F3D56" />
        <path
            d="M151.475 114.262C151.525 114.267 151.574 114.277 151.622 114.293L165.287 118.781C165.458 118.837 165.6 118.959 165.681 119.12C165.763 119.28 165.777 119.467 165.721 119.638C165.665 119.809 165.543 119.951 165.382 120.032C165.221 120.113 165.035 120.127 164.864 120.071L151.199 115.583C151.04 115.531 150.906 115.422 150.823 115.278C150.739 115.133 150.712 114.963 150.746 114.799C150.78 114.636 150.874 114.491 151.008 114.392C151.142 114.292 151.309 114.246 151.475 114.262Z"
            fill="white" />
        <path
            d="M206.609 196.977C209.609 196.977 212.04 194.545 212.04 191.546C212.04 188.546 209.609 186.115 206.609 186.115C203.61 186.115 201.178 188.546 201.178 191.546C201.178 194.545 203.61 196.977 206.609 196.977Z"
            fill="white" />
        <path
            d="M68.1209 216.889C71.1203 216.889 73.5518 214.458 73.5518 211.459C73.5518 208.459 71.1203 206.028 68.1209 206.028C65.1214 206.028 62.6899 208.459 62.6899 211.459C62.6899 214.458 65.1214 216.889 68.1209 216.889Z"
            fill="white" />
        <path
            d="M181.265 37.2171C184.264 37.2171 186.696 34.7856 186.696 31.7861C186.696 28.7867 184.264 26.3552 181.265 26.3552C178.265 26.3552 175.834 28.7867 175.834 31.7861C175.834 34.7856 178.265 37.2171 181.265 37.2171Z"
            fill="white" />
        <path
            d="M190.175 122.25C189.471 122.556 188.709 122.704 187.942 122.683C187.175 122.662 186.421 122.474 185.735 122.13C185.049 121.787 184.446 121.297 183.969 120.696C183.493 120.094 183.154 119.396 182.976 118.649L164.415 116.774L170.538 109.258L187.226 112.191C188.5 111.976 189.808 112.236 190.904 112.922C191.999 113.607 192.805 114.671 193.168 115.911C193.532 117.15 193.428 118.481 192.876 119.649C192.325 120.818 191.364 121.743 190.175 122.25Z"
            fill="#FFB8B8" />
        <path
            d="M178.759 119.268L135.443 115.277L135.384 115.209L103.771 78.9859C101.691 75.7985 100.907 71.9364 101.582 68.1904C102.256 64.4443 104.337 61.0976 107.398 58.8357C109.092 57.5873 111.031 56.7117 113.087 56.2667C115.144 55.8217 117.271 55.8173 119.329 56.2538C121.388 56.6903 123.33 57.5578 125.029 58.7991C126.728 60.0405 128.145 61.6276 129.186 63.456L148.657 97.6456L179.236 109.932L178.759 119.268Z"
            fill="#C4C4C4" />
        <path
            d="M287.479 49.61C286.403 41.7198 285.054 33.2486 279.489 27.5528C277.723 25.7456 275.61 24.3146 273.276 23.3462C270.942 22.3778 268.437 21.8921 265.91 21.9182C263.383 21.9444 260.888 22.4819 258.575 23.4984C256.262 24.5149 254.179 25.9893 252.45 27.8327C248.4 32.1542 246.611 38.2224 246.447 44.1435C246.283 50.0646 247.602 55.9199 249.065 61.6597C256.807 61.8144 264.491 60.3018 271.597 57.2248C273.374 56.4536 275.122 55.5817 276.999 55.1039C278.876 54.6261 280.214 55.8284 281.961 56.6668L282.919 54.8314C283.704 56.2916 286.134 55.8588 287.015 54.4547C287.896 53.0506 287.703 51.2525 287.479 49.61Z"
            fill="#2F2E41" />
        <path
            d="M256.791 93.6496L225.167 94.3259C224.681 93.4864 223.962 92.8062 223.097 92.3679C222.232 91.9297 221.258 91.7524 220.294 91.8575C219.329 91.9627 218.417 92.3458 217.666 92.9602C216.916 93.5747 216.36 94.394 216.067 95.3184C215.774 96.2429 215.756 97.2326 216.015 98.1672C216.274 99.1019 216.799 99.941 217.526 100.583C218.253 101.224 219.151 101.641 220.111 101.781C221.071 101.922 222.05 101.78 222.931 101.374C227.125 101.613 259.939 106.27 261.897 103.269C263.884 100.222 274.489 89.4712 274.489 89.4712L266.337 77.8655L256.791 93.6496Z"
            fill="#9E616A" />
        <path
            d="M264.497 57.4151C272.703 57.4151 279.355 50.7629 279.355 42.557C279.355 34.3511 272.703 27.6989 264.497 27.6989C256.291 27.6989 249.639 34.3511 249.639 42.557C249.639 50.7629 256.291 57.4151 264.497 57.4151Z"
            fill="#9E616A" />
        <path
            d="M288.295 71.1461C286.544 67.6613 285.693 63.3563 281.96 62.2266C279.44 61.4637 269.244 62.607 266.947 63.8948C263.126 66.0369 266.589 70.0509 264.334 73.8072C261.883 77.8906 255.223 86.0854 252.772 90.1689C251.087 92.9761 256.763 101.216 255.851 104.361C254.941 107.505 254.897 111.035 256.449 113.918C257.838 116.498 255.828 118.781 257.225 121.357C258.677 124.036 260.46 134.053 259.108 136.784L258.203 139.5C267.185 140.027 274.738 129.297 283.664 128.166C285.881 127.886 288.183 127.519 290.01 126.232C292.702 124.336 293.765 120.896 294.43 117.672C297.63 101.913 295.471 85.5369 288.295 71.1461Z"
            fill="url(#paint1_linear_12272_9062)" />
        <path
            d="M301.761 107.941C300.51 104.526 298.245 89.5952 298.245 89.5952L284.069 89.1796L291 106.274L272.086 132.751C272.086 132.751 272.121 132.809 272.185 132.913C271.191 132.754 270.171 132.898 269.26 133.327C268.349 133.757 267.589 134.451 267.079 135.32C266.569 136.188 266.333 137.19 266.402 138.195C266.471 139.2 266.842 140.16 267.466 140.951C268.09 141.741 268.938 142.325 269.899 142.626C270.861 142.926 271.89 142.93 272.853 142.636C273.817 142.342 274.669 141.763 275.298 140.977C275.927 140.191 276.304 139.233 276.38 138.229C276.45 138.269 276.531 138.283 276.61 138.269C276.689 138.256 276.761 138.215 276.814 138.154C278.918 135.513 303.012 111.356 301.761 107.941Z"
            fill="#9E616A" />
        <path
            d="M303.203 98.511C301.902 93.0191 300.591 87.4974 298.397 82.2972C296.203 77.097 293.063 72.1853 288.645 68.6722C287.233 67.549 285.654 66.5576 283.884 66.2084C282.114 65.8592 280.119 66.25 278.875 67.5577C276.886 69.6502 277.484 73.009 278.214 75.8027C280.366 84.0397 282.518 92.2768 284.669 100.514C290.883 99.8553 297.096 99.1966 303.31 98.538L303.203 98.511Z"
            fill="#8C0010" />
        <path
            d="M282.703 44.6186C282.156 41.0242 281.585 37.3998 280.299 34.0153C279.014 30.6309 276.941 27.4609 273.969 25.5436C269.263 22.5082 263.17 23.0936 257.893 24.8397C253.813 26.19 249.829 28.2425 246.952 31.542C244.074 34.8416 242.458 39.5498 243.528 43.8642C249.157 42.5344 254.785 41.2046 260.414 39.8748L259.797 40.3102C261.646 41.2317 263.259 42.5621 264.516 44.2005C265.774 45.8389 266.641 47.7421 267.053 49.7657C267.455 51.8139 267.397 53.926 266.883 55.9491C266.37 57.9723 265.412 59.8559 264.081 61.4638C267.92 60.1021 271.758 58.7404 275.597 57.3787C277.966 56.5382 280.502 55.5697 281.907 53.4139C283.536 50.9144 283.158 47.6015 282.703 44.6186Z"
            fill="#2F2E41" />
    </g>
    <defs>
        <linearGradient id="paint0_linear_12272_9062" x1="144.964" y1="81.3723" x2="230.408" y2="89.335"
            gradientUnits="userSpaceOnUse">
            <stop stop-color="#C00016" />
            <stop offset="1" stop-color="#5A000A" />
        </linearGradient>
        <linearGradient id="paint1_linear_12272_9062" x1="252.458" y1="61.9811" x2="298.736" y2="63.7292"
            gradientUnits="userSpaceOnUse">
            <stop stop-color="#C00016" />
            <stop offset="1" stop-color="#5A000A" />
        </linearGradient>
        <clipPath id="clip0_12272_9062">
            <rect width="390.439" height="291.815" fill="white" transform="translate(-0.219727)" />
        </clipPath>
    </defs>
</svg>
