<svg width="237" height="319" viewBox="0 0 237 319" fill="none" xmlns="http://www.w3.org/2000/svg">
    <g opacity="0.03">
        <path
            d="M139.59 101.621C147.741 108.664 152.836 118.726 153.854 126.775C154.873 132.812 155.892 137.842 152.836 144.885C149.779 151.928 147.741 151.928 150.798 154.947C153.854 157.965 154.873 158.971 154.873 157.965C155.892 157.965 166.081 156.959 172.194 150.922C178.308 144.885 182.383 129.793 182.383 121.744C181.364 112.689 178.308 99.6087 165.062 88.5411C151.817 77.4735 140.609 73.4489 132.458 74.4551C123.288 75.4612 118.194 78.4797 117.175 81.4981C116.156 84.5165 108.005 88.5411 105.967 89.5473C103.929 90.5534 98.8347 89.5473 98.8347 94.578C98.8347 98.6026 101.891 102.627 103.929 102.627C104.948 102.627 105.967 101.621 106.986 100.615C106.986 99.6087 114.118 96.5903 117.175 95.5841C119.212 94.578 123.288 93.5718 127.364 94.578C129.401 95.5841 133.477 96.5903 139.59 101.621Z"
            fill="#E21013" />
        <path
            d="M83.5494 167.02C83.5494 167.02 82.5306 168.026 82.5306 169.032C83.5494 172.051 86.6061 170.039 86.6061 170.039C86.6061 170.039 88.6439 175.069 89.6627 177.082C90.6816 179.094 90.6816 185.131 89.6627 191.168C89.6627 197.205 91.7005 200.223 91.7005 200.223C91.7005 200.223 115.135 226.383 121.248 232.42C127.361 238.457 128.38 238.457 133.475 237.45C138.569 237.45 145.701 233.426 151.815 227.389C157.928 221.352 159.966 216.321 162.004 210.284C164.041 204.248 158.947 200.223 147.739 188.149C135.513 176.075 127.361 169.032 124.305 167.02C121.248 165.008 109.022 159.977 105.965 159.977C102.908 159.977 99.8516 155.953 99.8516 155.953C99.8516 155.953 101.889 153.94 100.87 151.928C99.8516 149.916 96.7949 150.922 96.7949 150.922C97.8138 148.91 97.8138 146.897 94.7572 144.885C91.7005 142.873 87.625 146.897 87.625 146.897C87.625 146.897 77.4361 154.946 75.3984 156.959C73.3606 158.971 71.3228 161.989 74.3795 165.008C79.4739 170.039 83.5494 167.02 83.5494 167.02Z"
            fill="#E21013" />
        <path
            d="M229.248 147.904C229.248 147.904 225.173 138.848 231.286 133.818C231.286 133.818 231.286 138.848 236.38 144.885C241.475 149.916 241.475 151.928 241.475 151.928C241.475 151.928 243.512 148.91 243.512 146.898C243.512 144.885 246.569 145.891 247.588 147.904C248.607 149.916 250.645 149.916 247.588 154.947C244.531 159.977 242.494 160.984 242.494 160.984C242.494 160.984 245.55 162.996 246.569 166.014C247.588 168.027 250.645 174.063 255.739 178.088C255.739 178.088 245.55 178.088 241.475 176.076C241.475 176.076 243.512 190.162 232.305 198.211C221.097 206.26 202.757 208.272 196.644 202.236C190.53 195.193 187.474 193.18 182.379 186.137C177.285 179.094 179.323 167.02 184.417 158.971C188.493 150.922 201.738 144.885 207.852 144.885C217.021 143.879 221.097 141.867 229.248 147.904Z"
            fill="#E21013" />
        <path
            d="M311.779 99.6082C313.817 97.5959 321.968 90.5529 315.855 79.4853C308.723 66.4054 297.515 69.4238 295.477 70.43C289.364 62.3808 283.25 54.3316 276.118 47.2886C262.873 34.2087 248.608 24.1472 233.325 17.1042L212.947 70.43C244.533 88.5406 265.929 122.75 265.929 160.983C265.929 167.02 264.911 173.057 263.892 179.094L317.893 199.217C320.949 187.143 322.987 174.063 322.987 160.983C324.006 138.848 319.93 117.719 311.779 99.6082ZM309.741 80.4914C312.798 85.5222 308.723 88.5406 307.704 89.5467C305.666 85.5222 303.628 81.4976 301.59 77.473C302.609 77.473 307.704 76.4669 309.741 80.4914Z"
            fill="#E21013" />
        <path
            d="M161.999 0C141.621 0 121.244 4.02458 102.904 11.0676L103.923 10.0615C103.923 10.0615 95.7717 -1.00615 83.5451 6.03688C71.3184 12.0738 73.3562 23.1414 74.3751 25.1537C65.2051 31.1905 56.0352 38.2336 47.8841 46.2827C35.6575 58.3565 25.4686 71.4364 18.3365 86.5286L70.2996 106.651C88.6395 75.461 122.263 55.338 160.98 55.338C168.112 55.338 174.226 56.3442 180.339 57.3503L200.717 4.02459C188.49 1.00615 175.245 0 161.999 0ZM82.5262 20.1229C81.5073 18.1106 80.4884 14.086 84.5639 11.0676C89.6584 8.04917 93.7339 13.0799 93.7339 14.086C90.6772 16.0983 86.6017 18.1106 82.5262 20.1229Z"
            fill="#E21013" />
        <path
            d="M55.0198 159.977C55.0198 152.934 56.0387 145.891 57.0575 138.848L5.09442 118.725C2.03777 131.805 0 145.891 0 159.977C0 180.1 4.07554 199.217 10.1888 217.327C10.1888 217.327 -1.01889 225.377 6.11331 237.45C13.2455 250.53 24.4532 247.512 25.4721 246.506C31.5854 255.561 38.7176 264.616 46.8687 272.666C59.0953 284.739 72.3408 294.801 87.6241 301.844L108.002 250.53C76.4163 232.42 55.0198 198.211 55.0198 159.977ZM12.2266 235.438C9.16996 230.407 14.2644 226.383 14.2644 226.383C16.3022 230.407 18.3399 234.432 20.3777 238.457C19.3588 238.457 14.2644 240.469 12.2266 235.438Z"
            fill="#E21013" />
        <path
            d="M306.68 230.408L252.679 210.285C234.339 242.481 199.697 264.617 159.96 264.617C152.828 264.617 146.715 263.61 140.602 262.604L120.224 313.918C133.469 316.936 147.734 318.948 160.979 318.948C182.376 318.948 201.735 314.924 221.094 307.881C222.112 308.887 230.263 317.942 242.49 311.905C255.736 304.862 252.679 293.795 251.66 291.782C259.811 285.746 267.962 279.709 275.094 272.666C289.359 259.586 299.548 245.5 306.68 230.408ZM241.471 306.875C236.377 309.893 232.301 304.862 232.301 303.856C236.377 301.844 240.452 299.832 244.528 297.819C244.528 299.832 245.547 303.856 241.471 306.875Z"
            fill="#E21013" />
    </g>
</svg>
